(this["webpackJsonpdrishti-3d"]=this["webpackJsonpdrishti-3d"]||[]).push([[1],{49:function(q){q.exports=JSON.parse('{"glyphs":{"0":{"ha":872,"x_min":49,"x_max":824,"o":"m 436 -1 q 287 26 357 -1 q 163 112 217 54 q 79 258 110 169 q 49 465 49 346 q 78 688 49 599 q 159 832 107 778 q 282 909 211 886 q 436 932 353 932 q 585 904 515 932 q 709 819 656 876 q 793 673 763 761 q 824 465 824 585 q 793 253 824 342 q 708 108 763 164 q 585 25 654 51 q 436 -1 515 -1 m 435 192 q 543 228 504 192 q 598 329 582 265 q 614 471 614 393 q 598 607 614 547 q 543 702 582 667 q 435 738 504 738 q 328 701 367 738 q 274 604 289 665 q 258 467 258 543 q 274 328 258 390 q 328 228 289 265 q 435 192 367 192 z "},"1":{"ha":478,"x_min":69,"x_max":346,"o":"m 69 921 l 346 921 l 346 0 l 143 0 l 143 726 l 69 726 l 69 921 z "},"2":{"ha":810,"x_min":49,"x_max":740,"o":"m 75 0 q 240 169 161 88 q 383 326 319 250 q 483 472 446 401 q 519 610 519 543 q 509 663 519 639 q 480 703 499 686 q 435 728 461 719 q 378 738 410 738 q 321 728 346 738 q 279 704 296 719 q 253 671 263 689 q 244 633 244 653 q 259 555 244 589 q 299 494 274 521 l 175 382 q 106 447 135 401 q 63 544 78 493 q 49 628 49 594 q 91 774 49 704 q 215 888 133 843 q 413 932 296 932 q 579 889 508 932 q 690 776 650 846 q 729 626 729 706 q 710 506 729 564 q 656 391 690 447 q 579 280 622 335 q 490 168 536 225 l 399 194 l 740 194 l 740 0 l 75 0 z "},"3":{"ha":732,"x_min":56,"x_max":649,"o":"m 633 921 l 425 521 l 315 581 q 345 589 329 586 q 375 592 361 592 q 472 581 424 593 q 560 536 521 568 q 624 449 600 504 q 649 307 649 393 q 602 135 649 207 q 481 26 556 64 q 318 -11 406 -11 q 175 17 250 -11 q 56 93 100 46 l 158 260 q 222 208 179 233 q 313 183 265 183 q 372 199 343 183 q 421 244 401 214 q 440 319 440 275 q 406 417 440 381 q 311 453 372 453 q 248 449 269 453 q 206 440 226 446 l 201 446 l 364 750 l 422 726 l 132 726 l 132 921 l 633 921 z "},"4":{"ha":768,"x_min":14,"x_max":713,"o":"m 14 201 l 14 203 l 601 932 l 603 932 l 603 354 l 713 354 l 713 201 l 603 201 l 603 0 l 400 0 l 400 201 l 14 201 m 410 489 l 303 346 l 283 354 l 400 354 l 400 499 l 410 489 z "},"5":{"ha":719,"x_min":56,"x_max":650,"o":"m 336 -11 q 176 19 254 -11 q 56 93 99 50 l 160 254 q 231 203 185 224 q 321 183 278 183 q 381 197 353 183 q 425 239 408 211 q 442 307 442 267 q 424 385 442 351 q 374 437 407 418 q 297 456 342 456 q 215 444 254 456 q 124 404 176 432 l 122 404 l 122 921 l 582 921 l 582 726 l 296 726 l 296 578 l 272 619 q 310 624 292 622 q 346 625 328 625 q 510 582 443 625 q 614 468 578 539 q 650 314 650 397 q 608 149 650 222 q 495 32 567 75 q 336 -11 424 -11 z "},"6":{"ha":779,"x_min":42,"x_max":738,"o":"m 397 -11 q 217 36 297 -11 q 89 175 136 83 q 42 399 42 267 q 73 558 42 481 q 159 705 104 635 q 286 836 214 775 q 440 946 358 897 l 575 800 q 393 690 464 757 q 289 550 322 622 q 256 417 256 478 l 206 422 q 302 558 243 510 q 467 607 361 607 q 596 569 533 607 q 698 465 658 532 q 738 310 738 399 q 688 135 738 207 q 561 26 639 64 q 397 -11 483 -11 m 389 169 q 460 185 429 169 q 510 233 492 201 q 528 308 528 264 q 509 380 528 351 q 459 423 490 408 q 389 438 428 438 q 319 423 350 438 q 269 384 288 408 q 250 332 250 360 l 250 299 q 268 236 250 265 q 318 188 286 207 q 389 169 350 169 z "},"7":{"ha":699,"x_min":56,"x_max":678,"o":"m 678 921 l 335 0 l 110 0 l 394 750 l 460 726 l 56 726 l 56 921 l 678 921 z "},"8":{"ha":739,"x_min":21,"x_max":718,"o":"m 21 299 q 47 421 21 371 q 112 503 74 471 q 182 556 150 536 q 130 622 151 588 q 108 718 108 656 q 144 829 108 781 q 239 905 179 878 q 371 932 299 932 q 503 905 443 932 q 601 832 564 878 q 638 728 638 786 q 615 624 638 658 q 558 556 592 589 q 628 501 592 535 q 692 419 665 468 q 718 299 718 369 q 672 147 718 218 q 548 33 626 76 q 368 -11 469 -11 q 188 33 267 -11 q 65 147 110 76 q 21 299 21 218 l 21 299 m 228 307 q 247 233 228 267 q 299 178 267 199 q 369 158 331 158 q 443 178 410 158 q 497 233 476 199 q 517 307 517 267 q 498 380 517 347 q 448 433 479 413 q 378 456 417 454 q 305 438 339 457 q 249 384 271 418 q 228 307 228 350 l 228 307 m 304 693 q 327 644 304 665 q 375 624 350 624 q 422 644 400 624 q 444 693 444 665 q 423 742 444 721 q 375 764 401 764 q 326 742 349 764 q 304 693 304 721 l 304 693 z "},"9":{"ha":758,"x_min":42,"x_max":738,"o":"m 313 288 q 184 325 246 288 q 82 430 122 363 q 42 585 42 497 q 91 774 42 696 q 218 892 140 851 q 382 932 296 932 q 563 887 483 932 q 690 763 643 842 q 738 586 738 685 q 698 381 738 472 q 592 218 658 290 q 446 87 526 146 q 283 -24 365 28 l 149 122 q 344 227 260 168 q 476 351 429 286 q 524 478 524 415 l 574 472 q 478 336 536 385 q 313 288 419 288 m 390 457 q 489 494 449 457 q 529 579 529 532 l 529 611 q 511 679 529 647 q 462 731 493 711 q 390 751 431 751 q 319 734 351 751 q 269 683 288 717 q 251 601 251 650 q 270 522 251 554 q 320 473 289 489 q 390 457 351 457 z "},"A":{"ha":967,"x_min":17,"x_max":950,"o":"m 17 0 l 478 1063 l 489 1063 l 950 0 l 717 0 l 422 747 l 568 847 l 215 0 l 17 0 m 332 369 l 639 369 l 710 200 l 269 200 l 332 369 z "},"\xc1":{"ha":967,"x_min":17,"x_max":950,"o":"m 17 0 l 478 1063 l 489 1063 l 950 0 l 717 0 l 422 747 l 568 847 l 215 0 l 17 0 m 332 369 l 639 369 l 710 200 l 269 200 l 332 369 z "},"\u0102":{"ha":967,"x_min":17,"x_max":950,"o":"m 17 0 l 478 1063 l 489 1063 l 950 0 l 717 0 l 422 747 l 568 847 l 215 0 l 17 0 m 332 369 l 639 369 l 710 200 l 269 200 l 332 369 z "},"\u1eae":{"ha":967,"x_min":17,"x_max":950,"o":"m 17 0 l 478 1063 l 489 1063 l 950 0 l 717 0 l 422 747 l 568 847 l 215 0 l 17 0 m 332 369 l 639 369 l 710 200 l 269 200 l 332 369 z "},"\u1eb6":{"ha":967,"x_min":17,"x_max":950,"o":"m 17 0 l 478 1063 l 489 1063 l 950 0 l 717 0 l 422 747 l 568 847 l 215 0 l 17 0 m 332 369 l 639 369 l 710 200 l 269 200 l 332 369 z "},"\u1eb0":{"ha":967,"x_min":17,"x_max":950,"o":"m 17 0 l 478 1063 l 489 1063 l 950 0 l 717 0 l 422 747 l 568 847 l 215 0 l 17 0 m 332 369 l 639 369 l 710 200 l 269 200 l 332 369 z "},"\u1eb2":{"ha":967,"x_min":17,"x_max":950,"o":"m 17 0 l 478 1063 l 489 1063 l 950 0 l 717 0 l 422 747 l 568 847 l 215 0 l 17 0 m 332 369 l 639 369 l 710 200 l 269 200 l 332 369 z "},"\u1eb4":{"ha":967,"x_min":17,"x_max":950,"o":"m 17 0 l 478 1063 l 489 1063 l 950 0 l 717 0 l 422 747 l 568 847 l 215 0 l 17 0 m 332 369 l 639 369 l 710 200 l 269 200 l 332 369 m 590 1481 q 511 1501 543 1481 q 453 1542 479 1521 q 423 1564 438 1554 q 392 1574 408 1574 q 363 1560 374 1574 q 350 1525 353 1546 q 350 1483 347 1504 l 253 1483 q 262 1586 246 1538 q 313 1665 278 1635 q 403 1696 349 1696 q 465 1676 438 1696 q 517 1638 493 1657 q 553 1608 536 1621 q 586 1596 569 1596 q 617 1627 613 1596 q 621 1692 622 1658 l 718 1692 q 713 1584 728 1632 q 665 1508 697 1536 q 590 1481 632 1481 z "},"\xc2":{"ha":967,"x_min":17,"x_max":950,"o":"m 17 0 l 478 1063 l 489 1063 l 950 0 l 717 0 l 422 747 l 568 847 l 215 0 l 17 0 m 332 369 l 639 369 l 710 200 l 269 200 l 332 369 z "},"\u1ea4":{"ha":967,"x_min":17,"x_max":950,"o":"m 17 0 l 478 1063 l 489 1063 l 950 0 l 717 0 l 422 747 l 568 847 l 215 0 l 17 0 m 332 369 l 639 369 l 710 200 l 269 200 l 332 369 z "},"\u1eac":{"ha":967,"x_min":17,"x_max":950,"o":"m 17 0 l 478 1063 l 489 1063 l 950 0 l 717 0 l 422 747 l 568 847 l 215 0 l 17 0 m 332 369 l 639 369 l 710 200 l 269 200 l 332 369 z "},"\u1ea6":{"ha":967,"x_min":-10,"x_max":950,"o":"m 17 0 l 478 1063 l 489 1063 l 950 0 l 717 0 l 422 747 l 568 847 l 215 0 l 17 0 m 332 369 l 639 369 l 710 200 l 269 200 l 332 369 z "},"\u1ea8":{"ha":967,"x_min":17,"x_max":950,"o":"m 17 0 l 478 1063 l 489 1063 l 950 0 l 717 0 l 422 747 l 568 847 l 215 0 l 17 0 m 332 369 l 639 369 l 710 200 l 269 200 l 332 369 z "},"\u1eaa":{"ha":967,"x_min":17,"x_max":950,"o":"m 17 0 l 478 1063 l 489 1063 l 950 0 l 717 0 l 422 747 l 568 847 l 215 0 l 17 0 m 332 369 l 639 369 l 710 200 l 269 200 l 332 369 z "},"\u0200":{"ha":967,"x_min":17,"x_max":950,"o":"m 17 0 l 478 1063 l 489 1063 l 950 0 l 717 0 l 422 747 l 568 847 l 215 0 l 17 0 m 332 369 l 639 369 l 710 200 l 269 200 l 332 369 z "},"\xc4":{"ha":967,"x_min":17,"x_max":950,"o":"m 17 0 l 478 1063 l 489 1063 l 950 0 l 717 0 l 422 747 l 568 847 l 215 0 l 17 0 m 332 369 l 639 369 l 710 200 l 269 200 l 332 369 z "},"\u1ea0":{"ha":967,"x_min":17,"x_max":950,"o":"m 17 0 l 478 1063 l 489 1063 l 950 0 l 717 0 l 422 747 l 568 847 l 215 0 l 17 0 m 332 369 l 639 369 l 710 200 l 269 200 l 332 369 z "},"\xc0":{"ha":967,"x_min":17,"x_max":950,"o":"m 17 0 l 478 1063 l 489 1063 l 950 0 l 717 0 l 422 747 l 568 847 l 215 0 l 17 0 m 332 369 l 639 369 l 710 200 l 269 200 l 332 369 z "},"\u1ea2":{"ha":967,"x_min":17,"x_max":950,"o":"m 17 0 l 478 1063 l 489 1063 l 950 0 l 717 0 l 422 747 l 568 847 l 215 0 l 17 0 m 332 369 l 639 369 l 710 200 l 269 200 l 332 369 z "},"\u0202":{"ha":967,"x_min":17,"x_max":950,"o":"m 17 0 l 478 1063 l 489 1063 l 950 0 l 717 0 l 422 747 l 568 847 l 215 0 l 17 0 m 332 369 l 639 369 l 710 200 l 269 200 l 332 369 m 475 1339 q 587 1310 540 1339 q 663 1224 633 1282 q 708 1079 693 1167 l 579 1079 q 559 1149 571 1119 q 528 1194 547 1178 q 475 1210 508 1210 q 423 1194 443 1210 q 392 1149 403 1178 q 372 1079 381 1119 l 243 1079 q 288 1227 258 1169 q 365 1312 318 1285 q 475 1339 411 1339 z "},"\u0100":{"ha":967,"x_min":17,"x_max":950,"o":"m 17 0 l 478 1063 l 489 1063 l 950 0 l 717 0 l 422 747 l 568 847 l 215 0 l 17 0 m 332 369 l 639 369 l 710 200 l 269 200 l 332 369 z "},"\u0104":{"ha":967,"x_min":17,"x_max":1003,"o":"m 17 0 l 478 1063 l 489 1063 l 950 0 l 717 0 l 422 747 l 568 847 l 215 0 l 17 0 m 332 369 l 639 369 l 710 200 l 269 200 l 332 369 z "},"\xc5":{"ha":967,"x_min":17,"x_max":950,"o":"m 17 0 l 478 1063 l 489 1063 l 950 0 l 717 0 l 422 747 l 568 847 l 215 0 l 17 0 m 332 369 l 639 369 l 710 200 l 269 200 l 332 369 z "},"\u01fa":{"ha":967,"x_min":17,"x_max":950,"o":"m 17 0 l 478 1063 l 489 1063 l 950 0 l 717 0 l 422 747 l 568 847 l 215 0 l 17 0 m 332 369 l 639 369 l 710 200 l 269 200 l 332 369 z "},"\xc3":{"ha":967,"x_min":17,"x_max":950,"o":"m 17 0 l 478 1063 l 489 1063 l 950 0 l 717 0 l 422 747 l 568 847 l 215 0 l 17 0 m 332 369 l 639 369 l 710 200 l 269 200 l 332 369 m 592 1171 q 513 1191 544 1171 q 454 1232 481 1211 q 424 1254 439 1244 q 393 1264 410 1264 q 365 1250 375 1264 q 351 1215 354 1236 q 351 1174 349 1194 l 254 1174 q 263 1276 247 1228 q 315 1356 279 1325 q 404 1386 350 1386 q 467 1367 439 1386 q 518 1328 494 1347 q 554 1299 538 1311 q 588 1286 571 1286 q 619 1317 614 1286 q 622 1382 624 1349 l 719 1382 q 714 1274 729 1322 q 666 1199 699 1226 q 592 1171 633 1171 z "},"\xc6":{"ha":1343,"x_min":7,"x_max":1267,"o":"m 675 1022 l 1247 1022 l 1247 828 l 876 828 l 876 607 l 1190 607 l 1190 413 l 876 413 l 876 194 l 1267 194 l 1267 0 l 675 0 l 675 1022 m 696 785 q 687 749 693 769 q 681 728 681 728 l 240 0 l 7 0 l 675 1022 l 696 785 m 378 383 l 699 383 l 699 224 l 315 224 l 378 383 z "},"\u01fc":{"ha":1343,"x_min":7,"x_max":1267,"o":"m 675 1022 l 1247 1022 l 1247 828 l 876 828 l 876 607 l 1190 607 l 1190 413 l 876 413 l 876 194 l 1267 194 l 1267 0 l 675 0 l 675 1022 m 696 785 q 687 749 693 769 q 681 728 681 728 l 240 0 l 7 0 l 675 1022 l 696 785 m 378 383 l 699 383 l 699 224 l 315 224 l 378 383 z "},"B":{"ha":899,"x_min":132,"x_max":829,"o":"m 432 1022 q 686 958 592 1022 q 781 765 781 893 q 734 608 781 671 q 608 513 688 544 q 425 482 528 482 l 393 590 q 617 556 519 590 q 772 456 715 521 q 829 301 829 392 q 799 160 829 218 q 719 67 769 103 q 604 16 668 32 q 472 0 540 0 l 132 0 l 132 1022 l 432 1022 m 456 604 q 544 640 515 604 q 572 722 572 676 q 537 801 572 775 q 442 828 501 828 l 333 828 l 333 604 l 456 604 m 463 188 q 543 199 507 188 q 600 237 579 211 q 621 301 621 263 q 596 369 621 346 q 531 401 571 392 q 449 410 492 410 l 333 410 l 333 188 l 463 188 z "},"C":{"ha":968,"x_min":69,"x_max":899,"o":"m 899 85 q 837 47 882 71 q 726 6 792 24 q 582 -11 661 -12 q 366 33 461 -8 q 205 144 271 74 q 104 307 139 215 q 69 503 69 399 q 105 717 69 619 q 206 885 140 814 q 364 994 272 956 q 567 1033 456 1033 q 749 1006 669 1033 q 878 946 828 978 l 799 756 q 706 810 764 782 q 574 839 649 839 q 462 815 515 839 q 367 746 408 790 q 303 642 326 701 q 279 514 279 583 q 301 379 279 440 q 363 274 322 318 q 459 207 403 231 q 586 183 515 183 q 726 210 668 183 q 815 265 785 236 l 899 85 z "},"\u0106":{"ha":968,"x_min":69,"x_max":899,"o":"m 899 85 q 837 47 882 71 q 726 6 792 24 q 582 -11 661 -12 q 366 33 461 -8 q 205 144 271 74 q 104 307 139 215 q 69 503 69 399 q 105 717 69 619 q 206 885 140 814 q 364 994 272 956 q 567 1033 456 1033 q 749 1006 669 1033 q 878 946 828 978 l 799 756 q 706 810 764 782 q 574 839 649 839 q 462 815 515 839 q 367 746 408 790 q 303 642 326 701 q 279 514 279 583 q 301 379 279 440 q 363 274 322 318 q 459 207 403 231 q 586 183 515 183 q 726 210 668 183 q 815 265 785 236 l 899 85 z "},"\u010c":{"ha":968,"x_min":69,"x_max":899,"o":"m 899 85 q 837 47 882 71 q 726 6 792 24 q 582 -11 661 -12 q 366 33 461 -8 q 205 144 271 74 q 104 307 139 215 q 69 503 69 399 q 105 717 69 619 q 206 885 140 814 q 364 994 272 956 q 567 1033 456 1033 q 749 1006 669 1033 q 878 946 828 978 l 799 756 q 706 810 764 782 q 574 839 649 839 q 462 815 515 839 q 367 746 408 790 q 303 642 326 701 q 279 514 279 583 q 301 379 279 440 q 363 274 322 318 q 459 207 403 231 q 586 183 515 183 q 726 210 668 183 q 815 265 785 236 l 899 85 z "},"\xc7":{"ha":968,"x_min":69,"x_max":899,"o":"m 899 85 q 837 47 882 71 q 726 6 792 24 q 582 -11 661 -12 q 366 33 461 -8 q 205 144 271 74 q 104 307 139 215 q 69 503 69 399 q 105 717 69 619 q 206 885 140 814 q 364 994 272 956 q 567 1033 456 1033 q 749 1006 669 1033 q 878 946 828 978 l 799 756 q 706 810 764 782 q 574 839 649 839 q 462 815 515 839 q 367 746 408 790 q 303 642 326 701 q 279 514 279 583 q 301 379 279 440 q 363 274 322 318 q 459 207 403 231 q 586 183 515 183 q 726 210 668 183 q 815 265 785 236 l 899 85 z "},"\u0108":{"ha":968,"x_min":69,"x_max":899,"o":"m 899 85 q 837 47 882 71 q 726 6 792 24 q 582 -11 661 -12 q 366 33 461 -8 q 205 144 271 74 q 104 307 139 215 q 69 503 69 399 q 105 717 69 619 q 206 885 140 814 q 364 994 272 956 q 567 1033 456 1033 q 749 1006 669 1033 q 878 946 828 978 l 799 756 q 706 810 764 782 q 574 839 649 839 q 462 815 515 839 q 367 746 408 790 q 303 642 326 701 q 279 514 279 583 q 301 379 279 440 q 363 274 322 318 q 459 207 403 231 q 586 183 515 183 q 726 210 668 183 q 815 265 785 236 l 899 85 z "},"\u010a":{"ha":968,"x_min":69,"x_max":899,"o":"m 899 85 q 837 47 882 71 q 726 6 792 24 q 582 -11 661 -12 q 366 33 461 -8 q 205 144 271 74 q 104 307 139 215 q 69 503 69 399 q 105 717 69 619 q 206 885 140 814 q 364 994 272 956 q 567 1033 456 1033 q 749 1006 669 1033 q 878 946 828 978 l 799 756 q 706 810 764 782 q 574 839 649 839 q 462 815 515 839 q 367 746 408 790 q 303 642 326 701 q 279 514 279 583 q 301 379 279 440 q 363 274 322 318 q 459 207 403 231 q 586 183 515 183 q 726 210 668 183 q 815 265 785 236 l 899 85 z "},"D":{"ha":1071,"x_min":132,"x_max":1001,"o":"m 132 0 l 132 1022 l 438 1022 q 700 976 592 1022 q 874 854 808 931 q 971 683 940 778 q 1001 493 1001 589 q 960 288 1001 379 q 849 133 919 197 q 685 34 778 68 q 488 0 592 0 l 132 0 m 333 194 l 453 194 q 592 215 529 194 q 699 274 654 235 q 769 372 744 313 q 793 507 793 431 q 760 670 793 607 q 680 768 728 733 q 582 816 632 803 q 497 829 532 829 l 333 829 l 333 194 z "},"\u01c4":{"ha":1942,"x_min":132,"x_max":1872,"o":"m 132 0 l 132 1022 l 438 1022 q 700 976 592 1022 q 874 854 808 931 q 971 683 940 778 q 1001 493 1001 589 q 960 288 1001 379 q 849 133 919 197 q 685 34 778 68 q 488 0 592 0 l 132 0 m 333 194 l 453 194 q 592 215 529 194 q 699 274 654 235 q 769 372 744 313 q 793 507 793 431 q 760 670 793 607 q 680 768 728 733 q 582 816 632 803 q 497 829 532 829 l 333 829 l 333 194 z "},"\xd0":{"ha":1071,"x_min":28,"x_max":1001,"o":"m 132 0 l 132 1022 l 438 1022 q 700 976 592 1022 q 874 854 808 931 q 971 683 940 778 q 1001 493 1001 589 q 960 288 1001 379 q 849 133 919 197 q 685 34 778 68 q 488 0 592 0 l 132 0 m 333 194 l 453 194 q 592 215 529 194 q 699 274 654 235 q 769 372 744 313 q 793 507 793 431 q 760 670 793 607 q 680 768 728 733 q 582 816 632 803 q 497 829 532 829 l 333 829 l 333 194 m 28 596 l 465 596 l 465 415 l 28 415 l 28 596 z "},"\u010e":{"ha":1071,"x_min":132,"x_max":1001,"o":"m 132 0 l 132 1022 l 438 1022 q 700 976 592 1022 q 874 854 808 931 q 971 683 940 778 q 1001 493 1001 589 q 960 288 1001 379 q 849 133 919 197 q 685 34 778 68 q 488 0 592 0 l 132 0 m 333 194 l 453 194 q 592 215 529 194 q 699 274 654 235 q 769 372 744 313 q 793 507 793 431 q 760 670 793 607 q 680 768 728 733 q 582 816 632 803 q 497 829 532 829 l 333 829 l 333 194 z "},"\u0110":{"ha":1090,"x_min":47,"x_max":1021,"o":"m 151 0 l 151 1022 l 457 1022 q 719 976 611 1022 q 894 854 828 931 q 990 683 960 778 q 1021 493 1021 589 q 980 288 1021 379 q 868 133 939 197 q 704 34 797 68 q 507 0 611 0 l 151 0 m 353 194 l 472 194 q 611 215 549 194 q 719 274 674 235 q 788 372 764 313 q 813 507 813 431 q 780 670 813 607 q 699 768 747 733 q 601 816 651 803 q 517 829 551 829 l 353 829 l 353 194 m 47 596 l 485 596 l 485 415 l 47 415 l 47 596 z "},"\u01c5":{"ha":1796,"x_min":132,"x_max":1718,"o":"m 132 0 l 132 1022 l 438 1022 q 700 976 592 1022 q 874 854 808 931 q 971 683 940 778 q 1001 493 1001 589 q 960 288 1001 379 q 849 133 919 197 q 685 34 778 68 q 488 0 592 0 l 132 0 m 333 194 l 453 194 q 592 215 529 194 q 699 274 654 235 q 769 372 744 313 q 793 507 793 431 q 760 670 793 607 q 680 768 728 733 q 582 816 632 803 q 497 829 532 829 l 333 829 l 333 194 z "},"E":{"ha":925,"x_min":132,"x_max":849,"o":"m 132 1022 l 829 1022 l 829 828 l 333 828 l 333 610 l 772 610 l 772 415 l 333 415 l 333 194 l 849 194 l 849 0 l 132 0 l 132 1022 z "},"\xc9":{"ha":925,"x_min":132,"x_max":849,"o":"m 132 1022 l 829 1022 l 829 828 l 333 828 l 333 610 l 772 610 l 772 415 l 333 415 l 333 194 l 849 194 l 849 0 l 132 0 l 132 1022 z "},"\u0114":{"ha":925,"x_min":132,"x_max":849,"o":"m 132 1022 l 829 1022 l 829 828 l 333 828 l 333 610 l 772 610 l 772 415 l 333 415 l 333 194 l 849 194 l 849 0 l 132 0 l 132 1022 z "},"\u011a":{"ha":925,"x_min":132,"x_max":849,"o":"m 132 1022 l 829 1022 l 829 828 l 333 828 l 333 610 l 772 610 l 772 415 l 333 415 l 333 194 l 849 194 l 849 0 l 132 0 l 132 1022 z "},"\xca":{"ha":925,"x_min":132,"x_max":849,"o":"m 132 1022 l 829 1022 l 829 828 l 333 828 l 333 610 l 772 610 l 772 415 l 333 415 l 333 194 l 849 194 l 849 0 l 132 0 l 132 1022 z "},"\u1ebe":{"ha":925,"x_min":132,"x_max":929,"o":"m 132 1022 l 829 1022 l 829 828 l 333 828 l 333 610 l 772 610 l 772 415 l 333 415 l 333 194 l 849 194 l 849 0 l 132 0 l 132 1022 z "},"\u1ec6":{"ha":925,"x_min":132,"x_max":849,"o":"m 132 1022 l 829 1022 l 829 828 l 333 828 l 333 610 l 772 610 l 772 415 l 333 415 l 333 194 l 849 194 l 849 0 l 132 0 l 132 1022 z "},"\u1ec0":{"ha":925,"x_min":-12,"x_max":849,"o":"m 132 1022 l 829 1022 l 829 828 l 333 828 l 333 610 l 772 610 l 772 415 l 333 415 l 333 194 l 849 194 l 849 0 l 132 0 l 132 1022 z "},"\u1ec2":{"ha":925,"x_min":132,"x_max":904,"o":"m 132 1022 l 829 1022 l 829 828 l 333 828 l 333 610 l 772 610 l 772 415 l 333 415 l 333 194 l 849 194 l 849 0 l 132 0 l 132 1022 z "},"\u1ec4":{"ha":925,"x_min":132,"x_max":849,"o":"m 132 1022 l 829 1022 l 829 828 l 333 828 l 333 610 l 772 610 l 772 415 l 333 415 l 333 194 l 849 194 l 849 0 l 132 0 l 132 1022 z "},"\u0204":{"ha":925,"x_min":132,"x_max":849,"o":"m 132 1022 l 829 1022 l 829 828 l 333 828 l 333 610 l 772 610 l 772 415 l 333 415 l 333 194 l 849 194 l 849 0 l 132 0 l 132 1022 z "},"\xcb":{"ha":925,"x_min":132,"x_max":849,"o":"m 132 1022 l 829 1022 l 829 828 l 333 828 l 333 610 l 772 610 l 772 415 l 333 415 l 333 194 l 849 194 l 849 0 l 132 0 l 132 1022 z "},"\u0116":{"ha":925,"x_min":132,"x_max":849,"o":"m 132 1022 l 829 1022 l 829 828 l 333 828 l 333 610 l 772 610 l 772 415 l 333 415 l 333 194 l 849 194 l 849 0 l 132 0 l 132 1022 z "},"\u1eb8":{"ha":925,"x_min":132,"x_max":849,"o":"m 132 1022 l 829 1022 l 829 828 l 333 828 l 333 610 l 772 610 l 772 415 l 333 415 l 333 194 l 849 194 l 849 0 l 132 0 l 132 1022 z "},"\xc8":{"ha":925,"x_min":132,"x_max":849,"o":"m 132 1022 l 829 1022 l 829 828 l 333 828 l 333 610 l 772 610 l 772 415 l 333 415 l 333 194 l 849 194 l 849 0 l 132 0 l 132 1022 z "},"\u1eba":{"ha":925,"x_min":132,"x_max":849,"o":"m 132 1022 l 829 1022 l 829 828 l 333 828 l 333 610 l 772 610 l 772 415 l 333 415 l 333 194 l 849 194 l 849 0 l 132 0 l 132 1022 z "},"\u0206":{"ha":925,"x_min":132,"x_max":849,"o":"m 132 1022 l 829 1022 l 829 828 l 333 828 l 333 610 l 772 610 l 772 415 l 333 415 l 333 194 l 849 194 l 849 0 l 132 0 l 132 1022 m 472 1311 q 584 1283 538 1311 q 660 1197 631 1254 q 706 1051 690 1139 l 576 1051 q 556 1121 568 1092 q 525 1166 544 1150 q 472 1182 506 1182 q 420 1166 440 1182 q 389 1121 400 1150 q 369 1051 378 1092 l 240 1051 q 285 1199 256 1142 q 362 1284 315 1257 q 472 1311 408 1311 z "},"\u0112":{"ha":925,"x_min":132,"x_max":849,"o":"m 132 1022 l 829 1022 l 829 828 l 333 828 l 333 610 l 772 610 l 772 415 l 333 415 l 333 194 l 849 194 l 849 0 l 132 0 l 132 1022 z "},"\u0118":{"ha":925,"x_min":132,"x_max":901,"o":"m 132 1022 l 829 1022 l 829 828 l 333 828 l 333 610 l 772 610 l 772 415 l 333 415 l 333 194 l 849 194 l 849 0 l 132 0 l 132 1022 z "},"\u1ebc":{"ha":925,"x_min":132,"x_max":849,"o":"m 132 1022 l 829 1022 l 829 828 l 333 828 l 333 610 l 772 610 l 772 415 l 333 415 l 333 194 l 849 194 l 849 0 l 132 0 l 132 1022 m 589 1143 q 510 1163 542 1143 q 451 1204 478 1183 q 422 1226 436 1217 q 390 1236 407 1236 q 362 1222 372 1236 q 349 1188 351 1208 q 349 1146 346 1167 l 251 1146 q 260 1249 244 1200 q 312 1328 276 1297 q 401 1358 347 1358 q 464 1339 436 1358 q 515 1300 492 1319 q 551 1271 535 1283 q 585 1258 568 1258 q 616 1290 611 1258 q 619 1354 621 1321 l 717 1354 q 711 1247 726 1294 q 663 1171 696 1199 q 589 1143 631 1143 z "},"F":{"ha":833,"x_min":132,"x_max":771,"o":"m 132 1022 l 771 1022 l 771 828 l 333 828 l 333 596 l 713 596 l 713 401 l 333 401 l 333 0 l 132 0 l 132 1022 z "},"G":{"ha":1058,"x_min":69,"x_max":961,"o":"m 961 103 q 904 63 943 83 q 815 26 865 43 q 711 -1 764 10 q 611 -11 658 -11 q 386 26 486 -11 q 215 128 286 63 q 107 285 144 194 q 69 482 69 375 q 112 726 69 622 q 227 898 154 829 q 395 1000 300 967 q 594 1033 490 1033 q 775 1012 693 1033 q 914 958 857 990 l 849 771 q 782 799 824 785 q 697 822 740 813 q 621 831 654 831 q 474 810 538 831 q 366 747 410 789 q 300 644 322 706 q 278 500 278 582 q 303 370 278 428 q 373 272 328 313 q 480 211 418 232 q 617 190 542 190 q 696 197 660 190 q 757 217 732 203 l 757 340 l 581 340 l 581 535 l 961 535 l 961 103 z "},"\u011e":{"ha":1058,"x_min":69,"x_max":961,"o":"m 961 103 q 904 63 943 83 q 815 26 865 43 q 711 -1 764 10 q 611 -11 658 -11 q 386 26 486 -11 q 215 128 286 63 q 107 285 144 194 q 69 482 69 375 q 112 726 69 622 q 227 898 154 829 q 395 1000 300 967 q 594 1033 490 1033 q 775 1012 693 1033 q 914 958 857 990 l 849 771 q 782 799 824 785 q 697 822 740 813 q 621 831 654 831 q 474 810 538 831 q 366 747 410 789 q 300 644 322 706 q 278 500 278 582 q 303 370 278 428 q 373 272 328 313 q 480 211 418 232 q 617 190 542 190 q 696 197 660 190 q 757 217 732 203 l 757 340 l 581 340 l 581 535 l 961 535 l 961 103 z "},"\u01e6":{"ha":1058,"x_min":69,"x_max":961,"o":"m 961 103 q 904 63 943 83 q 815 26 865 43 q 711 -1 764 10 q 611 -11 658 -11 q 386 26 486 -11 q 215 128 286 63 q 107 285 144 194 q 69 482 69 375 q 112 726 69 622 q 227 898 154 829 q 395 1000 300 967 q 594 1033 490 1033 q 775 1012 693 1033 q 914 958 857 990 l 849 771 q 782 799 824 785 q 697 822 740 813 q 621 831 654 831 q 474 810 538 831 q 366 747 410 789 q 300 644 322 706 q 278 500 278 582 q 303 370 278 428 q 373 272 328 313 q 480 211 418 232 q 617 190 542 190 q 696 197 660 190 q 757 217 732 203 l 757 340 l 581 340 l 581 535 l 961 535 l 961 103 z "},"\u011c":{"ha":1058,"x_min":69,"x_max":961,"o":"m 961 103 q 904 63 943 83 q 815 26 865 43 q 711 -1 764 10 q 611 -11 658 -11 q 386 26 486 -11 q 215 128 286 63 q 107 285 144 194 q 69 482 69 375 q 112 726 69 622 q 227 898 154 829 q 395 1000 300 967 q 594 1033 490 1033 q 775 1012 693 1033 q 914 958 857 990 l 849 771 q 782 799 824 785 q 697 822 740 813 q 621 831 654 831 q 474 810 538 831 q 366 747 410 789 q 300 644 322 706 q 278 500 278 582 q 303 370 278 428 q 373 272 328 313 q 480 211 418 232 q 617 190 542 190 q 696 197 660 190 q 757 217 732 203 l 757 340 l 581 340 l 581 535 l 961 535 l 961 103 z "},"\u0122":{"ha":1058,"x_min":69,"x_max":961,"o":"m 961 103 q 904 63 943 83 q 815 26 865 43 q 711 -1 764 10 q 611 -11 658 -11 q 386 26 486 -11 q 215 128 286 63 q 107 285 144 194 q 69 482 69 375 q 112 726 69 622 q 227 898 154 829 q 395 1000 300 967 q 594 1033 490 1033 q 775 1012 693 1033 q 914 958 857 990 l 849 771 q 782 799 824 785 q 697 822 740 813 q 621 831 654 831 q 474 810 538 831 q 366 747 410 789 q 300 644 322 706 q 278 500 278 582 q 303 370 278 428 q 373 272 328 313 q 480 211 418 232 q 617 190 542 190 q 696 197 660 190 q 757 217 732 203 l 757 340 l 581 340 l 581 535 l 961 535 l 961 103 z "},"\u0120":{"ha":1058,"x_min":69,"x_max":961,"o":"m 961 103 q 904 63 943 83 q 815 26 865 43 q 711 -1 764 10 q 611 -11 658 -11 q 386 26 486 -11 q 215 128 286 63 q 107 285 144 194 q 69 482 69 375 q 112 726 69 622 q 227 898 154 829 q 395 1000 300 967 q 594 1033 490 1033 q 775 1012 693 1033 q 914 958 857 990 l 849 771 q 782 799 824 785 q 697 822 740 813 q 621 831 654 831 q 474 810 538 831 q 366 747 410 789 q 300 644 322 706 q 278 500 278 582 q 303 370 278 428 q 373 272 328 313 q 480 211 418 232 q 617 190 542 190 q 696 197 660 190 q 757 217 732 203 l 757 340 l 581 340 l 581 535 l 961 535 l 961 103 z "},"H":{"ha":1124,"x_min":132,"x_max":992,"o":"m 992 1022 l 992 0 l 790 0 l 790 415 l 333 415 l 333 0 l 132 0 l 132 1022 l 333 1022 l 333 610 l 790 610 l 790 1022 l 992 1022 z "},"\u0126":{"ha":1354,"x_min":132,"x_max":1222,"o":"m 132 842 l 1222 842 l 1222 693 l 132 693 l 132 842 m 1119 1022 l 1119 0 l 918 0 l 918 415 l 461 415 l 461 0 l 260 0 l 260 1022 l 461 1022 l 461 610 l 918 610 l 918 1022 l 1119 1022 z "},"\u0124":{"ha":1124,"x_min":132,"x_max":992,"o":"m 992 1022 l 992 0 l 790 0 l 790 415 l 333 415 l 333 0 l 132 0 l 132 1022 l 333 1022 l 333 610 l 790 610 l 790 1022 l 992 1022 z "},"I":{"ha":465,"x_min":132,"x_max":333,"o":"m 132 1022 l 333 1022 l 333 0 l 132 0 l 132 1022 z "},"\u0132":{"ha":1021,"x_min":132,"x_max":889,"o":"m 132 1022 l 333 1022 l 333 0 l 132 0 l 132 1022 m 889 215 q 836 -12 889 82 q 690 -158 783 -107 q 472 -212 596 -208 l 472 -212 l 472 -17 q 626 42 567 -11 q 686 219 686 94 l 686 1022 l 889 1022 l 889 215 z "},"\xcd":{"ha":465,"x_min":132,"x_max":492,"o":"m 132 1022 l 333 1022 l 333 0 l 132 0 l 132 1022 z "},"\u012c":{"ha":465,"x_min":0,"x_max":465,"o":"m 132 1022 l 333 1022 l 333 0 l 132 0 l 132 1022 z "},"\xce":{"ha":465,"x_min":-39,"x_max":482,"o":"m 132 1022 l 333 1022 l 333 0 l 132 0 l 132 1022 z "},"\u0208":{"ha":465,"x_min":-94,"x_max":443,"o":"m 132 1022 l 333 1022 l 333 0 l 132 0 l 132 1022 z "},"\xcf":{"ha":465,"x_min":-14,"x_max":461,"o":"m 132 1022 l 333 1022 l 333 0 l 132 0 l 132 1022 z "},"\u0130":{"ha":465,"x_min":128,"x_max":339,"o":"m 132 1022 l 333 1022 l 333 0 l 132 0 l 132 1022 z "},"\u1eca":{"ha":465,"x_min":124,"x_max":335,"o":"m 132 1022 l 333 1022 l 333 0 l 132 0 l 132 1022 z "},"\xcc":{"ha":465,"x_min":-25,"x_max":333,"o":"m 132 1022 l 333 1022 l 333 0 l 132 0 l 132 1022 z "},"\u1ec8":{"ha":465,"x_min":110,"x_max":381,"o":"m 132 1022 l 333 1022 l 333 0 l 132 0 l 132 1022 z "},"\u020a":{"ha":465,"x_min":-7,"x_max":458,"o":"m 132 1022 l 333 1022 l 333 0 l 132 0 l 132 1022 m 225 1311 q 337 1283 290 1311 q 413 1197 383 1254 q 458 1051 443 1139 l 329 1051 q 309 1121 321 1092 q 278 1166 297 1150 q 225 1182 258 1182 q 173 1166 193 1182 q 142 1121 153 1150 q 122 1051 131 1092 l -7 1051 q 38 1199 8 1142 q 115 1284 68 1257 q 225 1311 161 1311 z "},"\u012a":{"ha":465,"x_min":50,"x_max":404,"o":"m 132 1022 l 333 1022 l 333 0 l 132 0 l 132 1022 z "},"\u012e":{"ha":396,"x_min":10,"x_max":400,"o":"m 213 -322 q 69 -280 128 -322 q 10 -157 10 -237 q 40 -67 10 -111 q 128 0 71 -22 l 292 8 l 326 0 q 213 -55 256 -26 q 169 -128 169 -83 q 188 -174 169 -162 q 231 -186 207 -186 q 283 -169 258 -186 q 331 -118 308 -153 l 400 -218 q 315 -293 369 -264 q 213 -322 261 -322 m 132 1022 l 333 1022 l 333 0 l 132 0 l 132 1022 z "},"\u0128":{"ha":465,"x_min":-3,"x_max":479,"o":"m 132 1022 l 333 1022 l 333 0 l 132 0 l 132 1022 m 342 1143 q 263 1163 294 1143 q 204 1204 231 1183 q 174 1226 189 1217 q 143 1236 160 1236 q 115 1222 125 1236 q 101 1188 104 1208 q 101 1146 99 1167 l 4 1146 q 13 1249 -3 1200 q 65 1328 29 1297 q 154 1358 100 1358 q 217 1339 189 1358 q 268 1300 244 1319 q 304 1271 288 1283 q 338 1258 321 1258 q 369 1290 364 1258 q 372 1354 374 1321 l 469 1354 q 464 1247 479 1294 q 416 1171 449 1199 q 342 1143 383 1143 z "},"J":{"ha":556,"x_min":7,"x_max":424,"o":"m 424 215 q 371 -12 424 82 q 224 -158 318 -107 q 7 -212 131 -208 l 7 -212 l 7 -17 q 161 42 101 -11 q 221 219 221 94 l 221 1022 l 424 1022 l 424 215 z "},"\u0134":{"ha":556,"x_min":7,"x_max":579,"o":"m 424 215 q 371 -12 424 82 q 224 -158 318 -107 q 7 -212 131 -208 l 7 -212 l 7 -17 q 161 42 101 -11 q 221 219 221 94 l 221 1022 l 424 1022 l 424 215 z "},"K":{"ha":978,"x_min":132,"x_max":957,"o":"m 336 658 l 331 607 l 361 646 l 694 1022 l 956 1022 l 533 564 l 957 0 l 701 0 l 386 436 l 336 386 l 336 0 l 132 0 l 132 1022 l 336 1022 l 336 658 z "},"\u0136":{"ha":978,"x_min":132,"x_max":957,"o":"m 336 658 l 331 607 l 361 646 l 694 1022 l 956 1022 l 533 564 l 957 0 l 701 0 l 386 436 l 336 386 l 336 0 l 132 0 l 132 1022 l 336 1022 l 336 658 z "},"L":{"ha":890,"x_min":132,"x_max":814,"o":"m 132 1022 l 333 1022 l 333 194 l 814 194 l 814 0 l 132 0 l 132 1022 z "},"\u01c7":{"ha":1446,"x_min":132,"x_max":1314,"o":"m 132 1022 l 333 1022 l 333 194 l 814 194 l 814 0 l 132 0 l 132 1022 m 1314 215 q 1261 -12 1314 82 q 1115 -158 1208 -107 q 897 -212 1021 -208 l 897 -212 l 897 -17 q 1051 42 992 -11 q 1111 219 1111 94 l 1111 1022 l 1314 1022 l 1314 215 z "},"\u0139":{"ha":890,"x_min":132,"x_max":814,"o":"m 132 1022 l 333 1022 l 333 194 l 814 194 l 814 0 l 132 0 l 132 1022 z "},"\u013d":{"ha":889,"x_min":132,"x_max":814,"o":"m 132 1022 l 333 1022 l 333 194 l 814 194 l 814 0 l 132 0 l 132 1022 m 696 776 l 596 815 q 646 896 626 843 q 656 997 665 949 l 804 1007 q 798 921 813 968 q 756 835 783 874 q 696 776 729 796 l 696 776 z "},"\u013b":{"ha":890,"x_min":132,"x_max":814,"o":"m 132 1022 l 333 1022 l 333 194 l 814 194 l 814 0 l 132 0 l 132 1022 z "},"\u013f":{"ha":881,"x_min":132,"x_max":818,"o":"m 132 1022 l 333 1022 l 333 194 l 814 194 l 814 0 l 132 0 l 132 1022 z "},"\u01c8":{"ha":1300,"x_min":132,"x_max":1210,"o":"m 132 1022 l 333 1022 l 333 194 l 814 194 l 814 0 l 132 0 l 132 1022 z "},"\u0141":{"ha":889,"x_min":7,"x_max":814,"o":"m 571 686 l 613 529 l 49 354 l 7 511 l 571 686 m 132 1022 l 333 1022 l 333 194 l 814 194 l 814 0 l 132 0 l 132 1022 z "},"M":{"ha":1317,"x_min":132,"x_max":1185,"o":"m 132 0 l 132 1064 l 133 1064 l 701 258 l 615 278 l 1182 1064 l 1185 1064 l 1185 0 l 983 0 l 983 610 l 996 506 l 650 14 l 647 14 l 292 506 l 326 601 l 326 0 l 132 0 z "},"N":{"ha":1185,"x_min":132,"x_max":1053,"o":"m 1047 -42 l 272 658 l 332 625 l 336 0 l 132 0 l 132 1063 l 140 1063 l 899 365 l 854 385 l 850 1022 l 1053 1022 l 1053 -42 l 1047 -42 z "},"\u01ca":{"ha":1740,"x_min":132,"x_max":1608,"o":"m 1047 -42 l 272 658 l 332 625 l 336 0 l 132 0 l 132 1063 l 140 1063 l 899 365 l 854 385 l 850 1022 l 1053 1022 l 1053 -42 l 1047 -42 m 1608 215 q 1556 -12 1608 82 q 1409 -158 1503 -107 q 1192 -212 1315 -208 l 1192 -212 l 1192 -17 q 1346 42 1286 -11 q 1406 219 1406 94 l 1406 1022 l 1608 1022 l 1608 215 z "},"\u0143":{"ha":1185,"x_min":132,"x_max":1053,"o":"m 1047 -42 l 272 658 l 332 625 l 336 0 l 132 0 l 132 1063 l 140 1063 l 899 365 l 854 385 l 850 1022 l 1053 1022 l 1053 -42 l 1047 -42 z "},"\u0147":{"ha":1185,"x_min":132,"x_max":1053,"o":"m 1047 -42 l 272 658 l 332 625 l 336 0 l 132 0 l 132 1063 l 140 1063 l 899 365 l 854 385 l 850 1022 l 1053 1022 l 1053 -42 l 1047 -42 z "},"\u0145":{"ha":1185,"x_min":132,"x_max":1053,"o":"m 1047 -42 l 272 658 l 332 625 l 336 0 l 132 0 l 132 1063 l 140 1063 l 899 365 l 854 385 l 850 1022 l 1053 1022 l 1053 -42 l 1047 -42 z "},"\u014a":{"ha":1115,"x_min":97,"x_max":1018,"o":"m 1013 -42 l 238 658 l 297 625 l 301 0 l 97 0 l 97 1063 l 106 1063 l 864 365 l 819 385 l 815 1022 l 1018 1022 l 1018 6 l 1013 -42 m 1018 42 l 1018 0 q 977 -174 1018 -100 q 849 -293 936 -247 l 738 -172 q 802 -97 779 -142 q 825 11 825 -53 l 825 226 l 1018 42 z "},"\u019d":{"ha":1150,"x_min":10,"x_max":1018,"o":"m 1013 -42 l 238 658 l 297 625 l 301 0 l 97 0 l 97 1063 l 106 1063 l 864 365 l 819 385 l 815 1022 l 1018 1022 l 1018 6 l 1013 -42 m 301 42 l 301 0 q 260 -174 301 -100 q 132 -293 219 -247 l 10 -172 q 74 -97 51 -142 q 97 11 97 -53 l 97 226 l 301 42 z "},"\u01cb":{"ha":1594,"x_min":132,"x_max":1504,"o":"m 1047 -42 l 272 658 l 332 625 l 336 0 l 132 0 l 132 1063 l 140 1063 l 899 365 l 854 385 l 850 1022 l 1053 1022 l 1053 -42 l 1047 -42 z "},"\xd1":{"ha":1185,"x_min":132,"x_max":1053,"o":"m 1047 -42 l 272 658 l 332 625 l 336 0 l 132 0 l 132 1063 l 140 1063 l 899 365 l 854 385 l 850 1022 l 1053 1022 l 1053 -42 l 1047 -42 m 674 1115 q 594 1135 626 1115 q 536 1176 563 1156 q 506 1199 521 1189 q 475 1208 492 1208 q 447 1194 457 1208 q 433 1160 436 1181 q 433 1118 431 1139 l 336 1118 q 345 1221 329 1172 q 397 1300 361 1269 q 486 1331 432 1331 q 549 1311 521 1331 q 600 1272 576 1292 q 636 1243 619 1256 q 669 1231 653 1231 q 701 1262 696 1231 q 704 1326 706 1293 l 801 1326 q 796 1219 811 1267 q 748 1143 781 1171 q 674 1115 715 1115 z "},"O":{"ha":1183,"x_min":69,"x_max":1114,"o":"m 69 510 q 110 710 69 615 q 222 877 150 804 q 388 992 293 950 q 590 1033 482 1033 q 792 992 697 1033 q 959 877 886 950 q 1073 710 1032 804 q 1114 510 1114 615 q 1073 307 1114 401 q 959 141 1032 213 q 792 29 886 69 q 590 -11 697 -11 q 388 29 482 -11 q 222 141 293 69 q 110 307 150 213 q 69 510 69 401 m 278 510 q 302 383 278 442 q 370 278 326 324 q 472 208 414 233 q 597 183 529 183 q 719 208 663 183 q 817 278 775 233 q 882 383 858 324 q 906 510 906 442 q 881 639 906 579 q 815 744 857 699 q 715 814 772 789 q 592 839 658 839 q 468 814 525 839 q 368 744 411 789 q 301 639 325 699 q 278 510 278 579 z "},"\xd3":{"ha":1183,"x_min":69,"x_max":1114,"o":"m 69 510 q 110 710 69 615 q 222 877 150 804 q 388 992 293 950 q 590 1033 482 1033 q 792 992 697 1033 q 959 877 886 950 q 1073 710 1032 804 q 1114 510 1114 615 q 1073 307 1114 401 q 959 141 1032 213 q 792 29 886 69 q 590 -11 697 -11 q 388 29 482 -11 q 222 141 293 69 q 110 307 150 213 q 69 510 69 401 m 278 510 q 302 383 278 442 q 370 278 326 324 q 472 208 414 233 q 597 183 529 183 q 719 208 663 183 q 817 278 775 233 q 882 383 858 324 q 906 510 906 442 q 881 639 906 579 q 815 744 857 699 q 715 814 772 789 q 592 839 658 839 q 468 814 525 839 q 368 744 411 789 q 301 639 325 699 q 278 510 278 579 z "},"\u014e":{"ha":1183,"x_min":69,"x_max":1114,"o":"m 69 510 q 110 710 69 615 q 222 877 150 804 q 388 992 293 950 q 590 1033 482 1033 q 792 992 697 1033 q 959 877 886 950 q 1073 710 1032 804 q 1114 510 1114 615 q 1073 307 1114 401 q 959 141 1032 213 q 792 29 886 69 q 590 -11 697 -11 q 388 29 482 -11 q 222 141 293 69 q 110 307 150 213 q 69 510 69 401 m 278 510 q 302 383 278 442 q 370 278 326 324 q 472 208 414 233 q 597 183 529 183 q 719 208 663 183 q 817 278 775 233 q 882 383 858 324 q 906 510 906 442 q 881 639 906 579 q 815 744 857 699 q 715 814 772 789 q 592 839 658 839 q 468 814 525 839 q 368 744 411 789 q 301 639 325 699 q 278 510 278 579 z "},"\xd4":{"ha":1183,"x_min":69,"x_max":1114,"o":"m 69 510 q 110 710 69 615 q 222 877 150 804 q 388 992 293 950 q 590 1033 482 1033 q 792 992 697 1033 q 959 877 886 950 q 1073 710 1032 804 q 1114 510 1114 615 q 1073 307 1114 401 q 959 141 1032 213 q 792 29 886 69 q 590 -11 697 -11 q 388 29 482 -11 q 222 141 293 69 q 110 307 150 213 q 69 510 69 401 m 278 510 q 302 383 278 442 q 370 278 326 324 q 472 208 414 233 q 597 183 529 183 q 719 208 663 183 q 817 278 775 233 q 882 383 858 324 q 906 510 906 442 q 881 639 906 579 q 815 744 857 699 q 715 814 772 789 q 592 839 658 839 q 468 814 525 839 q 368 744 411 789 q 301 639 325 699 q 278 510 278 579 z "},"\u1ed0":{"ha":1183,"x_min":69,"x_max":1114,"o":"m 69 510 q 110 710 69 615 q 222 877 150 804 q 388 992 293 950 q 590 1033 482 1033 q 792 992 697 1033 q 959 877 886 950 q 1073 710 1032 804 q 1114 510 1114 615 q 1073 307 1114 401 q 959 141 1032 213 q 792 29 886 69 q 590 -11 697 -11 q 388 29 482 -11 q 222 141 293 69 q 110 307 150 213 q 69 510 69 401 m 278 510 q 302 383 278 442 q 370 278 326 324 q 472 208 414 233 q 597 183 529 183 q 719 208 663 183 q 817 278 775 233 q 882 383 858 324 q 906 510 906 442 q 881 639 906 579 q 815 744 857 699 q 715 814 772 789 q 592 839 658 839 q 468 814 525 839 q 368 744 411 789 q 301 639 325 699 q 278 510 278 579 z "},"\u1ed8":{"ha":1183,"x_min":69,"x_max":1114,"o":"m 69 510 q 110 710 69 615 q 222 877 150 804 q 388 992 293 950 q 590 1033 482 1033 q 792 992 697 1033 q 959 877 886 950 q 1073 710 1032 804 q 1114 510 1114 615 q 1073 307 1114 401 q 959 141 1032 213 q 792 29 886 69 q 590 -11 697 -11 q 388 29 482 -11 q 222 141 293 69 q 110 307 150 213 q 69 510 69 401 m 278 510 q 302 383 278 442 q 370 278 326 324 q 472 208 414 233 q 597 183 529 183 q 719 208 663 183 q 817 278 775 233 q 882 383 858 324 q 906 510 906 442 q 881 639 906 579 q 815 744 857 699 q 715 814 772 789 q 592 839 658 839 q 468 814 525 839 q 368 744 411 789 q 301 639 325 699 q 278 510 278 579 z "},"\u1ed2":{"ha":1183,"x_min":69,"x_max":1114,"o":"m 69 510 q 110 710 69 615 q 222 877 150 804 q 388 992 293 950 q 590 1033 482 1033 q 792 992 697 1033 q 959 877 886 950 q 1073 710 1032 804 q 1114 510 1114 615 q 1073 307 1114 401 q 959 141 1032 213 q 792 29 886 69 q 590 -11 697 -11 q 388 29 482 -11 q 222 141 293 69 q 110 307 150 213 q 69 510 69 401 m 278 510 q 302 383 278 442 q 370 278 326 324 q 472 208 414 233 q 597 183 529 183 q 719 208 663 183 q 817 278 775 233 q 882 383 858 324 q 906 510 906 442 q 881 639 906 579 q 815 744 857 699 q 715 814 772 789 q 592 839 658 839 q 468 814 525 839 q 368 744 411 789 q 301 639 325 699 q 278 510 278 579 z "},"\u1ed4":{"ha":1183,"x_min":69,"x_max":1114,"o":"m 69 510 q 110 710 69 615 q 222 877 150 804 q 388 992 293 950 q 590 1033 482 1033 q 792 992 697 1033 q 959 877 886 950 q 1073 710 1032 804 q 1114 510 1114 615 q 1073 307 1114 401 q 959 141 1032 213 q 792 29 886 69 q 590 -11 697 -11 q 388 29 482 -11 q 222 141 293 69 q 110 307 150 213 q 69 510 69 401 m 278 510 q 302 383 278 442 q 370 278 326 324 q 472 208 414 233 q 597 183 529 183 q 719 208 663 183 q 817 278 775 233 q 882 383 858 324 q 906 510 906 442 q 881 639 906 579 q 815 744 857 699 q 715 814 772 789 q 592 839 658 839 q 468 814 525 839 q 368 744 411 789 q 301 639 325 699 q 278 510 278 579 z "},"\u1ed6":{"ha":1183,"x_min":69,"x_max":1114,"o":"m 69 510 q 110 710 69 615 q 222 877 150 804 q 388 992 293 950 q 590 1033 482 1033 q 792 992 697 1033 q 959 877 886 950 q 1073 710 1032 804 q 1114 510 1114 615 q 1073 307 1114 401 q 959 141 1032 213 q 792 29 886 69 q 590 -11 697 -11 q 388 29 482 -11 q 222 141 293 69 q 110 307 150 213 q 69 510 69 401 m 278 510 q 302 383 278 442 q 370 278 326 324 q 472 208 414 233 q 597 183 529 183 q 719 208 663 183 q 817 278 775 233 q 882 383 858 324 q 906 510 906 442 q 881 639 906 579 q 815 744 857 699 q 715 814 772 789 q 592 839 658 839 q 468 814 525 839 q 368 744 411 789 q 301 639 325 699 q 278 510 278 579 z "},"\u020c":{"ha":1183,"x_min":69,"x_max":1114,"o":"m 69 510 q 110 710 69 615 q 222 877 150 804 q 388 992 293 950 q 590 1033 482 1033 q 792 992 697 1033 q 959 877 886 950 q 1073 710 1032 804 q 1114 510 1114 615 q 1073 307 1114 401 q 959 141 1032 213 q 792 29 886 69 q 590 -11 697 -11 q 388 29 482 -11 q 222 141 293 69 q 110 307 150 213 q 69 510 69 401 m 278 510 q 302 383 278 442 q 370 278 326 324 q 472 208 414 233 q 597 183 529 183 q 719 208 663 183 q 817 278 775 233 q 882 383 858 324 q 906 510 906 442 q 881 639 906 579 q 815 744 857 699 q 715 814 772 789 q 592 839 658 839 q 468 814 525 839 q 368 744 411 789 q 301 639 325 699 q 278 510 278 579 z "},"\xd6":{"ha":1183,"x_min":69,"x_max":1114,"o":"m 69 510 q 110 710 69 615 q 222 877 150 804 q 388 992 293 950 q 590 1033 482 1033 q 792 992 697 1033 q 959 877 886 950 q 1073 710 1032 804 q 1114 510 1114 615 q 1073 307 1114 401 q 959 141 1032 213 q 792 29 886 69 q 590 -11 697 -11 q 388 29 482 -11 q 222 141 293 69 q 110 307 150 213 q 69 510 69 401 m 278 510 q 302 383 278 442 q 370 278 326 324 q 472 208 414 233 q 597 183 529 183 q 719 208 663 183 q 817 278 775 233 q 882 383 858 324 q 906 510 906 442 q 881 639 906 579 q 815 744 857 699 q 715 814 772 789 q 592 839 658 839 q 468 814 525 839 q 368 744 411 789 q 301 639 325 699 q 278 510 278 579 z "},"\u022a":{"ha":1183,"x_min":69,"x_max":1114,"o":"m 69 510 q 110 710 69 615 q 222 877 150 804 q 388 992 293 950 q 590 1033 482 1033 q 792 992 697 1033 q 959 877 886 950 q 1073 710 1032 804 q 1114 510 1114 615 q 1073 307 1114 401 q 959 141 1032 213 q 792 29 886 69 q 590 -11 697 -11 q 388 29 482 -11 q 222 141 293 69 q 110 307 150 213 q 69 510 69 401 m 278 510 q 302 383 278 442 q 370 278 326 324 q 472 208 414 233 q 597 183 529 183 q 719 208 663 183 q 817 278 775 233 q 882 383 858 324 q 906 510 906 442 q 881 639 906 579 q 815 744 857 699 q 715 814 772 789 q 592 839 658 839 q 468 814 525 839 q 368 744 411 789 q 301 639 325 699 q 278 510 278 579 z "},"\u0230":{"ha":1183,"x_min":69,"x_max":1114,"o":"m 69 510 q 110 710 69 615 q 222 877 150 804 q 388 992 293 950 q 590 1033 482 1033 q 792 992 697 1033 q 959 877 886 950 q 1073 710 1032 804 q 1114 510 1114 615 q 1073 307 1114 401 q 959 141 1032 213 q 792 29 886 69 q 590 -11 697 -11 q 388 29 482 -11 q 222 141 293 69 q 110 307 150 213 q 69 510 69 401 m 278 510 q 302 383 278 442 q 370 278 326 324 q 472 208 414 233 q 597 183 529 183 q 719 208 663 183 q 817 278 775 233 q 882 383 858 324 q 906 510 906 442 q 881 639 906 579 q 815 744 857 699 q 715 814 772 789 q 592 839 658 839 q 468 814 525 839 q 368 744 411 789 q 301 639 325 699 q 278 510 278 579 z "},"\u1ecc":{"ha":1183,"x_min":69,"x_max":1114,"o":"m 69 510 q 110 710 69 615 q 222 877 150 804 q 388 992 293 950 q 590 1033 482 1033 q 792 992 697 1033 q 959 877 886 950 q 1073 710 1032 804 q 1114 510 1114 615 q 1073 307 1114 401 q 959 141 1032 213 q 792 29 886 69 q 590 -11 697 -11 q 388 29 482 -11 q 222 141 293 69 q 110 307 150 213 q 69 510 69 401 m 278 510 q 302 383 278 442 q 370 278 326 324 q 472 208 414 233 q 597 183 529 183 q 719 208 663 183 q 817 278 775 233 q 882 383 858 324 q 906 510 906 442 q 881 639 906 579 q 815 744 857 699 q 715 814 772 789 q 592 839 658 839 q 468 814 525 839 q 368 744 411 789 q 301 639 325 699 q 278 510 278 579 z "},"\xd2":{"ha":1183,"x_min":69,"x_max":1114,"o":"m 69 510 q 110 710 69 615 q 222 877 150 804 q 388 992 293 950 q 590 1033 482 1033 q 792 992 697 1033 q 959 877 886 950 q 1073 710 1032 804 q 1114 510 1114 615 q 1073 307 1114 401 q 959 141 1032 213 q 792 29 886 69 q 590 -11 697 -11 q 388 29 482 -11 q 222 141 293 69 q 110 307 150 213 q 69 510 69 401 m 278 510 q 302 383 278 442 q 370 278 326 324 q 472 208 414 233 q 597 183 529 183 q 719 208 663 183 q 817 278 775 233 q 882 383 858 324 q 906 510 906 442 q 881 639 906 579 q 815 744 857 699 q 715 814 772 789 q 592 839 658 839 q 468 814 525 839 q 368 744 411 789 q 301 639 325 699 q 278 510 278 579 z "},"\u1ece":{"ha":1183,"x_min":69,"x_max":1114,"o":"m 69 510 q 110 710 69 615 q 222 877 150 804 q 388 992 293 950 q 590 1033 482 1033 q 792 992 697 1033 q 959 877 886 950 q 1073 710 1032 804 q 1114 510 1114 615 q 1073 307 1114 401 q 959 141 1032 213 q 792 29 886 69 q 590 -11 697 -11 q 388 29 482 -11 q 222 141 293 69 q 110 307 150 213 q 69 510 69 401 m 278 510 q 302 383 278 442 q 370 278 326 324 q 472 208 414 233 q 597 183 529 183 q 719 208 663 183 q 817 278 775 233 q 882 383 858 324 q 906 510 906 442 q 881 639 906 579 q 815 744 857 699 q 715 814 772 789 q 592 839 658 839 q 468 814 525 839 q 368 744 411 789 q 301 639 325 699 q 278 510 278 579 z "},"\u01a0":{"ha":1183,"x_min":69,"x_max":1114,"o":"m 69 510 q 110 710 69 615 q 222 877 150 804 q 388 992 293 950 q 590 1033 482 1033 q 792 992 697 1033 q 959 877 886 950 q 1073 710 1032 804 q 1114 510 1114 615 q 1073 307 1114 401 q 959 141 1032 213 q 792 29 886 69 q 590 -11 697 -11 q 388 29 482 -11 q 222 141 293 69 q 110 307 150 213 q 69 510 69 401 m 278 510 q 302 383 278 442 q 370 278 326 324 q 472 208 414 233 q 597 183 529 183 q 719 208 663 183 q 817 278 775 233 q 882 383 858 324 q 906 510 906 442 q 881 639 906 579 q 815 744 857 699 q 715 814 772 789 q 592 839 658 839 q 468 814 525 839 q 368 744 411 789 q 301 639 325 699 q 278 510 278 579 m 690 1024 q 756 1045 739 1024 q 786 1126 774 1067 l 929 1126 q 883 989 914 1036 q 803 925 851 942 q 690 908 756 908 l 690 1024 z "},"\u1eda":{"ha":1183,"x_min":69,"x_max":1114,"o":"m 69 510 q 110 710 69 615 q 222 877 150 804 q 388 992 293 950 q 590 1033 482 1033 q 792 992 697 1033 q 959 877 886 950 q 1073 710 1032 804 q 1114 510 1114 615 q 1073 307 1114 401 q 959 141 1032 213 q 792 29 886 69 q 590 -11 697 -11 q 388 29 482 -11 q 222 141 293 69 q 110 307 150 213 q 69 510 69 401 m 278 510 q 302 383 278 442 q 370 278 326 324 q 472 208 414 233 q 597 183 529 183 q 719 208 663 183 q 817 278 775 233 q 882 383 858 324 q 906 510 906 442 q 881 639 906 579 q 815 744 857 699 q 715 814 772 789 q 592 839 658 839 q 468 814 525 839 q 368 744 411 789 q 301 639 325 699 q 278 510 278 579 m 690 1024 q 756 1045 739 1024 q 786 1126 774 1067 l 929 1126 q 883 989 914 1036 q 803 925 851 942 q 690 908 756 908 l 690 1024 z "},"\u1ee2":{"ha":1183,"x_min":69,"x_max":1114,"o":"m 69 510 q 110 710 69 615 q 222 877 150 804 q 388 992 293 950 q 590 1033 482 1033 q 792 992 697 1033 q 959 877 886 950 q 1073 710 1032 804 q 1114 510 1114 615 q 1073 307 1114 401 q 959 141 1032 213 q 792 29 886 69 q 590 -11 697 -11 q 388 29 482 -11 q 222 141 293 69 q 110 307 150 213 q 69 510 69 401 m 278 510 q 302 383 278 442 q 370 278 326 324 q 472 208 414 233 q 597 183 529 183 q 719 208 663 183 q 817 278 775 233 q 882 383 858 324 q 906 510 906 442 q 881 639 906 579 q 815 744 857 699 q 715 814 772 789 q 592 839 658 839 q 468 814 525 839 q 368 744 411 789 q 301 639 325 699 q 278 510 278 579 m 690 1024 q 756 1045 739 1024 q 786 1126 774 1067 l 929 1126 q 883 989 914 1036 q 803 925 851 942 q 690 908 756 908 l 690 1024 z "},"\u1edc":{"ha":1183,"x_min":69,"x_max":1114,"o":"m 69 510 q 110 710 69 615 q 222 877 150 804 q 388 992 293 950 q 590 1033 482 1033 q 792 992 697 1033 q 959 877 886 950 q 1073 710 1032 804 q 1114 510 1114 615 q 1073 307 1114 401 q 959 141 1032 213 q 792 29 886 69 q 590 -11 697 -11 q 388 29 482 -11 q 222 141 293 69 q 110 307 150 213 q 69 510 69 401 m 278 510 q 302 383 278 442 q 370 278 326 324 q 472 208 414 233 q 597 183 529 183 q 719 208 663 183 q 817 278 775 233 q 882 383 858 324 q 906 510 906 442 q 881 639 906 579 q 815 744 857 699 q 715 814 772 789 q 592 839 658 839 q 468 814 525 839 q 368 744 411 789 q 301 639 325 699 q 278 510 278 579 m 690 1024 q 756 1045 739 1024 q 786 1126 774 1067 l 929 1126 q 883 989 914 1036 q 803 925 851 942 q 690 908 756 908 l 690 1024 z "},"\u1ede":{"ha":1183,"x_min":69,"x_max":1114,"o":"m 69 510 q 110 710 69 615 q 222 877 150 804 q 388 992 293 950 q 590 1033 482 1033 q 792 992 697 1033 q 959 877 886 950 q 1073 710 1032 804 q 1114 510 1114 615 q 1073 307 1114 401 q 959 141 1032 213 q 792 29 886 69 q 590 -11 697 -11 q 388 29 482 -11 q 222 141 293 69 q 110 307 150 213 q 69 510 69 401 m 278 510 q 302 383 278 442 q 370 278 326 324 q 472 208 414 233 q 597 183 529 183 q 719 208 663 183 q 817 278 775 233 q 882 383 858 324 q 906 510 906 442 q 881 639 906 579 q 815 744 857 699 q 715 814 772 789 q 592 839 658 839 q 468 814 525 839 q 368 744 411 789 q 301 639 325 699 q 278 510 278 579 m 690 1024 q 756 1045 739 1024 q 786 1126 774 1067 l 929 1126 q 883 989 914 1036 q 803 925 851 942 q 690 908 756 908 l 690 1024 z "},"\u1ee0":{"ha":1183,"x_min":69,"x_max":1114,"o":"m 69 510 q 110 710 69 615 q 222 877 150 804 q 388 992 293 950 q 590 1033 482 1033 q 792 992 697 1033 q 959 877 886 950 q 1073 710 1032 804 q 1114 510 1114 615 q 1073 307 1114 401 q 959 141 1032 213 q 792 29 886 69 q 590 -11 697 -11 q 388 29 482 -11 q 222 141 293 69 q 110 307 150 213 q 69 510 69 401 m 278 510 q 302 383 278 442 q 370 278 326 324 q 472 208 414 233 q 597 183 529 183 q 719 208 663 183 q 817 278 775 233 q 882 383 858 324 q 906 510 906 442 q 881 639 906 579 q 815 744 857 699 q 715 814 772 789 q 592 839 658 839 q 468 814 525 839 q 368 744 411 789 q 301 639 325 699 q 278 510 278 579 m 690 1024 q 756 1045 739 1024 q 786 1126 774 1067 l 929 1126 q 883 989 914 1036 q 803 925 851 942 q 690 908 756 908 l 690 1024 m 700 1129 q 621 1149 653 1129 q 563 1190 589 1169 q 533 1213 547 1203 q 501 1222 518 1222 q 473 1208 483 1222 q 460 1174 463 1194 q 460 1132 457 1153 l 363 1132 q 372 1235 356 1186 q 423 1314 388 1283 q 513 1344 458 1344 q 575 1325 547 1344 q 626 1286 603 1306 q 663 1257 646 1269 q 696 1244 679 1244 q 727 1276 722 1244 q 731 1340 732 1307 l 828 1340 q 822 1233 838 1281 q 774 1157 807 1185 q 700 1129 742 1129 z "},"\u0150":{"ha":1183,"x_min":69,"x_max":1114,"o":"m 69 510 q 110 710 69 615 q 222 877 150 804 q 388 992 293 950 q 590 1033 482 1033 q 792 992 697 1033 q 959 877 886 950 q 1073 710 1032 804 q 1114 510 1114 615 q 1073 307 1114 401 q 959 141 1032 213 q 792 29 886 69 q 590 -11 697 -11 q 388 29 482 -11 q 222 141 293 69 q 110 307 150 213 q 69 510 69 401 m 278 510 q 302 383 278 442 q 370 278 326 324 q 472 208 414 233 q 597 183 529 183 q 719 208 663 183 q 817 278 775 233 q 882 383 858 324 q 906 510 906 442 q 881 639 906 579 q 815 744 857 699 q 715 814 772 789 q 592 839 658 839 q 468 814 525 839 q 368 744 411 789 q 301 639 325 699 q 278 510 278 579 z "},"\u020e":{"ha":1183,"x_min":69,"x_max":1114,"o":"m 69 510 q 110 710 69 615 q 222 877 150 804 q 388 992 293 950 q 590 1033 482 1033 q 792 992 697 1033 q 959 877 886 950 q 1073 710 1032 804 q 1114 510 1114 615 q 1073 307 1114 401 q 959 141 1032 213 q 792 29 886 69 q 590 -11 697 -11 q 388 29 482 -11 q 222 141 293 69 q 110 307 150 213 q 69 510 69 401 m 278 510 q 302 383 278 442 q 370 278 326 324 q 472 208 414 233 q 597 183 529 183 q 719 208 663 183 q 817 278 775 233 q 882 383 858 324 q 906 510 906 442 q 881 639 906 579 q 815 744 857 699 q 715 814 772 789 q 592 839 658 839 q 468 814 525 839 q 368 744 411 789 q 301 639 325 699 q 278 510 278 579 m 583 1297 q 695 1269 649 1297 q 772 1183 742 1240 q 817 1038 801 1125 l 688 1038 q 667 1107 679 1078 q 636 1152 656 1136 q 583 1168 617 1168 q 531 1152 551 1168 q 500 1107 511 1136 q 481 1038 489 1078 l 351 1038 q 397 1185 367 1128 q 473 1270 426 1243 q 583 1297 519 1297 z "},"\u014c":{"ha":1183,"x_min":69,"x_max":1114,"o":"m 69 510 q 110 710 69 615 q 222 877 150 804 q 388 992 293 950 q 590 1033 482 1033 q 792 992 697 1033 q 959 877 886 950 q 1073 710 1032 804 q 1114 510 1114 615 q 1073 307 1114 401 q 959 141 1032 213 q 792 29 886 69 q 590 -11 697 -11 q 388 29 482 -11 q 222 141 293 69 q 110 307 150 213 q 69 510 69 401 m 278 510 q 302 383 278 442 q 370 278 326 324 q 472 208 414 233 q 597 183 529 183 q 719 208 663 183 q 817 278 775 233 q 882 383 858 324 q 906 510 906 442 q 881 639 906 579 q 815 744 857 699 q 715 814 772 789 q 592 839 658 839 q 468 814 525 839 q 368 744 411 789 q 301 639 325 699 q 278 510 278 579 z "},"\u01ea":{"ha":1183,"x_min":69,"x_max":1114,"o":"m 590 -11 q 388 29 482 -11 q 222 141 293 69 q 110 307 150 213 q 69 510 69 401 q 110 710 69 615 q 222 877 150 804 q 388 992 293 950 q 590 1033 482 1033 q 792 992 697 1033 q 959 877 886 950 q 1073 710 1032 804 q 1114 510 1114 615 q 1086 326 1114 404 q 1015 190 1058 247 q 921 89 971 132 q 844 26 882 54 q 776 -26 807 -1 q 728 -74 746 -50 q 710 -125 710 -97 q 728 -174 710 -162 q 771 -186 747 -186 q 824 -169 799 -186 q 871 -118 849 -153 l 940 -218 q 856 -293 910 -264 q 753 -322 801 -322 q 609 -280 668 -322 q 550 -157 550 -237 q 564 -96 550 -126 q 604 -40 578 -65 q 668 0 631 -15 l 851 65 q 728 9 792 29 q 590 -11 664 -11 m 597 185 q 719 210 663 185 q 817 279 775 235 q 882 383 858 324 q 906 510 906 442 q 881 635 906 576 q 815 739 857 694 q 715 808 772 783 q 592 833 658 833 q 468 808 525 833 q 368 739 411 783 q 301 635 325 694 q 278 510 278 576 q 302 384 278 443 q 370 280 326 325 q 472 210 414 235 q 597 185 529 185 z "},"\xd8":{"ha":1192,"x_min":69,"x_max":1114,"o":"m 1071 938 l 233 -32 l 106 83 l 946 1054 l 1071 938 m 69 510 q 110 710 69 615 q 222 877 150 804 q 388 992 293 950 q 590 1033 482 1033 q 792 992 697 1033 q 959 877 886 950 q 1073 710 1032 804 q 1114 510 1114 615 q 1073 307 1114 401 q 959 141 1032 213 q 792 29 886 69 q 590 -11 697 -11 q 388 29 482 -11 q 222 141 293 69 q 110 307 150 213 q 69 510 69 401 m 278 510 q 302 383 278 442 q 370 278 326 324 q 472 208 414 233 q 597 183 529 183 q 719 208 663 183 q 817 278 775 233 q 882 383 858 324 q 906 510 906 442 q 881 639 906 579 q 815 744 857 699 q 715 814 772 789 q 592 839 658 839 q 468 814 525 839 q 368 744 411 789 q 301 639 325 699 q 278 510 278 579 z "},"\u01fe":{"ha":1192,"x_min":69,"x_max":1114,"o":"m 1071 938 l 233 -32 l 106 83 l 946 1054 l 1071 938 m 69 510 q 110 710 69 615 q 222 877 150 804 q 388 992 293 950 q 590 1033 482 1033 q 792 992 697 1033 q 959 877 886 950 q 1073 710 1032 804 q 1114 510 1114 615 q 1073 307 1114 401 q 959 141 1032 213 q 792 29 886 69 q 590 -11 697 -11 q 388 29 482 -11 q 222 141 293 69 q 110 307 150 213 q 69 510 69 401 m 278 510 q 302 383 278 442 q 370 278 326 324 q 472 208 414 233 q 597 183 529 183 q 719 208 663 183 q 817 278 775 233 q 882 383 858 324 q 906 510 906 442 q 881 639 906 579 q 815 744 857 699 q 715 814 772 789 q 592 839 658 839 q 468 814 525 839 q 368 744 411 789 q 301 639 325 699 q 278 510 278 579 z "},"\xd5":{"ha":1183,"x_min":69,"x_max":1114,"o":"m 69 510 q 110 710 69 615 q 222 877 150 804 q 388 992 293 950 q 590 1033 482 1033 q 792 992 697 1033 q 959 877 886 950 q 1073 710 1032 804 q 1114 510 1114 615 q 1073 307 1114 401 q 959 141 1032 213 q 792 29 886 69 q 590 -11 697 -11 q 388 29 482 -11 q 222 141 293 69 q 110 307 150 213 q 69 510 69 401 m 278 510 q 302 383 278 442 q 370 278 326 324 q 472 208 414 233 q 597 183 529 183 q 719 208 663 183 q 817 278 775 233 q 882 383 858 324 q 906 510 906 442 q 881 639 906 579 q 815 744 857 699 q 715 814 772 789 q 592 839 658 839 q 468 814 525 839 q 368 744 411 789 q 301 639 325 699 q 278 510 278 579 m 700 1129 q 621 1149 653 1129 q 563 1190 589 1169 q 533 1213 547 1203 q 501 1222 518 1222 q 473 1208 483 1222 q 460 1174 463 1194 q 460 1132 457 1153 l 363 1132 q 372 1235 356 1186 q 423 1314 388 1283 q 513 1344 458 1344 q 575 1325 547 1344 q 626 1286 603 1306 q 663 1257 646 1269 q 696 1244 679 1244 q 727 1276 722 1244 q 731 1340 732 1307 l 828 1340 q 822 1233 838 1281 q 774 1157 807 1185 q 700 1129 742 1129 z "},"\u022c":{"ha":1183,"x_min":69,"x_max":1114,"o":"m 69 510 q 110 710 69 615 q 222 877 150 804 q 388 992 293 950 q 590 1033 482 1033 q 792 992 697 1033 q 959 877 886 950 q 1073 710 1032 804 q 1114 510 1114 615 q 1073 307 1114 401 q 959 141 1032 213 q 792 29 886 69 q 590 -11 697 -11 q 388 29 482 -11 q 222 141 293 69 q 110 307 150 213 q 69 510 69 401 m 278 510 q 302 383 278 442 q 370 278 326 324 q 472 208 414 233 q 597 183 529 183 q 719 208 663 183 q 817 278 775 233 q 882 383 858 324 q 906 510 906 442 q 881 639 906 579 q 815 744 857 699 q 715 814 772 789 q 592 839 658 839 q 468 814 525 839 q 368 744 411 789 q 301 639 325 699 q 278 510 278 579 m 700 1129 q 621 1149 653 1129 q 563 1190 589 1169 q 533 1213 547 1203 q 501 1222 518 1222 q 473 1208 483 1222 q 460 1174 463 1194 q 460 1132 457 1153 l 363 1132 q 372 1235 356 1186 q 423 1314 388 1283 q 513 1344 458 1344 q 575 1325 547 1344 q 626 1286 603 1306 q 663 1257 646 1269 q 696 1244 679 1244 q 727 1276 722 1244 q 731 1340 732 1307 l 828 1340 q 822 1233 838 1281 q 774 1157 807 1185 q 700 1129 742 1129 z "},"\u0152":{"ha":1418,"x_min":82,"x_max":1338,"o":"m 672 825 q 639 831 656 829 q 604 833 622 833 q 482 808 539 833 q 382 739 425 783 q 315 635 339 694 q 290 510 290 576 q 315 384 290 443 q 383 280 339 325 q 485 210 428 235 q 610 185 543 185 q 679 193 646 185 l 731 6 q 668 -7 700 -3 q 603 -11 636 -11 q 400 29 494 -11 q 234 141 306 69 q 122 307 163 213 q 82 510 82 401 q 122 710 82 615 q 234 877 163 804 q 400 992 306 950 q 603 1033 494 1033 q 671 1028 638 1033 q 735 1015 704 1024 l 672 825 m 663 1022 l 1318 1022 l 1318 835 l 871 835 l 871 607 l 1261 607 l 1261 415 l 871 415 l 871 193 l 1338 193 l 1338 0 l 663 0 l 663 1022 z "},"P":{"ha":883,"x_min":132,"x_max":835,"o":"m 442 1022 q 656 980 568 1022 q 789 860 743 938 q 835 678 835 783 q 816 552 835 615 q 756 438 797 489 q 647 355 715 386 q 478 324 578 324 l 333 324 l 333 0 l 132 0 l 132 1022 l 442 1022 m 476 519 q 553 535 522 519 q 601 576 583 551 q 626 626 618 600 q 633 672 633 653 q 628 713 633 688 q 608 765 624 739 q 562 810 593 792 q 478 828 531 828 l 333 828 l 333 519 l 476 519 z "},"\xde":{"ha":883,"x_min":132,"x_max":835,"o":"m 483 856 q 645 831 578 856 q 754 762 713 807 q 815 653 796 717 q 835 511 835 590 q 818 385 835 449 q 763 271 801 322 q 658 188 725 219 q 492 157 592 157 l 340 157 l 340 0 l 132 0 l 132 1017 l 340 1017 l 340 856 l 483 856 m 469 353 q 539 365 510 353 q 588 399 568 378 q 617 448 607 421 q 626 506 626 475 q 614 576 626 540 q 567 636 601 611 q 471 661 533 661 l 340 661 l 340 353 l 469 353 z "},"Q":{"ha":1240,"x_min":69,"x_max":1171,"o":"m 854 197 l 1171 197 l 1171 0 l 590 0 l 854 197 m 69 510 q 110 710 69 615 q 222 877 150 804 q 388 992 293 950 q 590 1033 482 1033 q 792 992 697 1033 q 959 877 886 950 q 1073 710 1032 804 q 1114 510 1114 615 q 1073 307 1114 401 q 959 141 1032 213 q 792 29 886 69 q 590 -11 697 -11 q 388 29 482 -11 q 222 141 293 69 q 110 307 150 213 q 69 510 69 401 m 278 510 q 302 384 278 443 q 370 280 326 325 q 472 210 414 235 q 597 185 529 185 q 719 210 663 185 q 817 279 775 235 q 882 383 858 324 q 906 510 906 442 q 881 635 906 576 q 815 739 857 694 q 715 808 772 783 q 592 833 658 833 q 468 808 525 833 q 368 739 411 783 q 301 635 325 694 q 278 510 278 576 z "},"R":{"ha":953,"x_min":132,"x_max":918,"o":"m 442 1022 q 613 998 538 1022 q 738 928 688 974 q 815 820 789 883 q 842 678 842 757 q 823 553 842 615 q 762 439 804 490 q 650 356 719 388 q 478 325 581 325 l 333 325 l 333 0 l 132 0 l 132 1022 l 442 1022 m 476 519 q 553 535 522 519 q 601 574 583 550 q 626 623 618 597 q 633 671 633 649 q 628 713 633 688 q 608 765 624 739 q 562 810 593 792 q 478 828 531 828 l 333 828 l 333 519 l 476 519 m 665 394 l 918 0 l 683 0 l 425 389 l 665 394 z "},"\u0154":{"ha":953,"x_min":132,"x_max":918,"o":"m 442 1022 q 613 998 538 1022 q 738 928 688 974 q 815 820 789 883 q 842 678 842 757 q 823 553 842 615 q 762 439 804 490 q 650 356 719 388 q 478 325 581 325 l 333 325 l 333 0 l 132 0 l 132 1022 l 442 1022 m 476 519 q 553 535 522 519 q 601 574 583 550 q 626 623 618 597 q 633 671 633 649 q 628 713 633 688 q 608 765 624 739 q 562 810 593 792 q 478 828 531 828 l 333 828 l 333 519 l 476 519 m 665 394 l 918 0 l 683 0 l 425 389 l 665 394 z "},"\u0158":{"ha":953,"x_min":132,"x_max":918,"o":"m 442 1022 q 613 998 538 1022 q 738 928 688 974 q 815 820 789 883 q 842 678 842 757 q 823 553 842 615 q 762 439 804 490 q 650 356 719 388 q 478 325 581 325 l 333 325 l 333 0 l 132 0 l 132 1022 l 442 1022 m 476 519 q 553 535 522 519 q 601 574 583 550 q 626 623 618 597 q 633 671 633 649 q 628 713 633 688 q 608 765 624 739 q 562 810 593 792 q 478 828 531 828 l 333 828 l 333 519 l 476 519 m 665 394 l 918 0 l 683 0 l 425 389 l 665 394 z "},"\u0156":{"ha":953,"x_min":132,"x_max":918,"o":"m 442 1022 q 613 998 538 1022 q 738 928 688 974 q 815 820 789 883 q 842 678 842 757 q 823 553 842 615 q 762 439 804 490 q 650 356 719 388 q 478 325 581 325 l 333 325 l 333 0 l 132 0 l 132 1022 l 442 1022 m 476 519 q 553 535 522 519 q 601 574 583 550 q 626 623 618 597 q 633 671 633 649 q 628 713 633 688 q 608 765 624 739 q 562 810 593 792 q 478 828 531 828 l 333 828 l 333 519 l 476 519 m 665 394 l 918 0 l 683 0 l 425 389 l 665 394 z "},"\u0210":{"ha":953,"x_min":118,"x_max":918,"o":"m 442 1022 q 613 998 538 1022 q 738 928 688 974 q 815 820 789 883 q 842 678 842 757 q 823 553 842 615 q 762 439 804 490 q 650 356 719 388 q 478 325 581 325 l 333 325 l 333 0 l 132 0 l 132 1022 l 442 1022 m 476 519 q 553 535 522 519 q 601 574 583 550 q 626 623 618 597 q 633 671 633 649 q 628 713 633 688 q 608 765 624 739 q 562 810 593 792 q 478 828 531 828 l 333 828 l 333 519 l 476 519 m 665 394 l 918 0 l 683 0 l 425 389 l 665 394 z "},"\u0212":{"ha":953,"x_min":132,"x_max":918,"o":"m 442 1022 q 613 998 538 1022 q 738 928 688 974 q 815 820 789 883 q 842 678 842 757 q 823 553 842 615 q 762 439 804 490 q 650 356 719 388 q 478 325 581 325 l 333 325 l 333 0 l 132 0 l 132 1022 l 442 1022 m 476 519 q 553 535 522 519 q 601 574 583 550 q 626 623 618 597 q 633 671 633 649 q 628 713 633 688 q 608 765 624 739 q 562 810 593 792 q 478 828 531 828 l 333 828 l 333 519 l 476 519 m 665 394 l 918 0 l 683 0 l 425 389 l 665 394 m 438 1311 q 549 1283 503 1311 q 626 1197 596 1254 q 671 1051 656 1139 l 542 1051 q 522 1121 533 1092 q 490 1166 510 1150 q 438 1182 471 1182 q 385 1166 406 1182 q 354 1121 365 1150 q 335 1051 343 1092 l 206 1051 q 251 1199 221 1142 q 327 1284 281 1257 q 438 1311 374 1311 z "},"S":{"ha":810,"x_min":44,"x_max":754,"o":"m 678 775 q 559 828 619 807 q 446 849 499 849 q 343 822 381 849 q 306 743 306 796 q 334 678 306 707 q 408 628 363 650 q 501 588 453 606 q 590 548 546 571 q 668 491 633 525 q 724 406 703 457 q 744 282 744 356 q 704 138 744 204 q 586 30 664 71 q 394 -11 508 -11 q 276 1 336 -11 q 157 37 215 13 q 44 99 99 61 l 133 256 q 212 209 169 229 q 297 178 254 189 q 376 167 340 167 q 449 177 413 167 q 510 213 486 188 q 535 282 535 238 q 515 338 535 313 q 460 383 494 363 q 386 419 426 404 q 289 461 339 438 q 195 519 239 485 q 124 603 151 553 q 97 728 97 654 q 137 882 97 817 q 249 985 176 947 q 415 1028 321 1024 q 616 999 539 1028 q 754 929 693 969 l 678 775 z "},"\u015a":{"ha":810,"x_min":44,"x_max":754,"o":"m 678 775 q 559 828 619 807 q 446 849 499 849 q 343 822 381 849 q 306 743 306 796 q 334 678 306 707 q 408 628 363 650 q 501 588 453 606 q 590 548 546 571 q 668 491 633 525 q 724 406 703 457 q 744 282 744 356 q 704 138 744 204 q 586 30 664 71 q 394 -11 508 -11 q 276 1 336 -11 q 157 37 215 13 q 44 99 99 61 l 133 256 q 212 209 169 229 q 297 178 254 189 q 376 167 340 167 q 449 177 413 167 q 510 213 486 188 q 535 282 535 238 q 515 338 535 313 q 460 383 494 363 q 386 419 426 404 q 289 461 339 438 q 195 519 239 485 q 124 603 151 553 q 97 728 97 654 q 137 882 97 817 q 249 985 176 947 q 415 1028 321 1024 q 616 999 539 1028 q 754 929 693 969 l 678 775 z "},"\u0160":{"ha":810,"x_min":44,"x_max":754,"o":"m 678 775 q 559 828 619 807 q 446 849 499 849 q 343 822 381 849 q 306 743 306 796 q 334 678 306 707 q 408 628 363 650 q 501 588 453 606 q 590 548 546 571 q 668 491 633 525 q 724 406 703 457 q 744 282 744 356 q 704 138 744 204 q 586 30 664 71 q 394 -11 508 -11 q 276 1 336 -11 q 157 37 215 13 q 44 99 99 61 l 133 256 q 212 209 169 229 q 297 178 254 189 q 376 167 340 167 q 449 177 413 167 q 510 213 486 188 q 535 282 535 238 q 515 338 535 313 q 460 383 494 363 q 386 419 426 404 q 289 461 339 438 q 195 519 239 485 q 124 603 151 553 q 97 728 97 654 q 137 882 97 817 q 249 985 176 947 q 415 1028 321 1024 q 616 999 539 1028 q 754 929 693 969 l 678 775 z "},"\u015e":{"ha":810,"x_min":44,"x_max":754,"o":"m 678 775 q 559 828 619 807 q 446 849 499 849 q 343 822 381 849 q 306 743 306 796 q 334 678 306 707 q 408 628 363 650 q 501 588 453 606 q 590 548 546 571 q 668 491 633 525 q 724 406 703 457 q 744 282 744 356 q 704 138 744 204 q 586 30 664 71 q 394 -11 508 -11 q 276 1 336 -11 q 157 37 215 13 q 44 99 99 61 l 133 256 q 212 209 169 229 q 297 178 254 189 q 376 167 340 167 q 449 177 413 167 q 510 213 486 188 q 535 282 535 238 q 515 338 535 313 q 460 383 494 363 q 386 419 426 404 q 289 461 339 438 q 195 519 239 485 q 124 603 151 553 q 97 728 97 654 q 137 882 97 817 q 249 985 176 947 q 415 1028 321 1024 q 616 999 539 1028 q 754 929 693 969 l 678 775 z "},"\u015c":{"ha":810,"x_min":44,"x_max":754,"o":"m 678 775 q 559 828 619 807 q 446 849 499 849 q 343 822 381 849 q 306 743 306 796 q 334 678 306 707 q 408 628 363 650 q 501 588 453 606 q 590 548 546 571 q 668 491 633 525 q 724 406 703 457 q 744 282 744 356 q 704 138 744 204 q 586 30 664 71 q 394 -11 508 -11 q 276 1 336 -11 q 157 37 215 13 q 44 99 99 61 l 133 256 q 212 209 169 229 q 297 178 254 189 q 376 167 340 167 q 449 177 413 167 q 510 213 486 188 q 535 282 535 238 q 515 338 535 313 q 460 383 494 363 q 386 419 426 404 q 289 461 339 438 q 195 519 239 485 q 124 603 151 553 q 97 728 97 654 q 137 882 97 817 q 249 985 176 947 q 415 1028 321 1024 q 616 999 539 1028 q 754 929 693 969 l 678 775 z "},"\u0218":{"ha":810,"x_min":44,"x_max":754,"o":"m 678 775 q 559 828 619 807 q 446 849 499 849 q 343 822 381 849 q 306 743 306 796 q 334 678 306 707 q 408 628 363 650 q 501 588 453 606 q 590 548 546 571 q 668 491 633 525 q 724 406 703 457 q 744 282 744 356 q 704 138 744 204 q 586 30 664 71 q 394 -11 508 -11 q 276 1 336 -11 q 157 37 215 13 q 44 99 99 61 l 133 256 q 212 209 169 229 q 297 178 254 189 q 376 167 340 167 q 449 177 413 167 q 510 213 486 188 q 535 282 535 238 q 515 338 535 313 q 460 383 494 363 q 386 419 426 404 q 289 461 339 438 q 195 519 239 485 q 124 603 151 553 q 97 728 97 654 q 137 882 97 817 q 249 985 176 947 q 415 1028 321 1024 q 616 999 539 1028 q 754 929 693 969 l 678 775 z "},"\u1e9e":{"ha":1165,"x_min":132,"x_max":1110,"o":"m 788 -11 q 609 15 700 -11 q 438 99 518 42 l 526 256 q 647 192 579 217 q 769 167 715 167 q 829 177 799 167 q 880 213 860 188 q 900 282 900 238 q 881 336 900 313 q 832 380 863 360 q 765 419 801 400 q 666 483 717 446 q 581 575 615 521 q 546 703 546 629 q 576 838 546 782 q 663 926 607 894 q 793 963 718 957 q 847 954 825 963 q 885 929 869 946 l 822 829 q 707 908 771 883 q 574 932 643 932 q 447 895 500 932 q 364 781 393 858 q 335 579 335 703 l 335 0 l 132 0 l 132 585 q 182 849 132 735 q 326 1028 232 964 q 553 1092 421 1092 q 703 1072 626 1092 q 844 1020 781 1051 q 940 954 908 989 l 888 806 q 863 819 878 813 q 825 826 847 826 q 782 815 800 826 q 755 783 764 803 q 746 736 746 763 q 766 674 746 700 q 817 628 786 649 q 881 588 849 608 q 960 540 919 565 q 1034 480 1000 514 q 1089 398 1068 446 q 1110 282 1110 350 q 1073 138 1110 204 q 965 30 1036 71 q 788 -11 893 -11 z "},"\u018f":{"ha":1090,"x_min":56,"x_max":1021,"o":"m 522 1032 q 731 994 639 1032 q 888 890 824 957 q 987 732 953 822 q 1021 535 1021 642 q 981 322 1021 419 q 872 153 942 225 q 711 40 801 81 q 518 0 621 0 q 299 55 394 0 q 141 213 203 110 q 56 461 79 315 l 844 717 l 888 569 l 229 349 l 292 408 q 374 245 315 311 q 533 179 433 179 q 637 205 588 179 q 724 277 686 231 q 785 387 763 324 q 807 524 807 450 q 782 653 807 596 q 715 751 757 711 q 622 813 672 792 q 518 835 571 835 q 422 819 472 835 q 328 778 371 804 q 258 718 285 751 l 158 882 q 262 956 197 922 q 397 1011 326 990 q 522 1032 467 1032 z "},"T":{"ha":814,"x_min":63,"x_max":751,"o":"m 63 1022 l 751 1022 l 751 828 l 503 828 l 503 0 l 301 0 l 301 828 l 63 828 l 63 1022 z "},"\u0166":{"ha":814,"x_min":63,"x_max":751,"o":"m 63 1022 l 751 1022 l 751 828 l 503 828 l 503 0 l 301 0 l 301 828 l 63 828 l 63 1022 m 182 596 l 619 596 l 619 415 l 182 415 l 182 596 z "},"\u0164":{"ha":814,"x_min":63,"x_max":751,"o":"m 63 1022 l 751 1022 l 751 828 l 503 828 l 503 0 l 301 0 l 301 828 l 63 828 l 63 1022 z "},"\u0162":{"ha":814,"x_min":63,"x_max":751,"o":"m 63 1022 l 751 1022 l 751 828 l 503 828 l 503 0 l 301 0 l 301 828 l 63 828 l 63 1022 z "},"\u021a":{"ha":814,"x_min":63,"x_max":751,"o":"m 63 1022 l 751 1022 l 751 828 l 503 828 l 503 0 l 301 0 l 301 828 l 63 828 l 63 1022 z "},"U":{"ha":1050,"x_min":111,"x_max":939,"o":"m 313 378 q 342 285 313 329 q 419 213 371 240 q 524 185 467 185 q 635 213 586 185 q 712 285 683 240 q 740 378 740 329 l 740 1022 l 939 1022 l 939 374 q 883 174 939 261 q 733 38 828 88 q 524 -11 639 -11 l 524 -11 q 316 38 410 -11 q 167 174 222 88 q 111 374 111 261 l 111 1022 l 313 1022 l 313 378 z "},"\xda":{"ha":1050,"x_min":111,"x_max":939,"o":"m 313 378 q 342 285 313 329 q 419 213 371 240 q 524 185 467 185 q 635 213 586 185 q 712 285 683 240 q 740 378 740 329 l 740 1022 l 939 1022 l 939 374 q 883 174 939 261 q 733 38 828 88 q 524 -11 639 -11 l 524 -11 q 316 38 410 -11 q 167 174 222 88 q 111 374 111 261 l 111 1022 l 313 1022 l 313 378 z "},"\u016c":{"ha":1050,"x_min":111,"x_max":939,"o":"m 313 378 q 342 285 313 329 q 419 213 371 240 q 524 185 467 185 q 635 213 586 185 q 712 285 683 240 q 740 378 740 329 l 740 1022 l 939 1022 l 939 374 q 883 174 939 261 q 733 38 828 88 q 524 -11 639 -11 l 524 -11 q 316 38 410 -11 q 167 174 222 88 q 111 374 111 261 l 111 1022 l 313 1022 l 313 378 z "},"\u01d3":{"ha":1050,"x_min":111,"x_max":939,"o":"m 313 378 q 342 285 313 329 q 419 213 371 240 q 524 185 467 185 q 635 213 586 185 q 712 285 683 240 q 740 378 740 329 l 740 1022 l 939 1022 l 939 374 q 883 174 939 261 q 733 38 828 88 q 524 -11 639 -11 l 524 -11 q 316 38 410 -11 q 167 174 222 88 q 111 374 111 261 l 111 1022 l 313 1022 l 313 378 z "},"\xdb":{"ha":1050,"x_min":111,"x_max":939,"o":"m 313 378 q 342 285 313 329 q 419 213 371 240 q 524 185 467 185 q 635 213 586 185 q 712 285 683 240 q 740 378 740 329 l 740 1022 l 939 1022 l 939 374 q 883 174 939 261 q 733 38 828 88 q 524 -11 639 -11 l 524 -11 q 316 38 410 -11 q 167 174 222 88 q 111 374 111 261 l 111 1022 l 313 1022 l 313 378 z "},"\u0214":{"ha":1050,"x_min":111,"x_max":939,"o":"m 313 378 q 342 285 313 329 q 419 213 371 240 q 524 185 467 185 q 635 213 586 185 q 712 285 683 240 q 740 378 740 329 l 740 1022 l 939 1022 l 939 374 q 883 174 939 261 q 733 38 828 88 q 524 -11 639 -11 l 524 -11 q 316 38 410 -11 q 167 174 222 88 q 111 374 111 261 l 111 1022 l 313 1022 l 313 378 z "},"\xdc":{"ha":1050,"x_min":111,"x_max":939,"o":"m 313 378 q 342 285 313 329 q 419 213 371 240 q 524 185 467 185 q 635 213 586 185 q 712 285 683 240 q 740 378 740 329 l 740 1022 l 939 1022 l 939 374 q 883 174 939 261 q 733 38 828 88 q 524 -11 639 -11 l 524 -11 q 316 38 410 -11 q 167 174 222 88 q 111 374 111 261 l 111 1022 l 313 1022 l 313 378 z "},"\u1ee4":{"ha":1050,"x_min":111,"x_max":939,"o":"m 313 378 q 342 285 313 329 q 419 213 371 240 q 524 185 467 185 q 635 213 586 185 q 712 285 683 240 q 740 378 740 329 l 740 1022 l 939 1022 l 939 374 q 883 174 939 261 q 733 38 828 88 q 524 -11 639 -11 l 524 -11 q 316 38 410 -11 q 167 174 222 88 q 111 374 111 261 l 111 1022 l 313 1022 l 313 378 z "},"\xd9":{"ha":1050,"x_min":111,"x_max":939,"o":"m 313 378 q 342 285 313 329 q 419 213 371 240 q 524 185 467 185 q 635 213 586 185 q 712 285 683 240 q 740 378 740 329 l 740 1022 l 939 1022 l 939 374 q 883 174 939 261 q 733 38 828 88 q 524 -11 639 -11 l 524 -11 q 316 38 410 -11 q 167 174 222 88 q 111 374 111 261 l 111 1022 l 313 1022 l 313 378 z "},"\u1ee6":{"ha":1050,"x_min":111,"x_max":939,"o":"m 313 378 q 342 285 313 329 q 419 213 371 240 q 524 185 467 185 q 635 213 586 185 q 712 285 683 240 q 740 378 740 329 l 740 1022 l 939 1022 l 939 374 q 883 174 939 261 q 733 38 828 88 q 524 -11 639 -11 l 524 -11 q 316 38 410 -11 q 167 174 222 88 q 111 374 111 261 l 111 1022 l 313 1022 l 313 378 z "},"\u01af":{"ha":1099,"x_min":111,"x_max":1147,"o":"m 313 378 q 342 285 313 329 q 419 213 371 240 q 524 185 467 185 q 635 213 586 185 q 712 285 683 240 q 740 378 740 329 l 740 1022 l 939 1022 l 939 374 q 883 174 939 261 q 733 38 828 88 q 524 -11 639 -11 l 524 -11 q 316 38 410 -11 q 167 174 222 88 q 111 374 111 261 l 111 1022 l 313 1022 l 313 378 m 908 925 q 974 947 957 925 q 1004 1028 992 968 l 1147 1028 q 1101 890 1132 938 q 1022 826 1069 843 q 908 810 974 810 l 908 925 z "},"\u1ee8":{"ha":1099,"x_min":111,"x_max":1147,"o":"m 313 378 q 342 285 313 329 q 419 213 371 240 q 524 185 467 185 q 635 213 586 185 q 712 285 683 240 q 740 378 740 329 l 740 1022 l 939 1022 l 939 374 q 883 174 939 261 q 733 38 828 88 q 524 -11 639 -11 l 524 -11 q 316 38 410 -11 q 167 174 222 88 q 111 374 111 261 l 111 1022 l 313 1022 l 313 378 m 908 925 q 974 947 957 925 q 1004 1028 992 968 l 1147 1028 q 1101 890 1132 938 q 1022 826 1069 843 q 908 810 974 810 l 908 925 z "},"\u1ef0":{"ha":1099,"x_min":111,"x_max":1147,"o":"m 313 378 q 342 285 313 329 q 419 213 371 240 q 524 185 467 185 q 635 213 586 185 q 712 285 683 240 q 740 378 740 329 l 740 1022 l 939 1022 l 939 374 q 883 174 939 261 q 733 38 828 88 q 524 -11 639 -11 l 524 -11 q 316 38 410 -11 q 167 174 222 88 q 111 374 111 261 l 111 1022 l 313 1022 l 313 378 m 908 925 q 974 947 957 925 q 1004 1028 992 968 l 1147 1028 q 1101 890 1132 938 q 1022 826 1069 843 q 908 810 974 810 l 908 925 z "},"\u1eea":{"ha":1099,"x_min":111,"x_max":1147,"o":"m 313 378 q 342 285 313 329 q 419 213 371 240 q 524 185 467 185 q 635 213 586 185 q 712 285 683 240 q 740 378 740 329 l 740 1022 l 939 1022 l 939 374 q 883 174 939 261 q 733 38 828 88 q 524 -11 639 -11 l 524 -11 q 316 38 410 -11 q 167 174 222 88 q 111 374 111 261 l 111 1022 l 313 1022 l 313 378 m 908 925 q 974 947 957 925 q 1004 1028 992 968 l 1147 1028 q 1101 890 1132 938 q 1022 826 1069 843 q 908 810 974 810 l 908 925 z "},"\u1eec":{"ha":1099,"x_min":111,"x_max":1147,"o":"m 313 378 q 342 285 313 329 q 419 213 371 240 q 524 185 467 185 q 635 213 586 185 q 712 285 683 240 q 740 378 740 329 l 740 1022 l 939 1022 l 939 374 q 883 174 939 261 q 733 38 828 88 q 524 -11 639 -11 l 524 -11 q 316 38 410 -11 q 167 174 222 88 q 111 374 111 261 l 111 1022 l 313 1022 l 313 378 m 908 925 q 974 947 957 925 q 1004 1028 992 968 l 1147 1028 q 1101 890 1132 938 q 1022 826 1069 843 q 908 810 974 810 l 908 925 z "},"\u1eee":{"ha":1099,"x_min":111,"x_max":1147,"o":"m 313 378 q 342 285 313 329 q 419 213 371 240 q 524 185 467 185 q 635 213 586 185 q 712 285 683 240 q 740 378 740 329 l 740 1022 l 939 1022 l 939 374 q 883 174 939 261 q 733 38 828 88 q 524 -11 639 -11 l 524 -11 q 316 38 410 -11 q 167 174 222 88 q 111 374 111 261 l 111 1022 l 313 1022 l 313 378 m 908 925 q 974 947 957 925 q 1004 1028 992 968 l 1147 1028 q 1101 890 1132 938 q 1022 826 1069 843 q 908 810 974 810 l 908 925 m 633 1143 q 554 1163 586 1143 q 496 1204 522 1183 q 466 1226 481 1217 q 435 1236 451 1236 q 406 1222 417 1236 q 393 1188 396 1208 q 393 1146 390 1167 l 296 1146 q 305 1249 289 1200 q 356 1328 321 1297 q 446 1358 392 1358 q 508 1339 481 1358 q 560 1300 536 1319 q 596 1271 579 1283 q 629 1258 613 1258 q 660 1290 656 1258 q 664 1354 665 1321 l 761 1354 q 756 1247 771 1294 q 708 1171 740 1199 q 633 1143 675 1143 z "},"\u0170":{"ha":1050,"x_min":111,"x_max":939,"o":"m 313 378 q 342 285 313 329 q 419 213 371 240 q 524 185 467 185 q 635 213 586 185 q 712 285 683 240 q 740 378 740 329 l 740 1022 l 939 1022 l 939 374 q 883 174 939 261 q 733 38 828 88 q 524 -11 639 -11 l 524 -11 q 316 38 410 -11 q 167 174 222 88 q 111 374 111 261 l 111 1022 l 313 1022 l 313 378 z "},"\u0216":{"ha":1050,"x_min":111,"x_max":939,"o":"m 313 378 q 342 285 313 329 q 419 213 371 240 q 524 185 467 185 q 635 213 586 185 q 712 285 683 240 q 740 378 740 329 l 740 1022 l 939 1022 l 939 374 q 883 174 939 261 q 733 38 828 88 q 524 -11 639 -11 l 524 -11 q 316 38 410 -11 q 167 174 222 88 q 111 374 111 261 l 111 1022 l 313 1022 l 313 378 m 517 1311 q 628 1283 582 1311 q 705 1197 675 1254 q 750 1051 735 1139 l 621 1051 q 601 1121 613 1092 q 569 1166 589 1150 q 517 1182 550 1182 q 465 1166 485 1182 q 433 1121 444 1150 q 414 1051 422 1092 l 285 1051 q 330 1199 300 1142 q 406 1284 360 1257 q 517 1311 453 1311 z "},"\u016a":{"ha":1050,"x_min":111,"x_max":939,"o":"m 313 378 q 342 285 313 329 q 419 213 371 240 q 524 185 467 185 q 635 213 586 185 q 712 285 683 240 q 740 378 740 329 l 740 1022 l 939 1022 l 939 374 q 883 174 939 261 q 733 38 828 88 q 524 -11 639 -11 l 524 -11 q 316 38 410 -11 q 167 174 222 88 q 111 374 111 261 l 111 1022 l 313 1022 l 313 378 z "},"\u0172":{"ha":1050,"x_min":111,"x_max":939,"o":"m 676 -322 q 533 -273 592 -322 q 474 -143 474 -224 q 504 -53 474 -97 q 592 14 535 -8 l 649 96 l 671 13 q 524 -11 600 -11 q 306 39 399 -11 q 162 176 213 89 q 111 374 111 263 l 111 1022 l 313 1022 l 313 378 q 342 285 313 329 q 419 213 371 240 q 524 185 467 185 q 635 213 586 185 q 712 285 683 240 q 740 378 740 329 l 740 1022 l 939 1022 l 939 361 q 910 218 939 278 q 837 115 881 158 q 749 36 793 72 q 668 -40 703 -3 q 633 -128 633 -78 q 652 -174 633 -162 q 694 -186 671 -186 q 747 -169 722 -186 q 794 -118 772 -153 l 864 -218 q 779 -293 833 -264 q 676 -322 725 -322 z "},"\u016e":{"ha":1050,"x_min":111,"x_max":939,"o":"m 313 378 q 342 285 313 329 q 419 213 371 240 q 524 185 467 185 q 635 213 586 185 q 712 285 683 240 q 740 378 740 329 l 740 1022 l 939 1022 l 939 374 q 883 174 939 261 q 733 38 828 88 q 524 -11 639 -11 l 524 -11 q 316 38 410 -11 q 167 174 222 88 q 111 374 111 261 l 111 1022 l 313 1022 l 313 378 z "},"\u0168":{"ha":1050,"x_min":111,"x_max":939,"o":"m 313 378 q 342 285 313 329 q 419 213 371 240 q 524 185 467 185 q 635 213 586 185 q 712 285 683 240 q 740 378 740 329 l 740 1022 l 939 1022 l 939 374 q 883 174 939 261 q 733 38 828 88 q 524 -11 639 -11 l 524 -11 q 316 38 410 -11 q 167 174 222 88 q 111 374 111 261 l 111 1022 l 313 1022 l 313 378 m 633 1143 q 554 1163 586 1143 q 496 1204 522 1183 q 466 1226 481 1217 q 435 1236 451 1236 q 406 1222 417 1236 q 393 1188 396 1208 q 393 1146 390 1167 l 296 1146 q 305 1249 289 1200 q 356 1328 321 1297 q 446 1358 392 1358 q 508 1339 481 1358 q 560 1300 536 1319 q 596 1271 579 1283 q 629 1258 613 1258 q 660 1290 656 1258 q 664 1354 665 1321 l 761 1354 q 756 1247 771 1294 q 708 1171 740 1199 q 633 1143 675 1143 z "},"V":{"ha":1022,"x_min":44,"x_max":978,"o":"m 286 1022 l 585 286 l 468 310 l 739 1022 l 978 1022 l 511 -47 l 44 1022 l 286 1022 z "},"W":{"ha":1421,"x_min":44,"x_max":1376,"o":"m 44 1015 l 281 1015 l 499 374 l 467 388 l 657 861 l 750 585 l 456 -47 l 44 1015 m 557 1015 l 757 1015 l 1008 394 l 972 400 l 1160 1015 l 1376 1015 l 982 -44 l 557 1015 z "},"\u1e82":{"ha":1421,"x_min":44,"x_max":1376,"o":"m 44 1015 l 281 1015 l 499 374 l 467 388 l 657 861 l 750 585 l 456 -47 l 44 1015 m 557 1015 l 757 1015 l 1008 394 l 972 400 l 1160 1015 l 1376 1015 l 982 -44 l 557 1015 z "},"\u0174":{"ha":1421,"x_min":44,"x_max":1376,"o":"m 44 1015 l 281 1015 l 499 374 l 467 388 l 657 861 l 750 585 l 456 -47 l 44 1015 m 557 1015 l 757 1015 l 1008 394 l 972 400 l 1160 1015 l 1376 1015 l 982 -44 l 557 1015 z "},"\u1e84":{"ha":1421,"x_min":44,"x_max":1376,"o":"m 44 1015 l 281 1015 l 499 374 l 467 388 l 657 861 l 750 585 l 456 -47 l 44 1015 m 557 1015 l 757 1015 l 1008 394 l 972 400 l 1160 1015 l 1376 1015 l 982 -44 l 557 1015 z "},"\u1e80":{"ha":1421,"x_min":44,"x_max":1376,"o":"m 44 1015 l 281 1015 l 499 374 l 467 388 l 657 861 l 750 585 l 456 -47 l 44 1015 m 557 1015 l 757 1015 l 1008 394 l 972 400 l 1160 1015 l 1376 1015 l 982 -44 l 557 1015 z "},"X":{"ha":1007,"x_min":35,"x_max":972,"o":"m 49 1022 l 306 1022 l 972 0 l 713 0 l 49 1022 m 35 0 l 399 572 l 493 369 l 285 0 l 35 0 m 507 647 l 718 1022 l 963 1022 l 611 474 l 507 647 z "},"Y":{"ha":1003,"x_min":21,"x_max":982,"o":"m 397 318 l 21 1022 l 269 1022 l 533 492 l 474 488 l 733 1022 l 982 1022 l 599 318 l 599 0 l 397 0 l 397 318 z "},"\xdd":{"ha":1003,"x_min":21,"x_max":982,"o":"m 397 318 l 21 1022 l 269 1022 l 533 492 l 474 488 l 733 1022 l 982 1022 l 599 318 l 599 0 l 397 0 l 397 318 z "},"\u0176":{"ha":1003,"x_min":21,"x_max":982,"o":"m 397 318 l 21 1022 l 269 1022 l 533 492 l 474 488 l 733 1022 l 982 1022 l 599 318 l 599 0 l 397 0 l 397 318 z "},"\u0178":{"ha":1003,"x_min":21,"x_max":982,"o":"m 397 318 l 21 1022 l 269 1022 l 533 492 l 474 488 l 733 1022 l 982 1022 l 599 318 l 599 0 l 397 0 l 397 318 z "},"\u1ef4":{"ha":1003,"x_min":21,"x_max":982,"o":"m 397 318 l 21 1022 l 269 1022 l 533 492 l 474 488 l 733 1022 l 982 1022 l 599 318 l 599 0 l 397 0 l 397 318 z "},"\u1ef2":{"ha":1003,"x_min":21,"x_max":982,"o":"m 397 318 l 21 1022 l 269 1022 l 533 492 l 474 488 l 733 1022 l 982 1022 l 599 318 l 599 0 l 397 0 l 397 318 z "},"\u1ef6":{"ha":1003,"x_min":21,"x_max":982,"o":"m 397 318 l 21 1022 l 269 1022 l 533 492 l 474 488 l 733 1022 l 982 1022 l 599 318 l 599 0 l 397 0 l 397 318 z "},"\u0232":{"ha":1003,"x_min":21,"x_max":982,"o":"m 397 318 l 21 1022 l 269 1022 l 533 492 l 474 488 l 733 1022 l 982 1022 l 599 318 l 599 0 l 397 0 l 397 318 z "},"\u1ef8":{"ha":1003,"x_min":21,"x_max":982,"o":"m 397 318 l 21 1022 l 269 1022 l 533 492 l 474 488 l 733 1022 l 982 1022 l 599 318 l 599 0 l 397 0 l 397 318 m 638 1143 q 558 1163 590 1143 q 500 1204 526 1183 q 470 1226 485 1217 q 439 1236 456 1236 q 410 1222 421 1236 q 397 1188 400 1208 q 397 1146 394 1167 l 300 1146 q 309 1249 293 1200 q 360 1328 325 1297 q 450 1358 396 1358 q 513 1339 485 1358 q 564 1300 540 1319 q 600 1271 583 1283 q 633 1258 617 1258 q 665 1290 660 1258 q 668 1354 669 1321 l 765 1354 q 760 1247 775 1294 q 712 1171 744 1199 q 638 1143 679 1143 z "},"Z":{"ha":1003,"x_min":63,"x_max":933,"o":"m 63 0 q 86 38 63 0 q 149 138 110 75 q 238 279 189 200 q 340 442 288 358 q 441 604 392 525 q 530 746 490 683 q 593 846 569 808 q 617 883 617 883 l 639 828 l 271 828 q 210 841 242 828 q 158 877 179 854 q 136 928 136 900 l 136 1074 l 321 1074 l 321 1054 q 331 1023 321 1024 q 365 1022 340 1022 l 933 1022 l 394 172 l 383 194 l 932 194 l 932 0 l 63 0 z "},"\u0179":{"ha":1003,"x_min":63,"x_max":933,"o":"m 63 0 q 86 38 63 0 q 149 138 110 75 q 238 279 189 200 q 340 442 288 358 q 441 604 392 525 q 530 746 490 683 q 593 846 569 808 q 617 883 617 883 l 639 828 l 271 828 q 210 841 242 828 q 158 877 179 854 q 136 928 136 900 l 136 1074 l 321 1074 l 321 1054 q 331 1023 321 1024 q 365 1022 340 1022 l 933 1022 l 394 172 l 383 194 l 932 194 l 932 0 l 63 0 z "},"\u017d":{"ha":1003,"x_min":63,"x_max":933,"o":"m 63 0 q 86 38 63 0 q 149 138 110 75 q 238 279 189 200 q 340 442 288 358 q 441 604 392 525 q 530 746 490 683 q 593 846 569 808 q 617 883 617 883 l 639 828 l 271 828 q 210 841 242 828 q 158 877 179 854 q 136 928 136 900 l 136 1074 l 321 1074 l 321 1054 q 331 1023 321 1024 q 365 1022 340 1022 l 933 1022 l 394 172 l 383 194 l 932 194 l 932 0 l 63 0 z "},"\u017b":{"ha":1003,"x_min":63,"x_max":933,"o":"m 63 0 q 86 38 63 0 q 149 138 110 75 q 238 279 189 200 q 340 442 288 358 q 441 604 392 525 q 530 746 490 683 q 593 846 569 808 q 617 883 617 883 l 639 828 l 271 828 q 210 841 242 828 q 158 877 179 854 q 136 928 136 900 l 136 1074 l 321 1074 l 321 1054 q 331 1023 321 1024 q 365 1022 340 1022 l 933 1022 l 394 172 l 383 194 l 932 194 l 932 0 l 63 0 z "},"a":{"ha":853,"x_min":53,"x_max":753,"o":"m 356 -17 q 202 17 271 -17 q 93 122 133 51 q 53 303 53 193 q 94 481 53 406 q 204 597 136 556 q 349 638 272 638 q 485 608 439 638 q 563 542 532 578 l 554 518 l 572 607 l 753 607 l 753 0 l 558 0 l 558 132 l 574 90 q 557 74 571 90 q 516 37 543 58 q 449 -1 489 15 q 356 -17 410 -17 m 411 142 q 474 152 446 142 q 522 183 501 163 q 558 233 543 203 l 558 382 q 525 434 547 413 q 472 467 503 456 q 404 479 442 479 q 327 458 363 479 q 271 399 292 436 q 250 313 250 361 q 272 225 250 264 q 331 164 294 186 q 411 142 368 142 z "},"\xe1":{"ha":853,"x_min":53,"x_max":753,"o":"m 356 -17 q 202 17 271 -17 q 93 122 133 51 q 53 303 53 193 q 94 481 53 406 q 204 597 136 556 q 349 638 272 638 q 485 608 439 638 q 563 542 532 578 l 554 518 l 572 607 l 753 607 l 753 0 l 558 0 l 558 132 l 574 90 q 557 74 571 90 q 516 37 543 58 q 449 -1 489 15 q 356 -17 410 -17 m 411 142 q 474 152 446 142 q 522 183 501 163 q 558 233 543 203 l 558 382 q 525 434 547 413 q 472 467 503 456 q 404 479 442 479 q 327 458 363 479 q 271 399 292 436 q 250 313 250 361 q 272 225 250 264 q 331 164 294 186 q 411 142 368 142 z "},"\u0103":{"ha":853,"x_min":53,"x_max":753,"o":"m 356 -17 q 202 17 271 -17 q 93 122 133 51 q 53 303 53 193 q 94 481 53 406 q 204 597 136 556 q 349 638 272 638 q 485 608 439 638 q 563 542 532 578 l 554 518 l 572 607 l 753 607 l 753 0 l 558 0 l 558 132 l 574 90 q 557 74 571 90 q 516 37 543 58 q 449 -1 489 15 q 356 -17 410 -17 m 411 142 q 474 152 446 142 q 522 183 501 163 q 558 233 543 203 l 558 382 q 525 434 547 413 q 472 467 503 456 q 404 479 442 479 q 327 458 363 479 q 271 399 292 436 q 250 313 250 361 q 272 225 250 264 q 331 164 294 186 q 411 142 368 142 z "},"\u1eaf":{"ha":853,"x_min":53,"x_max":753,"o":"m 356 -17 q 202 17 271 -17 q 93 122 133 51 q 53 303 53 193 q 94 481 53 406 q 204 597 136 556 q 349 638 272 638 q 485 608 439 638 q 563 542 532 578 l 554 518 l 572 607 l 753 607 l 753 0 l 558 0 l 558 132 l 574 90 q 557 74 571 90 q 516 37 543 58 q 449 -1 489 15 q 356 -17 410 -17 m 411 142 q 474 152 446 142 q 522 183 501 163 q 558 233 543 203 l 558 382 q 525 434 547 413 q 472 467 503 456 q 404 479 442 479 q 327 458 363 479 q 271 399 292 436 q 250 313 250 361 q 272 225 250 264 q 331 164 294 186 q 411 142 368 142 z "},"\u1eb7":{"ha":853,"x_min":53,"x_max":753,"o":"m 356 -17 q 202 17 271 -17 q 93 122 133 51 q 53 303 53 193 q 94 481 53 406 q 204 597 136 556 q 349 638 272 638 q 485 608 439 638 q 563 542 532 578 l 554 518 l 572 607 l 753 607 l 753 0 l 558 0 l 558 132 l 574 90 q 557 74 571 90 q 516 37 543 58 q 449 -1 489 15 q 356 -17 410 -17 m 411 142 q 474 152 446 142 q 522 183 501 163 q 558 233 543 203 l 558 382 q 525 434 547 413 q 472 467 503 456 q 404 479 442 479 q 327 458 363 479 q 271 399 292 436 q 250 313 250 361 q 272 225 250 264 q 331 164 294 186 q 411 142 368 142 m 338 -151 q 365 -94 338 -117 q 426 -71 393 -71 q 485 -94 458 -71 q 513 -151 513 -117 q 485 -210 513 -187 q 426 -232 458 -232 q 365 -210 393 -232 q 338 -151 338 -187 z "},"\u1eb1":{"ha":853,"x_min":53,"x_max":753,"o":"m 356 -17 q 202 17 271 -17 q 93 122 133 51 q 53 303 53 193 q 94 481 53 406 q 204 597 136 556 q 349 638 272 638 q 485 608 439 638 q 563 542 532 578 l 554 518 l 572 607 l 753 607 l 753 0 l 558 0 l 558 132 l 574 90 q 557 74 571 90 q 516 37 543 58 q 449 -1 489 15 q 356 -17 410 -17 m 411 142 q 474 152 446 142 q 522 183 501 163 q 558 233 543 203 l 558 382 q 525 434 547 413 q 472 467 503 456 q 404 479 442 479 q 327 458 363 479 q 271 399 292 436 q 250 313 250 361 q 272 225 250 264 q 331 164 294 186 q 411 142 368 142 z "},"\u1eb3":{"ha":853,"x_min":53,"x_max":753,"o":"m 356 -17 q 202 17 271 -17 q 93 122 133 51 q 53 303 53 193 q 94 481 53 406 q 204 597 136 556 q 349 638 272 638 q 485 608 439 638 q 563 542 532 578 l 554 518 l 572 607 l 753 607 l 753 0 l 558 0 l 558 132 l 574 90 q 557 74 571 90 q 516 37 543 58 q 449 -1 489 15 q 356 -17 410 -17 m 411 142 q 474 152 446 142 q 522 183 501 163 q 558 233 543 203 l 558 382 q 525 434 547 413 q 472 467 503 456 q 404 479 442 479 q 327 458 363 479 q 271 399 292 436 q 250 313 250 361 q 272 225 250 264 q 331 164 294 186 q 411 142 368 142 z "},"\u1eb5":{"ha":853,"x_min":53,"x_max":753,"o":"m 356 -17 q 202 17 271 -17 q 93 122 133 51 q 53 303 53 193 q 94 481 53 406 q 204 597 136 556 q 349 638 272 638 q 485 608 439 638 q 563 542 532 578 l 554 518 l 572 607 l 753 607 l 753 0 l 558 0 l 558 132 l 574 90 q 557 74 571 90 q 516 37 543 58 q 449 -1 489 15 q 356 -17 410 -17 m 411 142 q 474 152 446 142 q 522 183 501 163 q 558 233 543 203 l 558 382 q 525 434 547 413 q 472 467 503 456 q 404 479 442 479 q 327 458 363 479 q 271 399 292 436 q 250 313 250 361 q 272 225 250 264 q 331 164 294 186 q 411 142 368 142 z "},"\xe2":{"ha":853,"x_min":53,"x_max":753,"o":"m 356 -17 q 202 17 271 -17 q 93 122 133 51 q 53 303 53 193 q 94 481 53 406 q 204 597 136 556 q 349 638 272 638 q 485 608 439 638 q 563 542 532 578 l 554 518 l 572 607 l 753 607 l 753 0 l 558 0 l 558 132 l 574 90 q 557 74 571 90 q 516 37 543 58 q 449 -1 489 15 q 356 -17 410 -17 m 411 142 q 474 152 446 142 q 522 183 501 163 q 558 233 543 203 l 558 382 q 525 434 547 413 q 472 467 503 456 q 404 479 442 479 q 327 458 363 479 q 271 399 292 436 q 250 313 250 361 q 272 225 250 264 q 331 164 294 186 q 411 142 368 142 z "},"\u1ea5":{"ha":853,"x_min":53,"x_max":903,"o":"m 356 -17 q 202 17 271 -17 q 93 122 133 51 q 53 303 53 193 q 94 481 53 406 q 204 597 136 556 q 349 638 272 638 q 485 608 439 638 q 563 542 532 578 l 554 518 l 572 607 l 753 607 l 753 0 l 558 0 l 558 132 l 574 90 q 557 74 571 90 q 516 37 543 58 q 449 -1 489 15 q 356 -17 410 -17 m 411 142 q 474 152 446 142 q 522 183 501 163 q 558 233 543 203 l 558 382 q 525 434 547 413 q 472 467 503 456 q 404 479 442 479 q 327 458 363 479 q 271 399 292 436 q 250 313 250 361 q 272 225 250 264 q 331 164 294 186 q 411 142 368 142 z "},"\u1ead":{"ha":853,"x_min":53,"x_max":753,"o":"m 356 -17 q 202 17 271 -17 q 93 122 133 51 q 53 303 53 193 q 94 481 53 406 q 204 597 136 556 q 349 638 272 638 q 485 608 439 638 q 563 542 532 578 l 554 518 l 572 607 l 753 607 l 753 0 l 558 0 l 558 132 l 574 90 q 557 74 571 90 q 516 37 543 58 q 449 -1 489 15 q 356 -17 410 -17 m 411 142 q 474 152 446 142 q 522 183 501 163 q 558 233 543 203 l 558 382 q 525 434 547 413 q 472 467 503 456 q 404 479 442 479 q 327 458 363 479 q 271 399 292 436 q 250 313 250 361 q 272 225 250 264 q 331 164 294 186 q 411 142 368 142 m 338 -151 q 365 -94 338 -117 q 426 -71 393 -71 q 485 -94 458 -71 q 513 -151 513 -117 q 485 -210 513 -187 q 426 -232 458 -232 q 365 -210 393 -232 q 338 -151 338 -187 z "},"\u1ea7":{"ha":853,"x_min":-39,"x_max":753,"o":"m 356 -17 q 202 17 271 -17 q 93 122 133 51 q 53 303 53 193 q 94 481 53 406 q 204 597 136 556 q 349 638 272 638 q 485 608 439 638 q 563 542 532 578 l 554 518 l 572 607 l 753 607 l 753 0 l 558 0 l 558 132 l 574 90 q 557 74 571 90 q 516 37 543 58 q 449 -1 489 15 q 356 -17 410 -17 m 411 142 q 474 152 446 142 q 522 183 501 163 q 558 233 543 203 l 558 382 q 525 434 547 413 q 472 467 503 456 q 404 479 442 479 q 327 458 363 479 q 271 399 292 436 q 250 313 250 361 q 272 225 250 264 q 331 164 294 186 q 411 142 368 142 z "},"\u1ea9":{"ha":853,"x_min":53,"x_max":878,"o":"m 356 -17 q 202 17 271 -17 q 93 122 133 51 q 53 303 53 193 q 94 481 53 406 q 204 597 136 556 q 349 638 272 638 q 485 608 439 638 q 563 542 532 578 l 554 518 l 572 607 l 753 607 l 753 0 l 558 0 l 558 132 l 574 90 q 557 74 571 90 q 516 37 543 58 q 449 -1 489 15 q 356 -17 410 -17 m 411 142 q 474 152 446 142 q 522 183 501 163 q 558 233 543 203 l 558 382 q 525 434 547 413 q 472 467 503 456 q 404 479 442 479 q 327 458 363 479 q 271 399 292 436 q 250 313 250 361 q 272 225 250 264 q 331 164 294 186 q 411 142 368 142 z "},"\u1eab":{"ha":853,"x_min":53,"x_max":753,"o":"m 356 -17 q 202 17 271 -17 q 93 122 133 51 q 53 303 53 193 q 94 481 53 406 q 204 597 136 556 q 349 638 272 638 q 485 608 439 638 q 563 542 532 578 l 554 518 l 572 607 l 753 607 l 753 0 l 558 0 l 558 132 l 574 90 q 557 74 571 90 q 516 37 543 58 q 449 -1 489 15 q 356 -17 410 -17 m 411 142 q 474 152 446 142 q 522 183 501 163 q 558 233 543 203 l 558 382 q 525 434 547 413 q 472 467 503 456 q 404 479 442 479 q 327 458 363 479 q 271 399 292 436 q 250 313 250 361 q 272 225 250 264 q 331 164 294 186 q 411 142 368 142 z "},"\u0201":{"ha":853,"x_min":53,"x_max":753,"o":"m 356 -17 q 202 17 271 -17 q 93 122 133 51 q 53 303 53 193 q 94 481 53 406 q 204 597 136 556 q 349 638 272 638 q 485 608 439 638 q 563 542 532 578 l 554 518 l 572 607 l 753 607 l 753 0 l 558 0 l 558 132 l 574 90 q 557 74 571 90 q 516 37 543 58 q 449 -1 489 15 q 356 -17 410 -17 m 411 142 q 474 152 446 142 q 522 183 501 163 q 558 233 543 203 l 558 382 q 525 434 547 413 q 472 467 503 456 q 404 479 442 479 q 327 458 363 479 q 271 399 292 436 q 250 313 250 361 q 272 225 250 264 q 331 164 294 186 q 411 142 368 142 z "},"\xe4":{"ha":853,"x_min":53,"x_max":753,"o":"m 356 -17 q 202 17 271 -17 q 93 122 133 51 q 53 303 53 193 q 94 481 53 406 q 204 597 136 556 q 349 638 272 638 q 485 608 439 638 q 563 542 532 578 l 554 518 l 572 607 l 753 607 l 753 0 l 558 0 l 558 132 l 574 90 q 557 74 571 90 q 516 37 543 58 q 449 -1 489 15 q 356 -17 410 -17 m 411 142 q 474 152 446 142 q 522 183 501 163 q 558 233 543 203 l 558 382 q 525 434 547 413 q 472 467 503 456 q 404 479 442 479 q 327 458 363 479 q 271 399 292 436 q 250 313 250 361 q 272 225 250 264 q 331 164 294 186 q 411 142 368 142 z "},"\u1ea1":{"ha":853,"x_min":53,"x_max":753,"o":"m 356 -17 q 202 17 271 -17 q 93 122 133 51 q 53 303 53 193 q 94 481 53 406 q 204 597 136 556 q 349 638 272 638 q 485 608 439 638 q 563 542 532 578 l 554 518 l 572 607 l 753 607 l 753 0 l 558 0 l 558 132 l 574 90 q 557 74 571 90 q 516 37 543 58 q 449 -1 489 15 q 356 -17 410 -17 m 411 142 q 474 152 446 142 q 522 183 501 163 q 558 233 543 203 l 558 382 q 525 434 547 413 q 472 467 503 456 q 404 479 442 479 q 327 458 363 479 q 271 399 292 436 q 250 313 250 361 q 272 225 250 264 q 331 164 294 186 q 411 142 368 142 m 338 -151 q 365 -94 338 -117 q 426 -71 393 -71 q 485 -94 458 -71 q 513 -151 513 -117 q 485 -210 513 -187 q 426 -232 458 -232 q 365 -210 393 -232 q 338 -151 338 -187 z "},"\xe0":{"ha":853,"x_min":53,"x_max":753,"o":"m 356 -17 q 202 17 271 -17 q 93 122 133 51 q 53 303 53 193 q 94 481 53 406 q 204 597 136 556 q 349 638 272 638 q 485 608 439 638 q 563 542 532 578 l 554 518 l 572 607 l 753 607 l 753 0 l 558 0 l 558 132 l 574 90 q 557 74 571 90 q 516 37 543 58 q 449 -1 489 15 q 356 -17 410 -17 m 411 142 q 474 152 446 142 q 522 183 501 163 q 558 233 543 203 l 558 382 q 525 434 547 413 q 472 467 503 456 q 404 479 442 479 q 327 458 363 479 q 271 399 292 436 q 250 313 250 361 q 272 225 250 264 q 331 164 294 186 q 411 142 368 142 z "},"\u1ea3":{"ha":853,"x_min":53,"x_max":753,"o":"m 356 -17 q 202 17 271 -17 q 93 122 133 51 q 53 303 53 193 q 94 481 53 406 q 204 597 136 556 q 349 638 272 638 q 485 608 439 638 q 563 542 532 578 l 554 518 l 572 607 l 753 607 l 753 0 l 558 0 l 558 132 l 574 90 q 557 74 571 90 q 516 37 543 58 q 449 -1 489 15 q 356 -17 410 -17 m 411 142 q 474 152 446 142 q 522 183 501 163 q 558 233 543 203 l 558 382 q 525 434 547 413 q 472 467 503 456 q 404 479 442 479 q 327 458 363 479 q 271 399 292 436 q 250 313 250 361 q 272 225 250 264 q 331 164 294 186 q 411 142 368 142 m 414 750 q 453 783 438 767 q 468 824 468 800 q 459 856 468 843 q 428 869 450 869 q 395 858 410 869 q 374 832 381 847 l 304 874 q 369 949 328 925 q 454 974 411 974 q 525 955 499 974 q 563 908 551 936 q 575 851 575 879 q 539 761 575 797 q 454 699 503 725 l 414 750 z "},"\u0203":{"ha":853,"x_min":53,"x_max":753,"o":"m 356 -17 q 202 17 271 -17 q 93 122 133 51 q 53 303 53 193 q 94 481 53 406 q 204 597 136 556 q 349 638 272 638 q 485 608 439 638 q 563 542 532 578 l 554 518 l 572 607 l 753 607 l 753 0 l 558 0 l 558 132 l 574 90 q 557 74 571 90 q 516 37 543 58 q 449 -1 489 15 q 356 -17 410 -17 m 411 142 q 474 152 446 142 q 522 183 501 163 q 558 233 543 203 l 558 382 q 525 434 547 413 q 472 467 503 456 q 404 479 442 479 q 327 458 363 479 q 271 399 292 436 q 250 313 250 361 q 272 225 250 264 q 331 164 294 186 q 411 142 368 142 m 460 940 q 572 912 525 940 q 648 826 618 883 q 693 681 678 768 l 564 681 q 544 750 556 721 q 513 795 532 779 q 460 811 493 811 q 408 795 428 811 q 376 750 388 779 q 357 681 365 721 l 228 681 q 273 828 243 771 q 349 913 303 886 q 460 940 396 940 z "},"\u0101":{"ha":853,"x_min":53,"x_max":753,"o":"m 356 -17 q 202 17 271 -17 q 93 122 133 51 q 53 303 53 193 q 94 481 53 406 q 204 597 136 556 q 349 638 272 638 q 485 608 439 638 q 563 542 532 578 l 554 518 l 572 607 l 753 607 l 753 0 l 558 0 l 558 132 l 574 90 q 557 74 571 90 q 516 37 543 58 q 449 -1 489 15 q 356 -17 410 -17 m 411 142 q 474 152 446 142 q 522 183 501 163 q 558 233 543 203 l 558 382 q 525 434 547 413 q 472 467 503 456 q 404 479 442 479 q 327 458 363 479 q 271 399 292 436 q 250 313 250 361 q 272 225 250 264 q 331 164 294 186 q 411 142 368 142 z "},"\u0105":{"ha":863,"x_min":58,"x_max":842,"o":"m 354 -17 q 205 17 272 -17 q 98 122 138 51 q 58 303 58 193 q 100 481 58 406 q 210 597 142 556 q 354 638 278 638 q 454 624 415 638 q 519 588 493 610 q 565 542 546 567 l 578 607 l 758 607 l 758 0 q 653 -55 694 -26 q 611 -128 611 -83 q 630 -174 611 -162 q 672 -186 649 -186 q 725 -169 700 -186 q 772 -118 750 -153 l 842 -218 q 757 -293 811 -264 q 654 -322 703 -322 q 510 -273 569 -322 q 451 -143 451 -224 q 482 -53 451 -97 q 569 14 513 -8 l 586 -10 l 564 -36 l 564 132 l 579 90 q 536 52 564 78 q 464 5 508 26 q 354 -17 419 -17 m 410 142 q 476 152 447 142 q 526 183 504 163 q 564 233 549 203 l 564 382 q 531 434 553 413 q 478 467 508 456 q 410 479 447 479 q 333 458 368 479 q 276 399 297 436 q 256 313 256 361 q 276 225 256 264 q 333 164 297 186 q 410 142 368 142 z "},"\xe5":{"ha":853,"x_min":53,"x_max":753,"o":"m 356 -17 q 202 17 271 -17 q 93 122 133 51 q 53 303 53 193 q 94 481 53 406 q 204 597 136 556 q 349 638 272 638 q 485 608 439 638 q 563 542 532 578 l 554 518 l 572 607 l 753 607 l 753 0 l 558 0 l 558 132 l 574 90 q 557 74 571 90 q 516 37 543 58 q 449 -1 489 15 q 356 -17 410 -17 m 411 142 q 474 152 446 142 q 522 183 501 163 q 558 233 543 203 l 558 382 q 525 434 547 413 q 472 467 503 456 q 404 479 442 479 q 327 458 363 479 q 271 399 292 436 q 250 313 250 361 q 272 225 250 264 q 331 164 294 186 q 411 142 368 142 z "},"\u01fb":{"ha":853,"x_min":53,"x_max":753,"o":"m 356 -17 q 202 17 271 -17 q 93 122 133 51 q 53 303 53 193 q 94 481 53 406 q 204 597 136 556 q 349 638 272 638 q 485 608 439 638 q 563 542 532 578 l 554 518 l 572 607 l 753 607 l 753 0 l 558 0 l 558 132 l 574 90 q 557 74 571 90 q 516 37 543 58 q 449 -1 489 15 q 356 -17 410 -17 m 411 142 q 474 152 446 142 q 522 183 501 163 q 558 233 543 203 l 558 382 q 525 434 547 413 q 472 467 503 456 q 404 479 442 479 q 327 458 363 479 q 271 399 292 436 q 250 313 250 361 q 272 225 250 264 q 331 164 294 186 q 411 142 368 142 z "},"\xe3":{"ha":853,"x_min":53,"x_max":753,"o":"m 356 -17 q 202 17 271 -17 q 93 122 133 51 q 53 303 53 193 q 94 481 53 406 q 204 597 136 556 q 349 638 272 638 q 485 608 439 638 q 563 542 532 578 l 554 518 l 572 607 l 753 607 l 753 0 l 558 0 l 558 132 l 574 90 q 557 74 571 90 q 516 37 543 58 q 449 -1 489 15 q 356 -17 410 -17 m 411 142 q 474 152 446 142 q 522 183 501 163 q 558 233 543 203 l 558 382 q 525 434 547 413 q 472 467 503 456 q 404 479 442 479 q 327 458 363 479 q 271 399 292 436 q 250 313 250 361 q 272 225 250 264 q 331 164 294 186 q 411 142 368 142 m 564 675 q 485 695 517 675 q 426 736 453 715 q 397 758 411 749 q 365 768 382 768 q 337 754 347 768 q 324 719 326 740 q 324 678 321 699 l 226 678 q 235 781 219 732 q 287 860 251 829 q 376 890 322 890 q 439 871 411 890 q 490 832 467 851 q 526 803 510 815 q 560 790 543 790 q 591 822 586 790 q 594 886 596 853 l 692 886 q 686 778 701 826 q 638 703 671 731 q 564 675 606 675 z "},"\xe6":{"ha":1179,"x_min":53,"x_max":1138,"o":"m 292 -15 q 157 9 210 -15 q 78 77 104 33 q 53 178 53 121 q 90 278 53 236 q 189 344 128 321 q 318 367 250 367 q 438 352 379 367 q 528 319 497 338 l 497 208 q 433 235 458 228 q 364 242 408 242 q 313 235 335 242 q 278 216 290 229 q 267 182 267 203 q 289 135 267 151 q 347 118 311 118 q 399 128 374 118 q 447 155 425 139 q 482 188 469 171 l 482 240 l 554 240 l 554 101 q 488 38 526 64 q 399 -1 449 13 q 292 -15 350 -15 m 464 315 l 464 365 q 440 435 464 411 q 388 469 417 460 q 344 478 360 478 q 249 448 289 478 q 189 389 208 418 l 92 511 q 206 598 138 560 q 372 636 275 636 q 510 612 447 636 q 613 540 574 588 q 651 418 651 492 l 651 390 l 464 315 m 810 -17 q 622 25 699 -17 q 504 140 544 67 q 464 310 464 214 q 511 475 464 401 q 638 592 558 549 q 814 636 717 636 q 1028 560 944 636 q 1138 342 1113 485 l 665 192 l 622 297 l 964 413 l 924 394 q 884 458 913 431 q 799 485 856 485 q 723 465 756 485 q 673 408 690 444 q 656 321 656 371 q 676 226 656 264 q 733 168 697 188 q 814 149 769 149 q 876 160 846 149 q 935 189 906 171 l 1021 44 q 916 0 972 17 q 810 -17 860 -17 z "},"\u01fd":{"ha":1179,"x_min":53,"x_max":1138,"o":"m 292 -15 q 157 9 210 -15 q 78 77 104 33 q 53 178 53 121 q 90 278 53 236 q 189 344 128 321 q 318 367 250 367 q 438 352 379 367 q 528 319 497 338 l 497 208 q 433 235 458 228 q 364 242 408 242 q 313 235 335 242 q 278 216 290 229 q 267 182 267 203 q 289 135 267 151 q 347 118 311 118 q 399 128 374 118 q 447 155 425 139 q 482 188 469 171 l 482 240 l 554 240 l 554 101 q 488 38 526 64 q 399 -1 449 13 q 292 -15 350 -15 m 464 315 l 464 365 q 440 435 464 411 q 388 469 417 460 q 344 478 360 478 q 249 448 289 478 q 189 389 208 418 l 92 511 q 206 598 138 560 q 372 636 275 636 q 510 612 447 636 q 613 540 574 588 q 651 418 651 492 l 651 390 l 464 315 m 810 -17 q 622 25 699 -17 q 504 140 544 67 q 464 310 464 214 q 511 475 464 401 q 638 592 558 549 q 814 636 717 636 q 1028 560 944 636 q 1138 342 1113 485 l 665 192 l 622 297 l 964 413 l 924 394 q 884 458 913 431 q 799 485 856 485 q 723 465 756 485 q 673 408 690 444 q 656 321 656 371 q 676 226 656 264 q 733 168 697 188 q 814 149 769 149 q 876 160 846 149 q 935 189 906 171 l 1021 44 q 916 0 972 17 q 810 -17 860 -17 z "},"b":{"ha":867,"x_min":100,"x_max":814,"o":"m 499 -17 q 370 9 422 -17 q 279 76 318 35 l 294 118 l 294 0 l 100 0 l 100 1096 l 293 1096 l 293 503 l 293 565 q 389 617 329 596 q 525 638 449 638 q 669 600 604 638 q 774 491 735 563 q 814 317 814 419 q 770 139 814 214 q 654 24 726 64 q 499 -17 582 -17 m 456 147 q 535 169 499 147 q 594 231 572 192 q 617 318 617 269 q 594 404 617 367 q 535 463 572 442 q 456 485 499 485 q 385 473 418 485 q 330 440 353 461 q 294 388 307 418 l 294 239 q 334 188 311 208 q 388 158 357 168 q 456 147 418 147 z "},"c":{"ha":665,"x_min":53,"x_max":621,"o":"m 615 54 q 515 3 575 22 q 396 -17 454 -17 q 215 22 292 -17 q 95 131 138 60 q 53 304 53 203 q 99 477 53 406 q 219 586 144 549 q 375 624 293 624 q 517 601 457 624 q 621 543 578 579 l 526 418 q 473 449 507 433 q 393 465 439 465 q 319 444 353 465 q 267 388 286 424 q 247 304 247 351 q 268 222 247 260 q 326 163 289 185 q 413 142 363 142 q 472 151 444 142 q 518 176 499 160 l 615 54 z "},"\u0107":{"ha":665,"x_min":53,"x_max":621,"o":"m 615 54 q 515 3 575 22 q 396 -17 454 -17 q 215 22 292 -17 q 95 131 138 60 q 53 304 53 203 q 99 477 53 406 q 219 586 144 549 q 375 624 293 624 q 517 601 457 624 q 621 543 578 579 l 526 418 q 473 449 507 433 q 393 465 439 465 q 319 444 353 465 q 267 388 286 424 q 247 304 247 351 q 268 222 247 260 q 326 163 289 185 q 413 142 363 142 q 472 151 444 142 q 518 176 499 160 l 615 54 z "},"\u010d":{"ha":665,"x_min":53,"x_max":631,"o":"m 615 54 q 515 3 575 22 q 396 -17 454 -17 q 215 22 292 -17 q 95 131 138 60 q 53 304 53 203 q 99 477 53 406 q 219 586 144 549 q 375 624 293 624 q 517 601 457 624 q 621 543 578 579 l 526 418 q 473 449 507 433 q 393 465 439 465 q 319 444 353 465 q 267 388 286 424 q 247 304 247 351 q 268 222 247 260 q 326 163 289 185 q 413 142 363 142 q 472 151 444 142 q 518 176 499 160 l 615 54 z "},"\xe7":{"ha":665,"x_min":53,"x_max":621,"o":"m 615 54 q 515 3 575 22 q 396 -17 454 -17 q 215 22 292 -17 q 95 131 138 60 q 53 304 53 203 q 99 477 53 406 q 219 586 144 549 q 375 624 293 624 q 517 601 457 624 q 621 543 578 579 l 526 418 q 473 449 507 433 q 393 465 439 465 q 319 444 353 465 q 267 388 286 424 q 247 304 247 351 q 268 222 247 260 q 326 163 289 185 q 413 142 363 142 q 472 151 444 142 q 518 176 499 160 l 615 54 z "},"\u0109":{"ha":665,"x_min":53,"x_max":621,"o":"m 615 54 q 515 3 575 22 q 396 -17 454 -17 q 215 22 292 -17 q 95 131 138 60 q 53 304 53 203 q 99 477 53 406 q 219 586 144 549 q 375 624 293 624 q 517 601 457 624 q 621 543 578 579 l 526 418 q 473 449 507 433 q 393 465 439 465 q 319 444 353 465 q 267 388 286 424 q 247 304 247 351 q 268 222 247 260 q 326 163 289 185 q 413 142 363 142 q 472 151 444 142 q 518 176 499 160 l 615 54 z "},"\u010b":{"ha":665,"x_min":53,"x_max":621,"o":"m 615 54 q 515 3 575 22 q 396 -17 454 -17 q 215 22 292 -17 q 95 131 138 60 q 53 304 53 203 q 99 477 53 406 q 219 586 144 549 q 375 624 293 624 q 517 601 457 624 q 621 543 578 579 l 526 418 q 473 449 507 433 q 393 465 439 465 q 319 444 353 465 q 267 388 286 424 q 247 304 247 351 q 268 222 247 260 q 326 163 289 185 q 413 142 363 142 q 472 151 444 142 q 518 176 499 160 l 615 54 z "},"d":{"ha":867,"x_min":53,"x_max":767,"o":"m 347 -17 q 196 23 263 -17 q 91 138 129 63 q 53 315 53 213 q 94 490 53 418 q 208 600 136 563 q 372 638 281 638 q 484 619 431 638 q 574 564 538 601 l 574 503 l 574 1096 l 767 1096 l 767 0 l 572 0 l 572 118 l 588 76 q 482 10 540 38 q 347 -17 424 -17 m 411 147 q 480 158 450 147 q 533 188 510 168 q 572 239 556 208 l 572 388 q 538 440 561 418 q 483 473 515 461 q 411 485 450 485 q 331 463 368 485 q 272 404 294 442 q 250 318 250 367 q 272 231 250 269 q 331 169 294 192 q 411 147 368 147 z "},"\xf0":{"ha":793,"x_min":53,"x_max":740,"o":"m 379 -17 q 215 22 289 -17 q 97 135 140 61 q 53 311 53 208 q 92 478 53 404 q 199 594 132 551 q 350 636 267 636 q 465 606 415 636 q 549 528 515 576 q 601 422 583 479 q 618 311 618 365 l 544 353 q 524 556 544 469 q 463 710 504 642 q 360 840 422 778 q 215 968 299 901 l 360 1096 q 513 963 443 1042 q 634 788 583 883 q 713 586 685 692 q 740 375 740 481 q 718 235 740 304 q 651 108 696 165 q 538 17 606 51 q 379 -17 471 -17 m 396 142 q 475 164 442 142 q 526 224 508 186 q 544 310 544 263 q 526 396 544 358 q 475 456 508 433 q 396 478 442 478 q 321 456 354 478 q 268 396 288 433 q 249 310 249 358 q 268 224 249 263 q 321 164 288 186 q 396 142 354 142 m 683 926 l 297 690 l 235 819 l 621 1056 l 683 926 z "},"\u010f":{"ha":1024,"x_min":53,"x_max":1057,"o":"m 347 -17 q 196 23 263 -17 q 91 138 129 63 q 53 315 53 213 q 94 490 53 418 q 208 600 136 563 q 372 638 281 638 q 484 619 431 638 q 574 564 538 601 l 574 503 l 574 1096 l 767 1096 l 767 0 l 572 0 l 572 118 l 588 76 q 482 10 540 38 q 347 -17 424 -17 m 411 147 q 480 158 450 147 q 533 188 510 168 q 572 239 556 208 l 572 388 q 538 440 561 418 q 483 473 515 461 q 411 485 450 485 q 331 463 368 485 q 272 404 294 442 q 250 318 250 367 q 272 231 250 269 q 331 169 294 192 q 411 147 368 147 m 940 874 l 840 913 q 890 993 871 940 q 900 1094 910 1046 l 1049 1104 q 1042 1018 1057 1065 q 1001 932 1028 971 q 940 874 974 893 l 940 874 z "},"\u0111":{"ha":867,"x_min":53,"x_max":878,"o":"m 347 -17 q 196 23 263 -17 q 91 138 129 63 q 53 315 53 213 q 94 490 53 418 q 208 600 136 563 q 372 638 281 638 q 484 619 431 638 q 574 564 538 601 l 574 503 l 574 1096 l 767 1096 l 767 0 l 572 0 l 572 118 l 588 76 q 482 10 540 38 q 347 -17 424 -17 m 411 147 q 480 158 450 147 q 533 188 510 168 q 572 239 556 208 l 572 388 q 538 440 561 418 q 483 473 515 461 q 411 485 450 485 q 331 463 368 485 q 272 404 294 442 q 250 318 250 367 q 272 231 250 269 q 331 169 294 192 q 411 147 368 147 m 440 976 l 878 976 l 878 796 l 440 796 l 440 976 z "},"\u01f3":{"ha":1592,"x_min":53,"x_max":1514,"o":"m 347 -17 q 196 23 263 -17 q 91 138 129 63 q 53 315 53 213 q 94 490 53 418 q 208 600 136 563 q 372 638 281 638 q 484 619 431 638 q 574 564 538 601 l 574 503 l 574 1096 l 767 1096 l 767 0 l 572 0 l 572 118 l 588 76 q 482 10 540 38 q 347 -17 424 -17 m 411 147 q 480 158 450 147 q 533 188 510 168 q 572 239 556 208 l 572 388 q 538 440 561 418 q 483 473 515 461 q 411 485 450 485 q 331 463 368 485 q 272 404 294 442 q 250 318 250 367 q 272 231 250 269 q 331 169 294 192 q 411 147 368 147 m 1061 449 q 974 485 1011 449 q 936 582 936 521 l 936 665 l 1082 665 l 1082 646 q 1092 612 1082 617 q 1129 607 1103 607 l 1514 607 l 1178 118 l 1142 158 l 1510 158 l 1510 0 l 894 0 l 1240 504 l 1269 449 l 1061 449 z "},"\u01c6":{"ha":1592,"x_min":53,"x_max":1514,"o":"m 347 -17 q 196 23 263 -17 q 91 138 129 63 q 53 315 53 213 q 94 490 53 418 q 208 600 136 563 q 372 638 281 638 q 484 619 431 638 q 574 564 538 601 l 574 503 l 574 1096 l 767 1096 l 767 0 l 572 0 l 572 118 l 588 76 q 482 10 540 38 q 347 -17 424 -17 m 411 147 q 480 158 450 147 q 533 188 510 168 q 572 239 556 208 l 572 388 q 538 440 561 418 q 483 473 515 461 q 411 485 450 485 q 331 463 368 485 q 272 404 294 442 q 250 318 250 367 q 272 231 250 269 q 331 169 294 192 q 411 147 368 147 z "},"e":{"ha":768,"x_min":53,"x_max":726,"o":"m 399 -17 q 210 25 288 -17 q 93 140 133 67 q 53 310 53 214 q 100 475 53 401 q 226 592 147 549 q 403 636 306 636 q 617 560 533 636 q 726 342 701 485 l 254 192 l 211 297 l 553 413 l 513 394 q 473 458 501 431 q 388 485 444 485 q 312 465 344 485 q 262 408 279 444 q 244 321 244 371 q 265 226 244 264 q 322 168 286 188 q 403 149 358 149 q 465 160 435 149 q 524 189 494 171 l 610 44 q 505 0 561 17 q 399 -17 449 -17 z "},"\xe9":{"ha":768,"x_min":53,"x_max":726,"o":"m 399 -17 q 210 25 288 -17 q 93 140 133 67 q 53 310 53 214 q 100 475 53 401 q 226 592 147 549 q 403 636 306 636 q 617 560 533 636 q 726 342 701 485 l 254 192 l 211 297 l 553 413 l 513 394 q 473 458 501 431 q 388 485 444 485 q 312 465 344 485 q 262 408 279 444 q 244 321 244 371 q 265 226 244 264 q 322 168 286 188 q 403 149 358 149 q 465 160 435 149 q 524 189 494 171 l 610 44 q 505 0 561 17 q 399 -17 449 -17 z "},"\u0115":{"ha":768,"x_min":53,"x_max":726,"o":"m 399 -17 q 210 25 288 -17 q 93 140 133 67 q 53 310 53 214 q 100 475 53 401 q 226 592 147 549 q 403 636 306 636 q 617 560 533 636 q 726 342 701 485 l 254 192 l 211 297 l 553 413 l 513 394 q 473 458 501 431 q 388 485 444 485 q 312 465 344 485 q 262 408 279 444 q 244 321 244 371 q 265 226 244 264 q 322 168 286 188 q 403 149 358 149 q 465 160 435 149 q 524 189 494 171 l 610 44 q 505 0 561 17 q 399 -17 449 -17 z "},"\u011b":{"ha":768,"x_min":53,"x_max":726,"o":"m 399 -17 q 210 25 288 -17 q 93 140 133 67 q 53 310 53 214 q 100 475 53 401 q 226 592 147 549 q 403 636 306 636 q 617 560 533 636 q 726 342 701 485 l 254 192 l 211 297 l 553 413 l 513 394 q 473 458 501 431 q 388 485 444 485 q 312 465 344 485 q 262 408 279 444 q 244 321 244 371 q 265 226 244 264 q 322 168 286 188 q 403 149 358 149 q 465 160 435 149 q 524 189 494 171 l 610 44 q 505 0 561 17 q 399 -17 449 -17 z "},"\xea":{"ha":768,"x_min":53,"x_max":726,"o":"m 399 -17 q 210 25 288 -17 q 93 140 133 67 q 53 310 53 214 q 100 475 53 401 q 226 592 147 549 q 403 636 306 636 q 617 560 533 636 q 726 342 701 485 l 254 192 l 211 297 l 553 413 l 513 394 q 473 458 501 431 q 388 485 444 485 q 312 465 344 485 q 262 408 279 444 q 244 321 244 371 q 265 226 244 264 q 322 168 286 188 q 403 149 358 149 q 465 160 435 149 q 524 189 494 171 l 610 44 q 505 0 561 17 q 399 -17 449 -17 z "},"\u1ebf":{"ha":768,"x_min":53,"x_max":851,"o":"m 399 -17 q 210 25 288 -17 q 93 140 133 67 q 53 310 53 214 q 100 475 53 401 q 226 592 147 549 q 403 636 306 636 q 617 560 533 636 q 726 342 701 485 l 254 192 l 211 297 l 553 413 l 513 394 q 473 458 501 431 q 388 485 444 485 q 312 465 344 485 q 262 408 279 444 q 244 321 244 371 q 265 226 244 264 q 322 168 286 188 q 403 149 358 149 q 465 160 435 149 q 524 189 494 171 l 610 44 q 505 0 561 17 q 399 -17 449 -17 z "},"\u1ec7":{"ha":768,"x_min":53,"x_max":726,"o":"m 399 -17 q 210 25 288 -17 q 93 140 133 67 q 53 310 53 214 q 100 475 53 401 q 226 592 147 549 q 403 636 306 636 q 617 560 533 636 q 726 342 701 485 l 254 192 l 211 297 l 553 413 l 513 394 q 473 458 501 431 q 388 485 444 485 q 312 465 344 485 q 262 408 279 444 q 244 321 244 371 q 265 226 244 264 q 322 168 286 188 q 403 149 358 149 q 465 160 435 149 q 524 189 494 171 l 610 44 q 505 0 561 17 q 399 -17 449 -17 m 297 -151 q 325 -94 297 -117 q 386 -71 353 -71 q 445 -94 418 -71 q 472 -151 472 -117 q 445 -210 472 -187 q 386 -232 418 -232 q 325 -210 353 -232 q 297 -151 297 -187 z "},"\u1ec1":{"ha":768,"x_min":-90,"x_max":726,"o":"m 399 -17 q 210 25 288 -17 q 93 140 133 67 q 53 310 53 214 q 100 475 53 401 q 226 592 147 549 q 403 636 306 636 q 617 560 533 636 q 726 342 701 485 l 254 192 l 211 297 l 553 413 l 513 394 q 473 458 501 431 q 388 485 444 485 q 312 465 344 485 q 262 408 279 444 q 244 321 244 371 q 265 226 244 264 q 322 168 286 188 q 403 149 358 149 q 465 160 435 149 q 524 189 494 171 l 610 44 q 505 0 561 17 q 399 -17 449 -17 z "},"\u1ec3":{"ha":768,"x_min":53,"x_max":826,"o":"m 399 -17 q 210 25 288 -17 q 93 140 133 67 q 53 310 53 214 q 100 475 53 401 q 226 592 147 549 q 403 636 306 636 q 617 560 533 636 q 726 342 701 485 l 254 192 l 211 297 l 553 413 l 513 394 q 473 458 501 431 q 388 485 444 485 q 312 465 344 485 q 262 408 279 444 q 244 321 244 371 q 265 226 244 264 q 322 168 286 188 q 403 149 358 149 q 465 160 435 149 q 524 189 494 171 l 610 44 q 505 0 561 17 q 399 -17 449 -17 z "},"\u1ec5":{"ha":768,"x_min":53,"x_max":726,"o":"m 399 -17 q 210 25 288 -17 q 93 140 133 67 q 53 310 53 214 q 100 475 53 401 q 226 592 147 549 q 403 636 306 636 q 617 560 533 636 q 726 342 701 485 l 254 192 l 211 297 l 553 413 l 513 394 q 473 458 501 431 q 388 485 444 485 q 312 465 344 485 q 262 408 279 444 q 244 321 244 371 q 265 226 244 264 q 322 168 286 188 q 403 149 358 149 q 465 160 435 149 q 524 189 494 171 l 610 44 q 505 0 561 17 q 399 -17 449 -17 z "},"\u0205":{"ha":768,"x_min":53,"x_max":726,"o":"m 399 -17 q 210 25 288 -17 q 93 140 133 67 q 53 310 53 214 q 100 475 53 401 q 226 592 147 549 q 403 636 306 636 q 617 560 533 636 q 726 342 701 485 l 254 192 l 211 297 l 553 413 l 513 394 q 473 458 501 431 q 388 485 444 485 q 312 465 344 485 q 262 408 279 444 q 244 321 244 371 q 265 226 244 264 q 322 168 286 188 q 403 149 358 149 q 465 160 435 149 q 524 189 494 171 l 610 44 q 505 0 561 17 q 399 -17 449 -17 z "},"\xeb":{"ha":768,"x_min":53,"x_max":726,"o":"m 399 -17 q 210 25 288 -17 q 93 140 133 67 q 53 310 53 214 q 100 475 53 401 q 226 592 147 549 q 403 636 306 636 q 617 560 533 636 q 726 342 701 485 l 254 192 l 211 297 l 553 413 l 513 394 q 473 458 501 431 q 388 485 444 485 q 312 465 344 485 q 262 408 279 444 q 244 321 244 371 q 265 226 244 264 q 322 168 286 188 q 403 149 358 149 q 465 160 435 149 q 524 189 494 171 l 610 44 q 505 0 561 17 q 399 -17 449 -17 z "},"\u0117":{"ha":768,"x_min":53,"x_max":726,"o":"m 399 -17 q 210 25 288 -17 q 93 140 133 67 q 53 310 53 214 q 100 475 53 401 q 226 592 147 549 q 403 636 306 636 q 617 560 533 636 q 726 342 701 485 l 254 192 l 211 297 l 553 413 l 513 394 q 473 458 501 431 q 388 485 444 485 q 312 465 344 485 q 262 408 279 444 q 244 321 244 371 q 265 226 244 264 q 322 168 286 188 q 403 149 358 149 q 465 160 435 149 q 524 189 494 171 l 610 44 q 505 0 561 17 q 399 -17 449 -17 z "},"\u1eb9":{"ha":768,"x_min":53,"x_max":726,"o":"m 399 -17 q 210 25 288 -17 q 93 140 133 67 q 53 310 53 214 q 100 475 53 401 q 226 592 147 549 q 403 636 306 636 q 617 560 533 636 q 726 342 701 485 l 254 192 l 211 297 l 553 413 l 513 394 q 473 458 501 431 q 388 485 444 485 q 312 465 344 485 q 262 408 279 444 q 244 321 244 371 q 265 226 244 264 q 322 168 286 188 q 403 149 358 149 q 465 160 435 149 q 524 189 494 171 l 610 44 q 505 0 561 17 q 399 -17 449 -17 m 297 -151 q 325 -94 297 -117 q 386 -71 353 -71 q 445 -94 418 -71 q 472 -151 472 -117 q 445 -210 472 -187 q 386 -232 418 -232 q 325 -210 353 -232 q 297 -151 297 -187 z "},"\xe8":{"ha":768,"x_min":53,"x_max":726,"o":"m 399 -17 q 210 25 288 -17 q 93 140 133 67 q 53 310 53 214 q 100 475 53 401 q 226 592 147 549 q 403 636 306 636 q 617 560 533 636 q 726 342 701 485 l 254 192 l 211 297 l 553 413 l 513 394 q 473 458 501 431 q 388 485 444 485 q 312 465 344 485 q 262 408 279 444 q 244 321 244 371 q 265 226 244 264 q 322 168 286 188 q 403 149 358 149 q 465 160 435 149 q 524 189 494 171 l 610 44 q 505 0 561 17 q 399 -17 449 -17 z "},"\u1ebb":{"ha":768,"x_min":53,"x_max":726,"o":"m 399 -17 q 210 25 288 -17 q 93 140 133 67 q 53 310 53 214 q 100 475 53 401 q 226 592 147 549 q 403 636 306 636 q 617 560 533 636 q 726 342 701 485 l 254 192 l 211 297 l 553 413 l 513 394 q 473 458 501 431 q 388 485 444 485 q 312 465 344 485 q 262 408 279 444 q 244 321 244 371 q 265 226 244 264 q 322 168 286 188 q 403 149 358 149 q 465 160 435 149 q 524 189 494 171 l 610 44 q 505 0 561 17 q 399 -17 449 -17 m 363 751 q 401 785 386 768 q 417 825 417 801 q 408 858 417 844 q 376 871 399 871 q 344 860 358 871 q 322 833 329 849 l 253 875 q 318 951 276 926 q 403 975 360 975 q 474 956 447 975 q 512 909 500 938 q 524 853 524 881 q 488 763 524 799 q 403 700 451 726 l 363 751 z "},"\u0207":{"ha":768,"x_min":53,"x_max":726,"o":"m 399 -17 q 210 25 288 -17 q 93 140 133 67 q 53 310 53 214 q 100 475 53 401 q 226 592 147 549 q 403 636 306 636 q 617 560 533 636 q 726 342 701 485 l 254 192 l 211 297 l 553 413 l 513 394 q 473 458 501 431 q 388 485 444 485 q 312 465 344 485 q 262 408 279 444 q 244 321 244 371 q 265 226 244 264 q 322 168 286 188 q 403 149 358 149 q 465 160 435 149 q 524 189 494 171 l 610 44 q 505 0 561 17 q 399 -17 449 -17 m 408 942 q 520 913 474 942 q 597 827 567 885 q 642 682 626 769 l 513 682 q 492 751 504 722 q 461 797 481 781 q 408 813 442 813 q 356 797 376 813 q 325 751 336 781 q 306 682 314 722 l 176 682 q 222 830 192 772 q 298 915 251 888 q 408 942 344 942 z "},"\u0113":{"ha":768,"x_min":53,"x_max":726,"o":"m 399 -17 q 210 25 288 -17 q 93 140 133 67 q 53 310 53 214 q 100 475 53 401 q 226 592 147 549 q 403 636 306 636 q 617 560 533 636 q 726 342 701 485 l 254 192 l 211 297 l 553 413 l 513 394 q 473 458 501 431 q 388 485 444 485 q 312 465 344 485 q 262 408 279 444 q 244 321 244 371 q 265 226 244 264 q 322 168 286 188 q 403 149 358 149 q 465 160 435 149 q 524 189 494 171 l 610 44 q 505 0 561 17 q 399 -17 449 -17 z "},"\u0119":{"ha":774,"x_min":58,"x_max":732,"o":"m 447 -322 q 294 -273 350 -322 q 238 -143 238 -224 q 268 -53 238 -97 q 356 14 299 -8 l 561 44 q 517 14 549 28 q 454 -8 486 0 q 404 -17 422 -17 q 216 25 293 -17 q 99 140 139 67 q 58 310 58 214 q 106 475 58 401 q 232 592 153 549 q 408 636 311 636 q 623 560 539 636 q 732 342 707 485 l 260 192 l 217 297 l 558 413 l 518 394 q 478 458 507 431 q 393 485 450 485 q 317 465 350 485 q 267 408 285 444 q 250 321 250 371 q 271 226 250 264 q 328 168 292 188 q 408 149 364 149 q 470 160 440 149 q 529 189 500 171 l 615 44 q 539 9 578 24 q 468 -21 500 -6 q 417 -58 436 -36 q 397 -112 397 -79 q 419 -167 397 -147 q 465 -186 442 -186 q 518 -169 493 -186 q 565 -118 543 -153 l 635 -218 q 550 -293 604 -264 q 447 -322 496 -322 z "},"\u1ebd":{"ha":768,"x_min":53,"x_max":726,"o":"m 399 -17 q 210 25 288 -17 q 93 140 133 67 q 53 310 53 214 q 100 475 53 401 q 226 592 147 549 q 403 636 306 636 q 617 560 533 636 q 726 342 701 485 l 254 192 l 211 297 l 553 413 l 513 394 q 473 458 501 431 q 388 485 444 485 q 312 465 344 485 q 262 408 279 444 q 244 321 244 371 q 265 226 244 264 q 322 168 286 188 q 403 149 358 149 q 465 160 435 149 q 524 189 494 171 l 610 44 q 505 0 561 17 q 399 -17 449 -17 m 513 676 q 433 697 465 676 q 375 738 401 717 q 345 760 360 750 q 314 769 331 769 q 285 756 296 769 q 272 721 275 742 q 272 679 269 700 l 175 679 q 184 782 168 733 q 235 861 200 831 q 325 892 271 892 q 388 872 360 892 q 439 833 415 853 q 475 804 458 817 q 508 792 492 792 q 540 823 535 792 q 543 888 544 854 l 640 888 q 635 780 650 828 q 587 704 619 732 q 513 676 554 676 z "},"\u0259":{"ha":768,"x_min":42,"x_max":715,"o":"m 369 624 q 558 582 481 624 q 675 467 635 540 q 715 297 715 393 q 668 133 715 207 q 542 15 621 58 q 365 -29 463 -29 q 151 47 235 -29 q 42 265 67 122 l 514 415 l 557 310 l 215 194 l 256 213 q 295 150 267 178 q 381 122 324 122 q 457 142 425 122 q 506 199 489 163 q 524 286 524 236 q 503 381 524 343 q 446 439 482 419 q 365 458 410 458 q 303 448 333 458 q 244 418 274 438 l 158 563 q 263 607 207 590 q 369 624 319 624 z "},"f":{"ha":604,"x_min":56,"x_max":597,"o":"m 158 0 l 158 438 l 56 438 l 56 610 l 158 610 l 158 821 q 227 1016 158 940 q 426 1092 296 1092 q 513 1080 465 1092 q 597 1042 561 1068 l 515 901 q 483 926 501 919 q 447 932 464 932 q 379 904 406 932 q 353 815 353 876 l 353 610 l 536 610 l 536 438 l 353 438 l 353 0 l 158 0 z "},"g":{"ha":879,"x_min":53,"x_max":779,"o":"m 414 -306 q 276 -286 332 -306 q 181 -239 219 -267 q 111 -186 142 -211 l 225 -53 q 299 -109 257 -82 q 411 -136 342 -136 q 497 -120 457 -136 q 560 -74 536 -104 q 585 3 585 -43 l 585 136 l 592 101 q 511 19 569 54 q 358 -17 453 -17 q 206 26 276 -17 q 94 141 136 68 q 53 307 53 214 q 97 477 53 403 q 213 594 142 551 q 363 638 283 638 q 499 615 442 638 q 586 558 557 592 l 579 540 l 600 607 l 779 607 l 779 0 q 729 -158 779 -89 q 597 -266 679 -226 q 414 -306 514 -306 m 249 313 q 271 225 249 264 q 331 164 293 186 q 417 142 369 142 q 488 152 457 142 q 544 183 519 163 q 585 233 568 203 l 585 382 q 547 434 572 413 q 490 467 522 456 q 417 479 457 479 q 331 458 369 479 q 271 399 293 436 q 249 313 249 361 z "},"\u011f":{"ha":879,"x_min":53,"x_max":779,"o":"m 414 -306 q 276 -286 332 -306 q 181 -239 219 -267 q 111 -186 142 -211 l 225 -53 q 299 -109 257 -82 q 411 -136 342 -136 q 497 -120 457 -136 q 560 -74 536 -104 q 585 3 585 -43 l 585 136 l 592 101 q 511 19 569 54 q 358 -17 453 -17 q 206 26 276 -17 q 94 141 136 68 q 53 307 53 214 q 97 477 53 403 q 213 594 142 551 q 363 638 283 638 q 499 615 442 638 q 586 558 557 592 l 579 540 l 600 607 l 779 607 l 779 0 q 729 -158 779 -89 q 597 -266 679 -226 q 414 -306 514 -306 m 249 313 q 271 225 249 264 q 331 164 293 186 q 417 142 369 142 q 488 152 457 142 q 544 183 519 163 q 585 233 568 203 l 585 382 q 547 434 572 413 q 490 467 522 456 q 417 479 457 479 q 331 458 369 479 q 271 399 293 436 q 249 313 249 361 z "},"\u01e7":{"ha":879,"x_min":53,"x_max":779,"o":"m 414 -306 q 276 -286 332 -306 q 181 -239 219 -267 q 111 -186 142 -211 l 225 -53 q 299 -109 257 -82 q 411 -136 342 -136 q 497 -120 457 -136 q 560 -74 536 -104 q 585 3 585 -43 l 585 136 l 592 101 q 511 19 569 54 q 358 -17 453 -17 q 206 26 276 -17 q 94 141 136 68 q 53 307 53 214 q 97 477 53 403 q 213 594 142 551 q 363 638 283 638 q 499 615 442 638 q 586 558 557 592 l 579 540 l 600 607 l 779 607 l 779 0 q 729 -158 779 -89 q 597 -266 679 -226 q 414 -306 514 -306 m 249 313 q 271 225 249 264 q 331 164 293 186 q 417 142 369 142 q 488 152 457 142 q 544 183 519 163 q 585 233 568 203 l 585 382 q 547 434 572 413 q 490 467 522 456 q 417 479 457 479 q 331 458 369 479 q 271 399 293 436 q 249 313 249 361 z "},"\u011d":{"ha":879,"x_min":53,"x_max":779,"o":"m 414 -306 q 276 -286 332 -306 q 181 -239 219 -267 q 111 -186 142 -211 l 225 -53 q 299 -109 257 -82 q 411 -136 342 -136 q 497 -120 457 -136 q 560 -74 536 -104 q 585 3 585 -43 l 585 136 l 592 101 q 511 19 569 54 q 358 -17 453 -17 q 206 26 276 -17 q 94 141 136 68 q 53 307 53 214 q 97 477 53 403 q 213 594 142 551 q 363 638 283 638 q 499 615 442 638 q 586 558 557 592 l 579 540 l 600 607 l 779 607 l 779 0 q 729 -158 779 -89 q 597 -266 679 -226 q 414 -306 514 -306 m 249 313 q 271 225 249 264 q 331 164 293 186 q 417 142 369 142 q 488 152 457 142 q 544 183 519 163 q 585 233 568 203 l 585 382 q 547 434 572 413 q 490 467 522 456 q 417 479 457 479 q 331 458 369 479 q 271 399 293 436 q 249 313 249 361 z "},"\u0123":{"ha":831,"x_min":53,"x_max":779,"o":"m 313 704 q 374 851 344 778 q 435 996 404 924 l 590 996 q 535 851 563 924 q 481 704 508 778 l 313 704 m 414 -306 q 276 -286 332 -306 q 181 -239 219 -267 q 111 -186 142 -211 l 225 -53 q 299 -109 257 -82 q 411 -136 342 -136 q 497 -120 457 -136 q 560 -74 536 -104 q 585 3 585 -43 l 585 136 l 592 101 q 511 19 569 54 q 358 -17 453 -17 q 206 26 276 -17 q 94 141 136 68 q 53 307 53 214 q 97 477 53 403 q 213 594 142 551 q 363 638 283 638 q 499 615 442 638 q 586 558 557 592 l 579 540 l 600 607 l 779 607 l 779 0 q 729 -158 779 -89 q 597 -266 679 -226 q 414 -306 514 -306 m 249 313 q 271 225 249 264 q 331 164 293 186 q 417 142 369 142 q 488 152 457 142 q 544 183 519 163 q 585 233 568 203 l 585 382 q 547 434 572 413 q 490 467 522 456 q 417 479 457 479 q 331 458 369 479 q 271 399 293 436 q 249 313 249 361 z "},"\u0121":{"ha":879,"x_min":53,"x_max":779,"o":"m 414 -306 q 276 -286 332 -306 q 181 -239 219 -267 q 111 -186 142 -211 l 225 -53 q 299 -109 257 -82 q 411 -136 342 -136 q 497 -120 457 -136 q 560 -74 536 -104 q 585 3 585 -43 l 585 136 l 592 101 q 511 19 569 54 q 358 -17 453 -17 q 206 26 276 -17 q 94 141 136 68 q 53 307 53 214 q 97 477 53 403 q 213 594 142 551 q 363 638 283 638 q 499 615 442 638 q 586 558 557 592 l 579 540 l 600 607 l 779 607 l 779 0 q 729 -158 779 -89 q 597 -266 679 -226 q 414 -306 514 -306 m 249 313 q 271 225 249 264 q 331 164 293 186 q 417 142 369 142 q 488 152 457 142 q 544 183 519 163 q 585 233 568 203 l 585 382 q 547 434 572 413 q 490 467 522 456 q 417 479 457 479 q 331 458 369 479 q 271 399 293 436 q 249 313 249 361 z "},"h":{"ha":825,"x_min":100,"x_max":725,"o":"m 100 0 l 100 1096 l 290 1096 l 290 485 l 289 508 q 379 601 321 565 q 522 636 438 636 q 666 585 608 636 q 725 454 724 535 l 725 0 l 531 0 l 531 382 q 509 447 529 422 q 442 471 489 471 q 364 442 397 471 q 313 363 331 413 q 294 247 294 313 l 294 0 l 100 0 z "},"\u0127":{"ha":825,"x_min":-8,"x_max":725,"o":"m 100 0 l 100 1096 l 290 1096 l 290 485 l 289 508 q 379 601 321 565 q 522 636 438 636 q 666 585 608 636 q 725 454 724 535 l 725 0 l 531 0 l 531 382 q 509 447 529 422 q 442 471 489 471 q 364 442 397 471 q 313 363 331 413 q 294 247 294 313 l 294 0 l 100 0 m -8 953 l 429 953 l 429 772 l -8 772 l -8 953 z "},"\u0125":{"ha":825,"x_min":-76,"x_max":725,"o":"m 100 0 l 100 1096 l 290 1096 l 290 485 l 289 508 q 379 601 321 565 q 522 636 438 636 q 666 585 608 636 q 725 454 724 535 l 725 0 l 531 0 l 531 382 q 509 447 529 422 q 442 471 489 471 q 364 442 397 471 q 313 363 331 413 q 294 247 294 313 l 294 0 l 100 0 z "},"i":{"ha":394,"x_min":96,"x_max":307,"o":"m 100 607 l 294 607 l 294 0 l 100 0 l 100 607 z "},"\u0131":{"ha":394,"x_min":100,"x_max":294,"o":"m 100 607 l 294 607 l 294 0 l 100 0 l 100 607 z "},"\xed":{"ha":394,"x_min":81,"x_max":404,"o":"m 100 607 l 294 607 l 294 0 l 100 0 l 100 607 z "},"\u012d":{"ha":394,"x_min":-28,"x_max":438,"o":"m 100 607 l 294 607 l 294 0 l 100 0 l 100 607 z "},"\xee":{"ha":394,"x_min":-62,"x_max":458,"o":"m 100 607 l 294 607 l 294 0 l 100 0 l 100 607 z "},"\u0209":{"ha":394,"x_min":-147,"x_max":390,"o":"m 100 607 l 294 607 l 294 0 l 100 0 l 100 607 z "},"\xef":{"ha":394,"x_min":-40,"x_max":435,"o":"m 100 607 l 294 607 l 294 0 l 100 0 l 100 607 z "},"\u1ecb":{"ha":394,"x_min":96,"x_max":307,"o":"m 100 607 l 294 607 l 294 0 l 100 0 l 100 607 m 110 -151 q 138 -94 110 -117 q 199 -71 165 -71 q 258 -94 231 -71 q 285 -151 285 -117 q 258 -210 285 -187 q 199 -232 231 -232 q 138 -210 165 -232 q 110 -151 110 -187 z "},"\xec":{"ha":394,"x_min":-44,"x_max":294,"o":"m 100 607 l 294 607 l 294 0 l 100 0 l 100 607 z "},"\u1ec9":{"ha":394,"x_min":50,"x_max":321,"o":"m 100 607 l 294 607 l 294 0 l 100 0 l 100 607 m 160 722 q 199 756 183 739 q 214 796 214 772 q 205 828 214 815 q 174 842 196 842 q 141 831 156 842 q 119 804 126 819 l 50 846 q 115 922 74 897 q 200 946 157 946 q 271 927 244 946 q 309 880 297 908 q 321 824 321 851 q 285 733 321 769 q 200 671 249 697 l 160 722 z "},"\u020b":{"ha":394,"x_min":-26,"x_max":439,"o":"m 100 607 l 294 607 l 294 0 l 100 0 l 100 607 m 206 913 q 317 884 271 913 q 394 798 364 856 q 439 653 424 740 l 310 653 q 290 722 301 693 q 258 767 278 751 q 206 783 239 783 q 153 767 174 783 q 122 722 133 751 q 103 653 111 693 l -26 653 q 19 801 -11 743 q 95 885 49 858 q 206 913 142 913 z "},"\u0133":{"ha":778,"x_min":96,"x_max":672,"o":"m 100 607 l 294 607 l 294 0 l 100 0 l 100 607 z "},"\u012b":{"ha":394,"x_min":24,"x_max":378,"o":"m 100 607 l 294 607 l 294 0 l 100 0 l 100 607 z "},"\u012f":{"ha":403,"x_min":-7,"x_max":383,"o":"m 196 -322 q 52 -273 111 -322 q -7 -143 -7 -224 q 24 -53 -7 -97 q 111 14 54 -8 l 261 14 l 297 0 q 192 -54 232 -26 q 153 -128 153 -82 q 172 -174 153 -162 q 214 -186 190 -186 q 267 -169 242 -186 q 314 -118 292 -153 l 383 -218 q 299 -293 353 -264 q 196 -322 244 -322 m 100 607 l 294 607 l 294 0 l 100 0 l 100 607 m 93 836 q 127 907 93 879 q 200 935 161 935 q 272 907 239 935 q 304 836 304 879 q 272 766 304 793 q 200 739 239 739 q 127 766 161 739 q 93 836 93 793 z "},"\u0129":{"ha":394,"x_min":-35,"x_max":447,"o":"m 100 607 l 294 607 l 294 0 l 100 0 l 100 607 m 310 647 q 231 667 263 647 q 172 708 199 688 q 142 731 157 721 q 111 740 128 740 q 83 726 93 740 q 69 692 72 713 q 69 650 67 671 l -28 650 q -19 753 -35 704 q 33 832 -3 801 q 122 863 68 863 q 185 843 157 863 q 236 804 213 824 q 272 775 256 788 q 306 763 289 763 q 337 794 332 763 q 340 858 342 825 l 438 858 q 432 751 447 799 q 384 675 417 703 q 310 647 351 647 z "},"j":{"ha":410,"x_min":28,"x_max":319,"o":"m 140 -293 l 28 -172 q 92 -97 69 -142 q 115 11 115 -53 l 115 607 l 310 607 l 310 0 q 271 -180 310 -108 q 140 -293 232 -251 z "},"\u0237":{"ha":410,"x_min":28,"x_max":310,"o":"m 140 -293 l 28 -172 q 92 -97 69 -142 q 115 11 115 -53 l 115 607 l 310 607 l 310 0 q 271 -180 310 -108 q 140 -293 232 -251 z "},"\u0135":{"ha":410,"x_min":-50,"x_max":471,"o":"m 140 -293 l 28 -172 q 92 -97 69 -142 q 115 11 115 -53 l 115 607 l 310 607 l 310 0 q 271 -180 310 -108 q 140 -293 232 -251 z "},"k":{"ha":758,"x_min":100,"x_max":724,"o":"m 100 0 l 100 1096 l 294 1096 l 294 0 l 100 0 m 449 413 l 724 0 l 497 0 l 321 301 l 449 413 m 236 168 l 217 353 l 583 622 l 701 518 l 236 168 z "},"\u0137":{"ha":758,"x_min":100,"x_max":724,"o":"m 100 0 l 100 1096 l 294 1096 l 294 0 l 100 0 m 449 413 l 724 0 l 497 0 l 321 301 l 449 413 m 236 168 l 217 353 l 583 622 l 701 518 l 236 168 m 344 -297 l 244 -231 q 288 -145 275 -201 q 292 -40 301 -89 l 461 -42 q 456 -130 469 -81 q 415 -224 443 -179 q 344 -297 386 -269 z "},"\u0138":{"ha":781,"x_min":100,"x_max":732,"o":"m 282 161 l 253 332 l 499 607 l 732 607 l 282 161 m 294 0 l 100 0 l 100 607 l 294 607 l 294 0 m 458 353 l 726 0 l 503 0 l 308 269 l 458 353 z "},"l":{"ha":394,"x_min":100,"x_max":294,"o":"m 100 1096 l 294 1096 l 294 0 l 100 0 l 100 1096 z "},"\u013a":{"ha":394,"x_min":100,"x_max":456,"o":"m 100 1096 l 294 1096 l 294 0 l 100 0 l 100 1096 z "},"\u013e":{"ha":551,"x_min":100,"x_max":578,"o":"m 100 1096 l 294 1096 l 294 0 l 100 0 l 100 1096 m 461 860 l 361 899 q 411 979 392 926 q 421 1081 431 1032 l 569 1090 q 563 1004 578 1051 q 522 918 549 957 q 461 860 494 879 l 461 860 z "},"\u013c":{"ha":394,"x_min":64,"x_max":294,"o":"m 100 1096 l 294 1096 l 294 0 l 100 0 l 100 1096 m 164 -297 l 64 -231 q 108 -145 94 -201 q 111 -40 121 -89 l 281 -42 q 276 -130 289 -81 q 234 -224 263 -179 q 164 -297 206 -269 z "},"\u0140":{"ha":557,"x_min":100,"x_max":576,"o":"m 100 1096 l 294 1096 l 294 0 l 100 0 l 100 1096 z "},"\u01c9":{"ha":804,"x_min":100,"x_max":714,"o":"m 100 1096 l 294 1096 l 294 0 l 100 0 l 100 1096 m 535 -293 l 422 -172 q 487 -97 464 -142 q 510 11 510 -53 l 510 607 l 704 607 l 704 0 q 665 -180 704 -108 q 535 -293 626 -251 z "},"\u0142":{"ha":438,"x_min":21,"x_max":417,"o":"m 417 574 l 417 406 l 21 313 l 21 481 l 417 574 m 114 1096 l 308 1096 l 308 0 l 114 0 l 114 1096 z "},"m":{"ha":1199,"x_min":100,"x_max":1099,"o":"m 276 607 l 292 500 l 289 508 q 379 603 325 569 q 510 638 433 638 q 598 624 560 638 q 663 583 636 610 q 699 513 689 556 l 692 511 q 785 603 731 568 q 900 638 840 638 q 1044 587 990 638 q 1099 456 1097 536 l 1099 0 l 906 0 l 906 375 q 893 441 904 415 q 842 469 882 467 q 762 437 794 469 q 713 353 729 404 q 697 249 697 303 l 697 0 l 503 0 l 503 375 q 488 441 501 415 q 435 469 475 467 q 358 437 389 469 q 310 354 326 404 q 294 251 294 304 l 294 0 l 100 0 l 100 607 l 276 607 z "},"n":{"ha":825,"x_min":100,"x_max":725,"o":"m 276 607 l 292 499 l 289 508 q 379 601 321 565 q 522 636 438 636 q 666 585 608 636 q 725 454 724 535 l 725 0 l 531 0 l 531 382 q 509 447 529 422 q 442 471 489 471 q 364 442 397 471 q 313 363 331 413 q 294 247 294 313 l 294 0 l 100 0 l 100 607 l 276 607 z "},"\u0144":{"ha":825,"x_min":100,"x_max":725,"o":"m 276 607 l 292 499 l 289 508 q 379 601 321 565 q 522 636 438 636 q 666 585 608 636 q 725 454 724 535 l 725 0 l 531 0 l 531 382 q 509 447 529 422 q 442 471 489 471 q 364 442 397 471 q 313 363 331 413 q 294 247 294 313 l 294 0 l 100 0 l 100 607 l 276 607 z "},"\u0149":{"ha":861,"x_min":-83,"x_max":761,"o":"m 17 588 l -83 654 q -40 740 -53 683 q -36 844 -26 796 l 133 843 q 128 755 142 804 q 87 660 115 706 q 17 588 58 615 m 313 607 l 328 499 l 325 508 q 415 601 357 565 q 558 636 474 636 q 702 585 644 636 q 761 454 760 535 l 761 0 l 567 0 l 567 382 q 545 447 565 422 q 478 471 525 471 q 400 442 433 471 q 349 363 367 413 q 331 247 331 313 l 331 0 l 136 0 l 136 607 l 313 607 z "},"\u0148":{"ha":825,"x_min":100,"x_max":725,"o":"m 276 607 l 292 499 l 289 508 q 379 601 321 565 q 522 636 438 636 q 666 585 608 636 q 725 454 724 535 l 725 0 l 531 0 l 531 382 q 509 447 529 422 q 442 471 489 471 q 364 442 397 471 q 313 363 331 413 q 294 247 294 313 l 294 0 l 100 0 l 100 607 l 276 607 z "},"\u0146":{"ha":825,"x_min":100,"x_max":725,"o":"m 276 607 l 292 499 l 289 508 q 379 601 321 565 q 522 636 438 636 q 666 585 608 636 q 725 454 724 535 l 725 0 l 531 0 l 531 382 q 509 447 529 422 q 442 471 489 471 q 364 442 397 471 q 313 363 331 413 q 294 247 294 313 l 294 0 l 100 0 l 100 607 l 276 607 m 379 -297 l 279 -231 q 323 -145 310 -201 q 326 -40 336 -89 l 496 -42 q 491 -130 504 -81 q 449 -224 478 -179 q 379 -297 421 -269 z "},"\u014b":{"ha":825,"x_min":100,"x_max":725,"o":"m 725 10 q 684 -169 725 -90 q 556 -293 643 -247 l 444 -172 q 508 -97 486 -142 q 531 11 531 -53 l 531 382 q 509 447 529 422 q 442 471 489 471 q 364 442 397 471 q 313 363 331 413 q 294 247 294 313 l 294 0 l 100 0 l 100 607 l 276 607 l 290 508 q 380 601 322 565 q 522 636 438 636 q 666 585 608 636 q 725 454 724 535 l 725 10 z "},"\u0272":{"ha":825,"x_min":18,"x_max":725,"o":"m 129 -293 l 18 -172 q 82 -97 60 -142 q 104 11 104 -53 l 104 53 l 299 53 l 299 0 q 253 -174 299 -101 q 129 -293 207 -247 m 276 607 l 292 499 l 289 508 q 379 601 321 565 q 522 636 438 636 q 666 585 608 636 q 725 454 724 535 l 725 0 l 531 0 l 531 382 q 509 447 529 422 q 442 471 489 471 q 364 442 397 471 q 313 363 331 413 q 294 247 294 313 l 294 0 l 100 0 l 100 607 l 276 607 z "},"\u01cc":{"ha":1214,"x_min":100,"x_max":1108,"o":"m 276 607 l 292 499 l 289 508 q 379 601 321 565 q 522 636 438 636 q 666 585 608 636 q 725 454 724 535 l 725 0 l 531 0 l 531 382 q 509 447 529 422 q 442 471 489 471 q 364 442 397 471 q 313 363 331 413 q 294 247 294 313 l 294 0 l 100 0 l 100 607 l 276 607 m 929 -293 l 817 -172 q 881 -97 858 -142 q 904 11 904 -53 l 904 607 l 1099 607 l 1099 0 q 1060 -180 1099 -108 q 929 -293 1021 -251 z "},"\xf1":{"ha":825,"x_min":100,"x_max":725,"o":"m 276 607 l 292 499 l 289 508 q 379 601 321 565 q 522 636 438 636 q 666 585 608 636 q 725 454 724 535 l 725 0 l 531 0 l 531 382 q 509 447 529 422 q 442 471 489 471 q 364 442 397 471 q 313 363 331 413 q 294 247 294 313 l 294 0 l 100 0 l 100 607 l 276 607 m 522 661 q 443 681 475 661 q 385 722 411 701 q 355 744 369 735 q 324 754 340 754 q 295 740 306 754 q 282 706 285 726 q 282 664 279 685 l 185 664 q 194 767 178 718 q 245 846 210 815 q 335 876 281 876 q 397 857 369 876 q 449 818 425 838 q 485 789 468 801 q 518 776 501 776 q 549 808 544 776 q 553 872 554 839 l 650 872 q 644 765 660 813 q 597 689 629 717 q 522 661 564 661 z "},"o":{"ha":793,"x_min":53,"x_max":740,"o":"m 53 311 q 97 478 53 404 q 219 594 140 551 q 401 636 299 636 q 582 594 506 636 q 699 478 658 551 q 740 311 740 404 q 699 144 740 218 q 582 26 658 69 q 399 -17 506 -17 q 220 22 299 -17 q 97 135 142 61 q 53 311 53 208 m 249 310 q 268 224 249 263 q 321 164 288 186 q 396 142 354 142 q 475 164 442 142 q 526 224 508 186 q 544 310 544 263 q 526 396 544 358 q 475 456 508 433 q 396 478 442 478 q 321 456 354 478 q 268 396 288 433 q 249 310 249 358 z "},"\xf3":{"ha":793,"x_min":53,"x_max":740,"o":"m 53 311 q 97 478 53 404 q 219 594 140 551 q 401 636 299 636 q 582 594 506 636 q 699 478 658 551 q 740 311 740 404 q 699 144 740 218 q 582 26 658 69 q 399 -17 506 -17 q 220 22 299 -17 q 97 135 142 61 q 53 311 53 208 m 249 310 q 268 224 249 263 q 321 164 288 186 q 396 142 354 142 q 475 164 442 142 q 526 224 508 186 q 544 310 544 263 q 526 396 544 358 q 475 456 508 433 q 396 478 442 478 q 321 456 354 478 q 268 396 288 433 q 249 310 249 358 z "},"\u014f":{"ha":793,"x_min":53,"x_max":740,"o":"m 53 311 q 97 478 53 404 q 219 594 140 551 q 401 636 299 636 q 582 594 506 636 q 699 478 658 551 q 740 311 740 404 q 699 144 740 218 q 582 26 658 69 q 399 -17 506 -17 q 220 22 299 -17 q 97 135 142 61 q 53 311 53 208 m 249 310 q 268 224 249 263 q 321 164 288 186 q 396 142 354 142 q 475 164 442 142 q 526 224 508 186 q 544 310 544 263 q 526 396 544 358 q 475 456 508 433 q 396 478 442 478 q 321 456 354 478 q 268 396 288 433 q 249 310 249 358 z "},"\xf4":{"ha":793,"x_min":53,"x_max":740,"o":"m 53 311 q 97 478 53 404 q 219 594 140 551 q 401 636 299 636 q 582 594 506 636 q 699 478 658 551 q 740 311 740 404 q 699 144 740 218 q 582 26 658 69 q 399 -17 506 -17 q 220 22 299 -17 q 97 135 142 61 q 53 311 53 208 m 249 310 q 268 224 249 263 q 321 164 288 186 q 396 142 354 142 q 475 164 442 142 q 526 224 508 186 q 544 310 544 263 q 526 396 544 358 q 475 456 508 433 q 396 478 442 478 q 321 456 354 478 q 268 396 288 433 q 249 310 249 358 z "},"\u1ed1":{"ha":793,"x_min":53,"x_max":846,"o":"m 53 311 q 97 478 53 404 q 219 594 140 551 q 401 636 299 636 q 582 594 506 636 q 699 478 658 551 q 740 311 740 404 q 699 144 740 218 q 582 26 658 69 q 399 -17 506 -17 q 220 22 299 -17 q 97 135 142 61 q 53 311 53 208 m 249 310 q 268 224 249 263 q 321 164 288 186 q 396 142 354 142 q 475 164 442 142 q 526 224 508 186 q 544 310 544 263 q 526 396 544 358 q 475 456 508 433 q 396 478 442 478 q 321 456 354 478 q 268 396 288 433 q 249 310 249 358 z "},"\u1ed9":{"ha":793,"x_min":53,"x_max":740,"o":"m 53 311 q 97 478 53 404 q 219 594 140 551 q 401 636 299 636 q 582 594 506 636 q 699 478 658 551 q 740 311 740 404 q 699 144 740 218 q 582 26 658 69 q 399 -17 506 -17 q 220 22 299 -17 q 97 135 142 61 q 53 311 53 208 m 249 310 q 268 224 249 263 q 321 164 288 186 q 396 142 354 142 q 475 164 442 142 q 526 224 508 186 q 544 310 544 263 q 526 396 544 358 q 475 456 508 433 q 396 478 442 478 q 321 456 354 478 q 268 396 288 433 q 249 310 249 358 m 308 -151 q 336 -94 308 -117 q 397 -71 364 -71 q 456 -94 429 -71 q 483 -151 483 -117 q 456 -210 483 -187 q 397 -232 429 -232 q 336 -210 364 -232 q 308 -151 308 -187 z "},"\u1ed3":{"ha":793,"x_min":-96,"x_max":740,"o":"m 53 311 q 97 478 53 404 q 219 594 140 551 q 401 636 299 636 q 582 594 506 636 q 699 478 658 551 q 740 311 740 404 q 699 144 740 218 q 582 26 658 69 q 399 -17 506 -17 q 220 22 299 -17 q 97 135 142 61 q 53 311 53 208 m 249 310 q 268 224 249 263 q 321 164 288 186 q 396 142 354 142 q 475 164 442 142 q 526 224 508 186 q 544 310 544 263 q 526 396 544 358 q 475 456 508 433 q 396 478 442 478 q 321 456 354 478 q 268 396 288 433 q 249 310 249 358 z "},"\u1ed5":{"ha":793,"x_min":53,"x_max":821,"o":"m 53 311 q 97 478 53 404 q 219 594 140 551 q 401 636 299 636 q 582 594 506 636 q 699 478 658 551 q 740 311 740 404 q 699 144 740 218 q 582 26 658 69 q 399 -17 506 -17 q 220 22 299 -17 q 97 135 142 61 q 53 311 53 208 m 249 310 q 268 224 249 263 q 321 164 288 186 q 396 142 354 142 q 475 164 442 142 q 526 224 508 186 q 544 310 544 263 q 526 396 544 358 q 475 456 508 433 q 396 478 442 478 q 321 456 354 478 q 268 396 288 433 q 249 310 249 358 z "},"\u1ed7":{"ha":793,"x_min":53,"x_max":740,"o":"m 53 311 q 97 478 53 404 q 219 594 140 551 q 401 636 299 636 q 582 594 506 636 q 699 478 658 551 q 740 311 740 404 q 699 144 740 218 q 582 26 658 69 q 399 -17 506 -17 q 220 22 299 -17 q 97 135 142 61 q 53 311 53 208 m 249 310 q 268 224 249 263 q 321 164 288 186 q 396 142 354 142 q 475 164 442 142 q 526 224 508 186 q 544 310 544 263 q 526 396 544 358 q 475 456 508 433 q 396 478 442 478 q 321 456 354 478 q 268 396 288 433 q 249 310 249 358 z "},"\u020d":{"ha":793,"x_min":50,"x_max":740,"o":"m 53 311 q 97 478 53 404 q 219 594 140 551 q 401 636 299 636 q 582 594 506 636 q 699 478 658 551 q 740 311 740 404 q 699 144 740 218 q 582 26 658 69 q 399 -17 506 -17 q 220 22 299 -17 q 97 135 142 61 q 53 311 53 208 m 249 310 q 268 224 249 263 q 321 164 288 186 q 396 142 354 142 q 475 164 442 142 q 526 224 508 186 q 544 310 544 263 q 526 396 544 358 q 475 456 508 433 q 396 478 442 478 q 321 456 354 478 q 268 396 288 433 q 249 310 249 358 z "},"\xf6":{"ha":793,"x_min":53,"x_max":740,"o":"m 53 311 q 97 478 53 404 q 219 594 140 551 q 401 636 299 636 q 582 594 506 636 q 699 478 658 551 q 740 311 740 404 q 699 144 740 218 q 582 26 658 69 q 399 -17 506 -17 q 220 22 299 -17 q 97 135 142 61 q 53 311 53 208 m 249 310 q 268 224 249 263 q 321 164 288 186 q 396 142 354 142 q 475 164 442 142 q 526 224 508 186 q 544 310 544 263 q 526 396 544 358 q 475 456 508 433 q 396 478 442 478 q 321 456 354 478 q 268 396 288 433 q 249 310 249 358 z "},"\u022b":{"ha":793,"x_min":53,"x_max":740,"o":"m 53 311 q 97 478 53 404 q 219 594 140 551 q 401 636 299 636 q 582 594 506 636 q 699 478 658 551 q 740 311 740 404 q 699 144 740 218 q 582 26 658 69 q 399 -17 506 -17 q 220 22 299 -17 q 97 135 142 61 q 53 311 53 208 m 249 310 q 268 224 249 263 q 321 164 288 186 q 396 142 354 142 q 475 164 442 142 q 526 224 508 186 q 544 310 544 263 q 526 396 544 358 q 475 456 508 433 q 396 478 442 478 q 321 456 354 478 q 268 396 288 433 q 249 310 249 358 z "},"\u0231":{"ha":793,"x_min":53,"x_max":740,"o":"m 53 311 q 97 478 53 404 q 219 594 140 551 q 401 636 299 636 q 582 594 506 636 q 699 478 658 551 q 740 311 740 404 q 699 144 740 218 q 582 26 658 69 q 399 -17 506 -17 q 220 22 299 -17 q 97 135 142 61 q 53 311 53 208 m 249 310 q 268 224 249 263 q 321 164 288 186 q 396 142 354 142 q 475 164 442 142 q 526 224 508 186 q 544 310 544 263 q 526 396 544 358 q 475 456 508 433 q 396 478 442 478 q 321 456 354 478 q 268 396 288 433 q 249 310 249 358 z "},"\u1ecd":{"ha":793,"x_min":53,"x_max":740,"o":"m 53 311 q 97 478 53 404 q 219 594 140 551 q 401 636 299 636 q 582 594 506 636 q 699 478 658 551 q 740 311 740 404 q 699 144 740 218 q 582 26 658 69 q 399 -17 506 -17 q 220 22 299 -17 q 97 135 142 61 q 53 311 53 208 m 249 310 q 268 224 249 263 q 321 164 288 186 q 396 142 354 142 q 475 164 442 142 q 526 224 508 186 q 544 310 544 263 q 526 396 544 358 q 475 456 508 433 q 396 478 442 478 q 321 456 354 478 q 268 396 288 433 q 249 310 249 358 m 308 -151 q 336 -94 308 -117 q 397 -71 364 -71 q 456 -94 429 -71 q 483 -151 483 -117 q 456 -210 483 -187 q 397 -232 429 -232 q 336 -210 364 -232 q 308 -151 308 -187 z "},"\xf2":{"ha":793,"x_min":53,"x_max":740,"o":"m 53 311 q 97 478 53 404 q 219 594 140 551 q 401 636 299 636 q 582 594 506 636 q 699 478 658 551 q 740 311 740 404 q 699 144 740 218 q 582 26 658 69 q 399 -17 506 -17 q 220 22 299 -17 q 97 135 142 61 q 53 311 53 208 m 249 310 q 268 224 249 263 q 321 164 288 186 q 396 142 354 142 q 475 164 442 142 q 526 224 508 186 q 544 310 544 263 q 526 396 544 358 q 475 456 508 433 q 396 478 442 478 q 321 456 354 478 q 268 396 288 433 q 249 310 249 358 z "},"\u1ecf":{"ha":793,"x_min":53,"x_max":740,"o":"m 53 311 q 97 478 53 404 q 219 594 140 551 q 401 636 299 636 q 582 594 506 636 q 699 478 658 551 q 740 311 740 404 q 699 144 740 218 q 582 26 658 69 q 399 -17 506 -17 q 220 22 299 -17 q 97 135 142 61 q 53 311 53 208 m 249 310 q 268 224 249 263 q 321 164 288 186 q 396 142 354 142 q 475 164 442 142 q 526 224 508 186 q 544 310 544 263 q 526 396 544 358 q 475 456 508 433 q 396 478 442 478 q 321 456 354 478 q 268 396 288 433 q 249 310 249 358 m 357 750 q 396 783 381 767 q 411 824 411 800 q 402 856 411 843 q 371 869 393 869 q 338 858 353 869 q 317 832 324 847 l 247 874 q 313 949 271 925 q 397 974 354 974 q 468 955 442 974 q 506 908 494 936 q 518 851 518 879 q 482 761 518 797 q 397 699 446 725 l 357 750 z "},"\u01a1":{"ha":793,"x_min":53,"x_max":783,"o":"m 53 311 q 97 478 53 404 q 219 594 140 551 q 401 636 299 636 q 582 594 506 636 q 699 478 658 551 q 740 311 740 404 q 699 144 740 218 q 582 26 658 69 q 399 -17 506 -17 q 220 22 299 -17 q 97 135 142 61 q 53 311 53 208 m 249 310 q 268 224 249 263 q 321 164 288 186 q 396 142 354 142 q 475 164 442 142 q 526 224 508 186 q 544 310 544 263 q 526 396 544 358 q 475 456 508 433 q 396 478 442 478 q 321 456 354 478 q 268 396 288 433 q 249 310 249 358 m 522 607 q 599 637 571 607 q 640 726 628 667 l 783 726 q 731 585 768 636 q 641 513 694 533 q 522 492 588 492 l 522 607 z "},"\u1edb":{"ha":793,"x_min":53,"x_max":783,"o":"m 53 311 q 97 478 53 404 q 219 594 140 551 q 401 636 299 636 q 582 594 506 636 q 699 478 658 551 q 740 311 740 404 q 699 144 740 218 q 582 26 658 69 q 399 -17 506 -17 q 220 22 299 -17 q 97 135 142 61 q 53 311 53 208 m 249 310 q 268 224 249 263 q 321 164 288 186 q 396 142 354 142 q 475 164 442 142 q 526 224 508 186 q 544 310 544 263 q 526 396 544 358 q 475 456 508 433 q 396 478 442 478 q 321 456 354 478 q 268 396 288 433 q 249 310 249 358 m 522 607 q 599 637 571 607 q 640 726 628 667 l 783 726 q 731 585 768 636 q 641 513 694 533 q 522 492 588 492 l 522 607 z "},"\u1ee3":{"ha":793,"x_min":53,"x_max":783,"o":"m 53 311 q 97 478 53 404 q 219 594 140 551 q 401 636 299 636 q 582 594 506 636 q 699 478 658 551 q 740 311 740 404 q 699 144 740 218 q 582 26 658 69 q 399 -17 506 -17 q 220 22 299 -17 q 97 135 142 61 q 53 311 53 208 m 249 310 q 268 224 249 263 q 321 164 288 186 q 396 142 354 142 q 475 164 442 142 q 526 224 508 186 q 544 310 544 263 q 526 396 544 358 q 475 456 508 433 q 396 478 442 478 q 321 456 354 478 q 268 396 288 433 q 249 310 249 358 m 522 607 q 599 637 571 607 q 640 726 628 667 l 783 726 q 731 585 768 636 q 641 513 694 533 q 522 492 588 492 l 522 607 m 308 -151 q 336 -94 308 -117 q 397 -71 364 -71 q 456 -94 429 -71 q 483 -151 483 -117 q 456 -210 483 -187 q 397 -232 429 -232 q 336 -210 364 -232 q 308 -151 308 -187 z "},"\u1edd":{"ha":793,"x_min":53,"x_max":783,"o":"m 53 311 q 97 478 53 404 q 219 594 140 551 q 401 636 299 636 q 582 594 506 636 q 699 478 658 551 q 740 311 740 404 q 699 144 740 218 q 582 26 658 69 q 399 -17 506 -17 q 220 22 299 -17 q 97 135 142 61 q 53 311 53 208 m 249 310 q 268 224 249 263 q 321 164 288 186 q 396 142 354 142 q 475 164 442 142 q 526 224 508 186 q 544 310 544 263 q 526 396 544 358 q 475 456 508 433 q 396 478 442 478 q 321 456 354 478 q 268 396 288 433 q 249 310 249 358 m 522 607 q 599 637 571 607 q 640 726 628 667 l 783 726 q 731 585 768 636 q 641 513 694 533 q 522 492 588 492 l 522 607 z "},"\u1edf":{"ha":793,"x_min":53,"x_max":783,"o":"m 53 311 q 97 478 53 404 q 219 594 140 551 q 401 636 299 636 q 582 594 506 636 q 699 478 658 551 q 740 311 740 404 q 699 144 740 218 q 582 26 658 69 q 399 -17 506 -17 q 220 22 299 -17 q 97 135 142 61 q 53 311 53 208 m 249 310 q 268 224 249 263 q 321 164 288 186 q 396 142 354 142 q 475 164 442 142 q 526 224 508 186 q 544 310 544 263 q 526 396 544 358 q 475 456 508 433 q 396 478 442 478 q 321 456 354 478 q 268 396 288 433 q 249 310 249 358 m 522 607 q 599 637 571 607 q 640 726 628 667 l 783 726 q 731 585 768 636 q 641 513 694 533 q 522 492 588 492 l 522 607 m 357 750 q 396 783 381 767 q 411 824 411 800 q 402 856 411 843 q 371 869 393 869 q 338 858 353 869 q 317 832 324 847 l 247 874 q 313 949 271 925 q 397 974 354 974 q 468 955 442 974 q 506 908 494 936 q 518 851 518 879 q 482 761 518 797 q 397 699 446 725 l 357 750 z "},"\u1ee1":{"ha":793,"x_min":53,"x_max":783,"o":"m 447 690 q 382 707 408 690 q 335 740 356 724 q 309 758 321 750 q 285 767 297 767 q 260 755 268 767 q 249 726 251 743 q 249 692 247 708 l 169 692 q 176 776 164 736 q 219 842 189 817 q 293 867 249 867 q 344 851 321 867 q 388 818 367 836 q 417 795 403 806 q 444 785 431 785 q 470 810 465 785 q 472 864 475 836 l 553 864 q 549 775 561 814 q 509 713 536 736 q 447 690 482 690 m 53 311 q 97 478 53 404 q 219 594 140 551 q 401 636 299 636 q 582 594 506 636 q 699 478 658 551 q 740 311 740 404 q 699 144 740 218 q 582 26 658 69 q 399 -17 506 -17 q 220 22 299 -17 q 97 135 142 61 q 53 311 53 208 m 249 310 q 268 224 249 263 q 321 164 288 186 q 396 142 354 142 q 475 164 442 142 q 526 224 508 186 q 544 310 544 263 q 526 396 544 358 q 475 456 508 433 q 396 478 442 478 q 321 456 354 478 q 268 396 288 433 q 249 310 249 358 m 522 607 q 599 637 571 607 q 640 726 628 667 l 783 726 q 731 585 768 636 q 641 513 694 533 q 522 492 588 492 l 522 607 z "},"\u0151":{"ha":793,"x_min":53,"x_max":754,"o":"m 53 311 q 97 478 53 404 q 219 594 140 551 q 401 636 299 636 q 582 594 506 636 q 699 478 658 551 q 740 311 740 404 q 699 144 740 218 q 582 26 658 69 q 399 -17 506 -17 q 220 22 299 -17 q 97 135 142 61 q 53 311 53 208 m 249 310 q 268 224 249 263 q 321 164 288 186 q 396 142 354 142 q 475 164 442 142 q 526 224 508 186 q 544 310 544 263 q 526 396 544 358 q 475 456 508 433 q 396 478 442 478 q 321 456 354 478 q 268 396 288 433 q 249 310 249 358 z "},"\u020f":{"ha":793,"x_min":53,"x_max":740,"o":"m 53 311 q 97 478 53 404 q 219 594 140 551 q 401 636 299 636 q 582 594 506 636 q 699 478 658 551 q 740 311 740 404 q 699 144 740 218 q 582 26 658 69 q 399 -17 506 -17 q 220 22 299 -17 q 97 135 142 61 q 53 311 53 208 m 249 310 q 268 224 249 263 q 321 164 288 186 q 396 142 354 142 q 475 164 442 142 q 526 224 508 186 q 544 310 544 263 q 526 396 544 358 q 475 456 508 433 q 396 478 442 478 q 321 456 354 478 q 268 396 288 433 q 249 310 249 358 m 403 940 q 515 912 468 940 q 591 826 561 883 q 636 681 621 768 l 507 681 q 487 750 499 721 q 456 795 475 779 q 403 811 436 811 q 351 795 371 811 q 319 750 331 779 q 300 681 308 721 l 171 681 q 216 828 186 771 q 292 913 246 886 q 403 940 339 940 z "},"\u014d":{"ha":793,"x_min":53,"x_max":740,"o":"m 53 311 q 97 478 53 404 q 219 594 140 551 q 401 636 299 636 q 582 594 506 636 q 699 478 658 551 q 740 311 740 404 q 699 144 740 218 q 582 26 658 69 q 399 -17 506 -17 q 220 22 299 -17 q 97 135 142 61 q 53 311 53 208 m 249 310 q 268 224 249 263 q 321 164 288 186 q 396 142 354 142 q 475 164 442 142 q 526 224 508 186 q 544 310 544 263 q 526 396 544 358 q 475 456 508 433 q 396 478 442 478 q 321 456 354 478 q 268 396 288 433 q 249 310 249 358 z "},"\u01eb":{"ha":804,"x_min":58,"x_max":746,"o":"m 485 -322 q 392 -303 435 -322 q 322 -244 349 -283 q 296 -143 296 -204 q 326 -53 296 -97 q 414 14 357 -8 l 461 3 q 435 -9 456 -1 q 404 -17 414 -17 q 226 22 304 -17 q 103 135 147 61 q 58 311 58 208 q 102 477 58 404 q 225 593 146 550 q 407 636 304 636 q 588 594 511 636 q 705 478 664 551 q 746 311 746 404 q 696 133 746 211 q 564 1 646 54 q 485 -56 515 -29 q 456 -128 456 -82 q 474 -172 456 -157 q 517 -186 493 -186 q 569 -169 544 -186 q 617 -118 594 -153 l 686 -218 q 599 -293 656 -264 q 485 -322 543 -322 m 401 142 q 481 164 447 142 q 532 224 514 186 q 550 310 550 263 q 532 396 550 358 q 481 456 514 433 q 401 478 447 478 q 326 456 360 478 q 274 396 293 433 q 254 310 254 358 q 274 224 254 263 q 326 164 293 186 q 401 142 360 142 z "},"\xf8":{"ha":758,"x_min":53,"x_max":740,"o":"m 719 592 l 151 -51 l 58 33 l 622 672 l 719 592 m 53 311 q 97 478 53 404 q 219 594 140 551 q 401 636 299 636 q 582 594 506 636 q 699 478 658 551 q 740 311 740 404 q 699 144 740 218 q 582 26 658 69 q 399 -17 506 -17 q 220 22 299 -17 q 97 135 142 61 q 53 311 53 208 m 249 310 q 268 224 249 263 q 321 164 288 186 q 396 142 354 142 q 475 164 442 142 q 526 224 508 186 q 544 310 544 263 q 526 396 544 358 q 475 456 508 433 q 396 478 442 478 q 321 456 354 478 q 268 396 288 433 q 249 310 249 358 z "},"\u01ff":{"ha":758,"x_min":53,"x_max":740,"o":"m 719 592 l 151 -51 l 58 33 l 622 672 l 719 592 m 53 311 q 97 478 53 404 q 219 594 140 551 q 401 636 299 636 q 582 594 506 636 q 699 478 658 551 q 740 311 740 404 q 699 144 740 218 q 582 26 658 69 q 399 -17 506 -17 q 220 22 299 -17 q 97 135 142 61 q 53 311 53 208 m 249 310 q 268 224 249 263 q 321 164 288 186 q 396 142 354 142 q 475 164 442 142 q 526 224 508 186 q 544 310 544 263 q 526 396 544 358 q 475 456 508 433 q 396 478 442 478 q 321 456 354 478 q 268 396 288 433 q 249 310 249 358 z "},"\xf5":{"ha":793,"x_min":53,"x_max":740,"o":"m 53 311 q 97 478 53 404 q 219 594 140 551 q 401 636 299 636 q 582 594 506 636 q 699 478 658 551 q 740 311 740 404 q 699 144 740 218 q 582 26 658 69 q 399 -17 506 -17 q 220 22 299 -17 q 97 135 142 61 q 53 311 53 208 m 249 310 q 268 224 249 263 q 321 164 288 186 q 396 142 354 142 q 475 164 442 142 q 526 224 508 186 q 544 310 544 263 q 526 396 544 358 q 475 456 508 433 q 396 478 442 478 q 321 456 354 478 q 268 396 288 433 q 249 310 249 358 m 507 675 q 428 695 460 675 q 369 736 396 715 q 340 758 354 749 q 308 768 325 768 q 280 754 290 768 q 267 719 269 740 q 267 678 264 699 l 169 678 q 178 781 163 732 q 230 860 194 829 q 319 890 265 890 q 382 871 354 890 q 433 832 410 851 q 469 803 453 815 q 503 790 486 790 q 534 822 529 790 q 538 886 539 853 l 635 886 q 629 778 644 826 q 581 703 614 731 q 507 675 549 675 z "},"\u022d":{"ha":793,"x_min":53,"x_max":740,"o":"m 53 311 q 97 478 53 404 q 219 594 140 551 q 401 636 299 636 q 582 594 506 636 q 699 478 658 551 q 740 311 740 404 q 699 144 740 218 q 582 26 658 69 q 399 -17 506 -17 q 220 22 299 -17 q 97 135 142 61 q 53 311 53 208 m 249 310 q 268 224 249 263 q 321 164 288 186 q 396 142 354 142 q 475 164 442 142 q 526 224 508 186 q 544 310 544 263 q 526 396 544 358 q 475 456 508 433 q 396 478 442 478 q 321 456 354 478 q 268 396 288 433 q 249 310 249 358 m 507 675 q 428 695 460 675 q 369 736 396 715 q 340 758 354 749 q 308 768 325 768 q 280 754 290 768 q 267 719 269 740 q 267 678 264 699 l 169 678 q 178 781 163 732 q 230 860 194 829 q 319 890 265 890 q 382 871 354 890 q 433 832 410 851 q 469 803 453 815 q 503 790 486 790 q 534 822 529 790 q 538 886 539 853 l 635 886 q 629 778 644 826 q 581 703 614 731 q 507 675 549 675 z "},"\u0153":{"ha":1188,"x_min":53,"x_max":1146,"o":"m 615 54 q 515 3 575 22 q 396 -17 454 -17 q 215 22 292 -17 q 95 131 138 60 q 53 304 53 203 q 99 477 53 406 q 219 586 144 549 q 375 624 293 624 q 517 601 457 624 q 621 543 578 579 l 526 418 q 473 449 507 433 q 393 465 439 465 q 319 444 353 465 q 267 388 286 424 q 247 304 247 351 q 268 222 247 260 q 326 163 289 185 q 413 142 363 142 q 472 151 444 142 q 518 176 499 160 l 615 54 m 818 -17 q 630 25 707 -17 q 513 140 553 67 q 472 310 472 214 q 519 475 472 401 q 646 592 567 549 q 822 636 725 636 q 1037 560 953 636 q 1146 342 1121 485 l 674 192 l 631 297 l 972 413 l 932 394 q 892 458 921 431 q 807 485 864 485 q 731 465 764 485 q 681 408 699 444 q 664 321 664 371 q 685 226 664 264 q 742 168 706 188 q 822 149 778 149 q 884 160 854 149 q 943 189 914 171 l 1029 44 q 924 0 981 17 q 818 -17 868 -17 z "},"p":{"ha":867,"x_min":100,"x_max":814,"o":"m 481 -17 q 374 3 426 -17 q 288 61 322 24 l 293 118 l 293 -292 l 100 -292 l 100 621 l 267 621 l 294 503 l 279 544 q 385 611 326 585 q 519 638 443 638 q 671 598 604 638 q 776 484 738 558 q 814 306 814 410 q 771 131 814 203 q 653 21 728 58 q 481 -17 578 -17 m 442 136 q 528 157 489 136 q 592 216 568 178 q 617 303 617 254 q 595 392 617 354 q 537 452 574 431 q 456 474 500 474 q 387 463 417 474 q 334 433 357 453 q 294 382 311 413 l 294 233 q 326 182 306 204 q 377 148 347 160 q 442 136 407 136 z "},"\xfe":{"ha":868,"x_min":104,"x_max":818,"o":"m 485 -17 q 415 -8 449 -17 q 351 16 381 0 q 297 57 321 32 l 297 118 l 297 -292 l 104 -292 l 104 1096 l 299 1096 l 299 503 l 283 544 q 351 592 315 571 q 431 625 388 613 q 524 638 474 638 q 675 598 608 638 q 780 484 742 558 q 818 306 818 410 q 775 131 818 203 q 657 21 732 58 q 485 -17 582 -17 m 446 136 q 533 158 493 136 q 597 217 572 179 q 621 303 621 254 q 599 390 621 351 q 540 451 576 429 q 460 474 503 474 q 391 463 421 474 q 338 433 361 453 q 299 382 315 413 l 299 233 q 331 182 310 204 q 381 148 351 160 q 446 136 411 136 z "},"q":{"ha":867,"x_min":53,"x_max":767,"o":"m 342 -17 q 198 21 264 -17 q 92 130 132 58 q 53 304 53 201 q 97 483 53 408 q 213 597 142 557 q 368 638 285 638 q 497 612 446 638 q 588 544 549 586 l 572 503 l 572 621 l 767 621 l 767 -292 l 574 -292 l 574 118 l 576 56 q 480 4 540 25 q 342 -17 419 -17 m 411 136 q 483 148 450 136 q 538 182 515 160 q 572 233 561 204 l 572 382 q 533 433 556 413 q 480 463 510 453 q 411 474 450 474 q 331 451 368 474 q 272 390 294 429 q 250 303 250 351 q 272 217 250 254 q 331 158 294 179 q 411 136 368 136 z "},"r":{"ha":569,"x_min":100,"x_max":521,"o":"m 275 607 l 293 440 l 289 465 q 361 558 315 519 q 452 617 407 596 q 521 638 497 638 l 511 443 q 394 421 443 451 q 319 340 346 390 q 293 238 293 290 l 293 0 l 100 0 l 100 607 l 275 607 z "},"\u0155":{"ha":569,"x_min":100,"x_max":521,"o":"m 275 607 l 293 440 l 289 465 q 361 558 315 519 q 452 617 407 596 q 521 638 497 638 l 511 443 q 394 421 443 451 q 319 340 346 390 q 293 238 293 290 l 293 0 l 100 0 l 100 607 l 275 607 z "},"\u0159":{"ha":569,"x_min":24,"x_max":544,"o":"m 275 607 l 293 440 l 289 465 q 361 558 315 519 q 452 617 407 596 q 521 638 497 638 l 511 443 q 394 421 443 451 q 319 340 346 390 q 293 238 293 290 l 293 0 l 100 0 l 100 607 l 275 607 z "},"\u0157":{"ha":569,"x_min":43,"x_max":521,"o":"m 275 607 l 293 440 l 289 465 q 361 558 315 519 q 452 617 407 596 q 521 638 497 638 l 511 443 q 394 421 443 451 q 319 340 346 390 q 293 238 293 290 l 293 0 l 100 0 l 100 607 l 275 607 m 143 -297 l 43 -231 q 87 -145 74 -201 q 90 -40 100 -89 l 260 -42 q 255 -130 268 -81 q 213 -224 242 -179 q 143 -297 185 -269 z "},"\u0211":{"ha":569,"x_min":-78,"x_max":521,"o":"m 275 607 l 293 440 l 289 465 q 361 558 315 519 q 452 617 407 596 q 521 638 497 638 l 511 443 q 394 421 443 451 q 319 340 346 390 q 293 238 293 290 l 293 0 l 100 0 l 100 607 l 275 607 z "},"\u0213":{"ha":569,"x_min":43,"x_max":521,"o":"m 275 607 l 293 440 l 289 465 q 361 558 315 519 q 452 617 407 596 q 521 638 497 638 l 511 443 q 394 421 443 451 q 319 340 346 390 q 293 238 293 290 l 293 0 l 100 0 l 100 607 l 275 607 m 275 913 q 387 884 340 913 q 463 798 433 856 q 508 653 493 740 l 379 653 q 359 722 371 693 q 328 767 347 751 q 275 783 308 783 q 223 767 243 783 q 192 722 203 751 q 172 653 181 693 l 43 653 q 88 801 58 743 q 165 885 118 858 q 275 913 211 913 z "},"s":{"ha":621,"x_min":49,"x_max":558,"o":"m 297 -12 q 158 14 222 -12 q 49 88 93 40 l 129 194 q 212 137 174 154 q 281 119 250 119 q 323 124 304 119 q 353 140 342 129 q 364 167 364 150 q 345 204 364 190 q 297 227 326 218 q 235 246 268 236 q 115 323 151 272 q 78 433 78 374 q 102 526 78 479 q 180 603 126 572 q 318 635 233 635 q 447 619 394 635 q 547 569 500 604 l 474 456 q 415 491 447 476 q 354 507 382 506 q 312 501 329 508 q 285 483 294 494 q 275 460 275 472 q 295 418 274 433 q 350 394 317 403 q 415 375 383 386 q 492 338 460 361 q 541 281 524 314 q 558 203 558 249 q 530 98 558 147 q 444 18 501 49 q 297 -12 386 -12 z "},"\u015b":{"ha":621,"x_min":49,"x_max":558,"o":"m 297 -12 q 158 14 222 -12 q 49 88 93 40 l 129 194 q 212 137 174 154 q 281 119 250 119 q 323 124 304 119 q 353 140 342 129 q 364 167 364 150 q 345 204 364 190 q 297 227 326 218 q 235 246 268 236 q 115 323 151 272 q 78 433 78 374 q 102 526 78 479 q 180 603 126 572 q 318 635 233 635 q 447 619 394 635 q 547 569 500 604 l 474 456 q 415 491 447 476 q 354 507 382 506 q 312 501 329 508 q 285 483 294 494 q 275 460 275 472 q 295 418 274 433 q 350 394 317 403 q 415 375 383 386 q 492 338 460 361 q 541 281 524 314 q 558 203 558 249 q 530 98 558 147 q 444 18 501 49 q 297 -12 386 -12 z "},"\u0161":{"ha":621,"x_min":49,"x_max":588,"o":"m 297 -12 q 158 14 222 -12 q 49 88 93 40 l 129 194 q 212 137 174 154 q 281 119 250 119 q 323 124 304 119 q 353 140 342 129 q 364 167 364 150 q 345 204 364 190 q 297 227 326 218 q 235 246 268 236 q 115 323 151 272 q 78 433 78 374 q 102 526 78 479 q 180 603 126 572 q 318 635 233 635 q 447 619 394 635 q 547 569 500 604 l 474 456 q 415 491 447 476 q 354 507 382 506 q 312 501 329 508 q 285 483 294 494 q 275 460 275 472 q 295 418 274 433 q 350 394 317 403 q 415 375 383 386 q 492 338 460 361 q 541 281 524 314 q 558 203 558 249 q 530 98 558 147 q 444 18 501 49 q 297 -12 386 -12 z "},"\u015f":{"ha":621,"x_min":49,"x_max":558,"o":"m 297 -12 q 158 14 222 -12 q 49 88 93 40 l 129 194 q 212 137 174 154 q 281 119 250 119 q 323 124 304 119 q 353 140 342 129 q 364 167 364 150 q 345 204 364 190 q 297 227 326 218 q 235 246 268 236 q 115 323 151 272 q 78 433 78 374 q 102 526 78 479 q 180 603 126 572 q 318 635 233 635 q 447 619 394 635 q 547 569 500 604 l 474 456 q 415 491 447 476 q 354 507 382 506 q 312 501 329 508 q 285 483 294 494 q 275 460 275 472 q 295 418 274 433 q 350 394 317 403 q 415 375 383 386 q 492 338 460 361 q 541 281 524 314 q 558 203 558 249 q 530 98 558 147 q 444 18 501 49 q 297 -12 386 -12 z "},"\u015d":{"ha":621,"x_min":49,"x_max":571,"o":"m 297 -12 q 158 14 222 -12 q 49 88 93 40 l 129 194 q 212 137 174 154 q 281 119 250 119 q 323 124 304 119 q 353 140 342 129 q 364 167 364 150 q 345 204 364 190 q 297 227 326 218 q 235 246 268 236 q 115 323 151 272 q 78 433 78 374 q 102 526 78 479 q 180 603 126 572 q 318 635 233 635 q 447 619 394 635 q 547 569 500 604 l 474 456 q 415 491 447 476 q 354 507 382 506 q 312 501 329 508 q 285 483 294 494 q 275 460 275 472 q 295 418 274 433 q 350 394 317 403 q 415 375 383 386 q 492 338 460 361 q 541 281 524 314 q 558 203 558 249 q 530 98 558 147 q 444 18 501 49 q 297 -12 386 -12 z "},"\u0219":{"ha":621,"x_min":49,"x_max":558,"o":"m 297 -12 q 158 14 222 -12 q 49 88 93 40 l 129 194 q 212 137 174 154 q 281 119 250 119 q 323 124 304 119 q 353 140 342 129 q 364 167 364 150 q 345 204 364 190 q 297 227 326 218 q 235 246 268 236 q 115 323 151 272 q 78 433 78 374 q 102 526 78 479 q 180 603 126 572 q 318 635 233 635 q 447 619 394 635 q 547 569 500 604 l 474 456 q 415 491 447 476 q 354 507 382 506 q 312 501 329 508 q 285 483 294 494 q 275 460 275 472 q 295 418 274 433 q 350 394 317 403 q 415 375 383 386 q 492 338 460 361 q 541 281 524 314 q 558 203 558 249 q 530 98 558 147 q 444 18 501 49 q 297 -12 386 -12 m 271 -311 l 171 -244 q 215 -159 201 -215 q 218 -54 228 -103 l 388 -56 q 383 -144 396 -94 q 341 -238 369 -193 q 271 -311 313 -283 z "},"\xdf":{"ha":869,"x_min":56,"x_max":807,"o":"m 146 650 q 190 801 146 738 q 305 898 233 864 q 457 931 376 932 q 617 904 551 931 q 717 833 683 878 q 751 732 751 788 q 731 628 751 678 q 663 553 710 579 q 738 499 706 532 q 789 411 771 465 q 807 274 807 357 q 773 111 807 175 q 678 17 739 47 q 536 -14 618 -14 q 428 5 469 -14 q 372 40 386 24 l 447 157 q 483 135 467 140 q 517 131 499 131 q 574 151 554 131 q 603 206 594 171 q 611 285 611 242 q 597 380 611 342 q 556 436 583 418 q 489 453 529 454 l 481 453 l 479 621 q 535 640 515 621 q 556 689 556 658 q 544 735 556 717 q 510 763 532 754 q 458 772 489 772 q 365 724 389 772 q 340 582 340 675 l 340 0 l 146 0 l 146 454 l 56 454 l 56 613 l 146 613 l 146 650 z "},"t":{"ha":547,"x_min":63,"x_max":499,"o":"m 157 874 l 351 874 l 351 610 l 499 610 l 499 458 l 351 458 l 351 0 l 157 0 l 157 458 l 63 458 l 63 610 l 157 610 l 157 874 z "},"\u0167":{"ha":547,"x_min":35,"x_max":499,"o":"m 157 874 l 351 874 l 351 610 l 499 610 l 499 458 l 351 458 l 351 0 l 157 0 l 157 458 l 63 458 l 63 610 l 157 610 l 157 874 m 35 349 l 472 349 l 472 168 l 35 168 l 35 349 z "},"\u0165":{"ha":547,"x_min":63,"x_max":618,"o":"m 157 874 l 351 874 l 351 610 l 499 610 l 499 458 l 351 458 l 351 0 l 157 0 l 157 458 l 63 458 l 63 610 l 157 610 l 157 874 m 493 701 l 393 768 q 437 853 424 797 q 440 958 450 910 l 610 957 q 605 869 618 918 q 563 774 592 819 q 493 701 535 729 z "},"\u0163":{"ha":547,"x_min":63,"x_max":499,"o":"m 157 874 l 351 874 l 351 610 l 499 610 l 499 458 l 351 458 l 351 0 l 157 0 l 157 458 l 63 458 l 63 610 l 157 610 l 157 874 z "},"\u021b":{"ha":547,"x_min":63,"x_max":499,"o":"m 157 874 l 351 874 l 351 610 l 499 610 l 499 458 l 351 458 l 351 0 l 157 0 l 157 458 l 63 458 l 63 610 l 157 610 l 157 874 m 211 -297 l 111 -231 q 155 -145 142 -201 q 158 -40 168 -89 l 328 -42 q 323 -130 336 -81 q 281 -224 310 -179 q 211 -297 253 -269 z "},"u":{"ha":811,"x_min":100,"x_max":711,"o":"m 296 -29 q 158 22 214 -29 q 100 153 103 72 l 100 607 l 294 607 l 294 225 q 315 160 297 185 q 376 136 333 136 q 451 165 419 136 q 499 245 482 194 q 517 360 517 296 l 517 607 l 711 607 l 711 0 l 535 0 l 519 111 l 522 99 q 469 32 501 61 q 394 -13 438 3 q 296 -29 350 -29 z "},"\xfa":{"ha":811,"x_min":100,"x_max":711,"o":"m 296 -29 q 158 22 214 -29 q 100 153 103 72 l 100 607 l 294 607 l 294 225 q 315 160 297 185 q 376 136 333 136 q 451 165 419 136 q 499 245 482 194 q 517 360 517 296 l 517 607 l 711 607 l 711 0 l 535 0 l 519 111 l 522 99 q 469 32 501 61 q 394 -13 438 3 q 296 -29 350 -29 z "},"\u016d":{"ha":811,"x_min":100,"x_max":711,"o":"m 296 -29 q 158 22 214 -29 q 100 153 103 72 l 100 607 l 294 607 l 294 225 q 315 160 297 185 q 376 136 333 136 q 451 165 419 136 q 499 245 482 194 q 517 360 517 296 l 517 607 l 711 607 l 711 0 l 535 0 l 519 111 l 522 99 q 469 32 501 61 q 394 -13 438 3 q 296 -29 350 -29 z "},"\xfb":{"ha":811,"x_min":100,"x_max":711,"o":"m 296 -29 q 158 22 214 -29 q 100 153 103 72 l 100 607 l 294 607 l 294 225 q 315 160 297 185 q 376 136 333 136 q 451 165 419 136 q 499 245 482 194 q 517 360 517 296 l 517 607 l 711 607 l 711 0 l 535 0 l 519 111 l 522 99 q 469 32 501 61 q 394 -13 438 3 q 296 -29 350 -29 z "},"\u0215":{"ha":811,"x_min":61,"x_max":711,"o":"m 296 -29 q 158 22 214 -29 q 100 153 103 72 l 100 607 l 294 607 l 294 225 q 315 160 297 185 q 376 136 333 136 q 451 165 419 136 q 499 245 482 194 q 517 360 517 296 l 517 607 l 711 607 l 711 0 l 535 0 l 519 111 l 522 99 q 469 32 501 61 q 394 -13 438 3 q 296 -29 350 -29 z "},"\xfc":{"ha":811,"x_min":100,"x_max":711,"o":"m 296 -29 q 158 22 214 -29 q 100 153 103 72 l 100 607 l 294 607 l 294 225 q 315 160 297 185 q 376 136 333 136 q 451 165 419 136 q 499 245 482 194 q 517 360 517 296 l 517 607 l 711 607 l 711 0 l 535 0 l 519 111 l 522 99 q 469 32 501 61 q 394 -13 438 3 q 296 -29 350 -29 z "},"\u1ee5":{"ha":811,"x_min":100,"x_max":711,"o":"m 296 -29 q 158 22 214 -29 q 100 153 103 72 l 100 607 l 294 607 l 294 225 q 315 160 297 185 q 376 136 333 136 q 451 165 419 136 q 499 245 482 194 q 517 360 517 296 l 517 607 l 711 607 l 711 0 l 535 0 l 519 111 l 522 99 q 469 32 501 61 q 394 -13 438 3 q 296 -29 350 -29 m 317 -151 q 344 -94 317 -117 q 406 -71 372 -71 q 465 -94 438 -71 q 492 -151 492 -117 q 465 -210 492 -187 q 406 -232 438 -232 q 344 -210 372 -232 q 317 -151 317 -187 z "},"\xf9":{"ha":811,"x_min":100,"x_max":711,"o":"m 296 -29 q 158 22 214 -29 q 100 153 103 72 l 100 607 l 294 607 l 294 225 q 315 160 297 185 q 376 136 333 136 q 451 165 419 136 q 499 245 482 194 q 517 360 517 296 l 517 607 l 711 607 l 711 0 l 535 0 l 519 111 l 522 99 q 469 32 501 61 q 394 -13 438 3 q 296 -29 350 -29 z "},"\u1ee7":{"ha":811,"x_min":100,"x_max":711,"o":"m 296 -29 q 158 22 214 -29 q 100 153 103 72 l 100 607 l 294 607 l 294 225 q 315 160 297 185 q 376 136 333 136 q 451 165 419 136 q 499 245 482 194 q 517 360 517 296 l 517 607 l 711 607 l 711 0 l 535 0 l 519 111 l 522 99 q 469 32 501 61 q 394 -13 438 3 q 296 -29 350 -29 m 368 750 q 407 783 392 767 q 422 824 422 800 q 413 856 422 843 q 382 869 404 869 q 349 858 364 869 q 328 832 335 847 l 258 874 q 324 949 282 925 q 408 974 365 974 q 479 955 453 974 q 517 908 506 936 q 529 851 529 879 q 493 761 529 797 q 408 699 457 725 l 368 750 z "},"\u01b0":{"ha":811,"x_min":100,"x_max":863,"o":"m 296 -29 q 158 22 214 -29 q 100 153 103 72 l 100 607 l 294 607 l 294 225 q 315 160 297 185 q 376 136 333 136 q 451 165 419 136 q 499 245 482 194 q 517 360 517 296 l 517 607 l 711 607 l 711 0 l 535 0 l 519 111 l 522 99 q 469 32 501 61 q 394 -13 438 3 q 296 -29 350 -29 m 601 607 q 678 637 650 607 q 719 726 707 667 l 863 726 q 810 585 847 636 q 720 513 774 533 q 601 492 667 492 l 601 607 z "},"\u1ee9":{"ha":811,"x_min":100,"x_max":863,"o":"m 296 -29 q 158 22 214 -29 q 100 153 103 72 l 100 607 l 294 607 l 294 225 q 315 160 297 185 q 376 136 333 136 q 451 165 419 136 q 499 245 482 194 q 517 360 517 296 l 517 607 l 711 607 l 711 0 l 535 0 l 519 111 l 522 99 q 469 32 501 61 q 394 -13 438 3 q 296 -29 350 -29 m 601 607 q 678 637 650 607 q 719 726 707 667 l 863 726 q 810 585 847 636 q 720 513 774 533 q 601 492 667 492 l 601 607 z "},"\u1ef1":{"ha":811,"x_min":100,"x_max":863,"o":"m 296 -29 q 158 22 214 -29 q 100 153 103 72 l 100 607 l 294 607 l 294 225 q 315 160 297 185 q 376 136 333 136 q 451 165 419 136 q 499 245 482 194 q 517 360 517 296 l 517 607 l 711 607 l 711 0 l 535 0 l 519 111 l 522 99 q 469 32 501 61 q 394 -13 438 3 q 296 -29 350 -29 m 601 607 q 678 637 650 607 q 719 726 707 667 l 863 726 q 810 585 847 636 q 720 513 774 533 q 601 492 667 492 l 601 607 m 317 -151 q 344 -94 317 -117 q 406 -71 372 -71 q 465 -94 438 -71 q 492 -151 492 -117 q 465 -210 492 -187 q 406 -232 438 -232 q 344 -210 372 -232 q 317 -151 317 -187 z "},"\u1eeb":{"ha":811,"x_min":100,"x_max":863,"o":"m 296 -29 q 158 22 214 -29 q 100 153 103 72 l 100 607 l 294 607 l 294 225 q 315 160 297 185 q 376 136 333 136 q 451 165 419 136 q 499 245 482 194 q 517 360 517 296 l 517 607 l 711 607 l 711 0 l 535 0 l 519 111 l 522 99 q 469 32 501 61 q 394 -13 438 3 q 296 -29 350 -29 m 601 607 q 678 637 650 607 q 719 726 707 667 l 863 726 q 810 585 847 636 q 720 513 774 533 q 601 492 667 492 l 601 607 z "},"\u1eed":{"ha":811,"x_min":100,"x_max":863,"o":"m 296 -29 q 158 22 214 -29 q 100 153 103 72 l 100 607 l 294 607 l 294 225 q 315 160 297 185 q 376 136 333 136 q 451 165 419 136 q 499 245 482 194 q 517 360 517 296 l 517 607 l 711 607 l 711 0 l 535 0 l 519 111 l 522 99 q 469 32 501 61 q 394 -13 438 3 q 296 -29 350 -29 m 601 607 q 678 637 650 607 q 719 726 707 667 l 863 726 q 810 585 847 636 q 720 513 774 533 q 601 492 667 492 l 601 607 m 368 750 q 407 783 392 767 q 422 824 422 800 q 413 856 422 843 q 382 869 404 869 q 349 858 364 869 q 328 832 335 847 l 258 874 q 324 949 282 925 q 408 974 365 974 q 479 955 453 974 q 517 908 506 936 q 529 851 529 879 q 493 761 529 797 q 408 699 457 725 l 368 750 z "},"\u1eef":{"ha":811,"x_min":100,"x_max":863,"o":"m 296 -29 q 158 22 214 -29 q 100 153 103 72 l 100 607 l 294 607 l 294 225 q 315 160 297 185 q 376 136 333 136 q 451 165 419 136 q 499 245 482 194 q 517 360 517 296 l 517 607 l 711 607 l 711 0 l 535 0 l 519 111 l 522 99 q 469 32 501 61 q 394 -13 438 3 q 296 -29 350 -29 m 601 607 q 678 637 650 607 q 719 726 707 667 l 863 726 q 810 585 847 636 q 720 513 774 533 q 601 492 667 492 l 601 607 m 518 675 q 439 695 471 675 q 381 736 407 715 q 351 758 365 749 q 319 768 336 768 q 291 754 301 768 q 278 719 281 740 q 278 678 275 699 l 181 678 q 190 781 174 732 q 241 860 206 829 q 331 890 276 890 q 393 871 365 890 q 444 832 421 851 q 481 803 464 815 q 514 790 497 790 q 545 822 540 790 q 549 886 550 853 l 646 886 q 640 778 656 826 q 592 703 625 731 q 518 675 560 675 z "},"\u0171":{"ha":811,"x_min":100,"x_max":765,"o":"m 296 -29 q 158 22 214 -29 q 100 153 103 72 l 100 607 l 294 607 l 294 225 q 315 160 297 185 q 376 136 333 136 q 451 165 419 136 q 499 245 482 194 q 517 360 517 296 l 517 607 l 711 607 l 711 0 l 535 0 l 519 111 l 522 99 q 469 32 501 61 q 394 -13 438 3 q 296 -29 350 -29 z "},"\u0217":{"ha":811,"x_min":100,"x_max":711,"o":"m 296 -29 q 158 22 214 -29 q 100 153 103 72 l 100 607 l 294 607 l 294 225 q 315 160 297 185 q 376 136 333 136 q 451 165 419 136 q 499 245 482 194 q 517 360 517 296 l 517 607 l 711 607 l 711 0 l 535 0 l 519 111 l 522 99 q 469 32 501 61 q 394 -13 438 3 q 296 -29 350 -29 m 414 940 q 526 912 479 940 q 602 826 572 883 q 647 681 632 768 l 518 681 q 498 750 510 721 q 467 795 486 779 q 414 811 447 811 q 362 795 382 811 q 331 750 342 779 q 311 681 319 721 l 182 681 q 227 828 197 771 q 303 913 257 886 q 414 940 350 940 z "},"\u016b":{"ha":811,"x_min":100,"x_max":711,"o":"m 296 -29 q 158 22 214 -29 q 100 153 103 72 l 100 607 l 294 607 l 294 225 q 315 160 297 185 q 376 136 333 136 q 451 165 419 136 q 499 245 482 194 q 517 360 517 296 l 517 607 l 711 607 l 711 0 l 535 0 l 519 111 l 522 99 q 469 32 501 61 q 394 -13 438 3 q 296 -29 350 -29 z "},"\u0173":{"ha":819,"x_min":100,"x_max":811,"o":"m 624 -322 q 480 -273 539 -322 q 421 -143 421 -224 q 451 -53 421 -97 q 539 14 482 -8 l 647 32 l 715 0 q 618 -54 656 -26 q 581 -128 581 -82 q 599 -174 581 -162 q 642 -186 618 -186 q 694 -169 669 -186 q 742 -118 719 -153 l 811 -218 q 726 -293 781 -264 q 624 -322 672 -322 m 296 -29 q 158 22 214 -29 q 100 153 103 72 l 100 607 l 294 607 l 294 225 q 315 160 297 185 q 376 136 333 136 q 451 165 419 136 q 499 245 482 194 q 517 360 517 296 l 517 607 l 711 607 l 711 0 l 535 0 l 519 111 l 522 99 q 469 32 501 61 q 394 -13 438 3 q 296 -29 350 -29 z "},"\u016f":{"ha":811,"x_min":100,"x_max":711,"o":"m 296 -29 q 158 22 214 -29 q 100 153 103 72 l 100 607 l 294 607 l 294 225 q 315 160 297 185 q 376 136 333 136 q 451 165 419 136 q 499 245 482 194 q 517 360 517 296 l 517 607 l 711 607 l 711 0 l 535 0 l 519 111 l 522 99 q 469 32 501 61 q 394 -13 438 3 q 296 -29 350 -29 z "},"\u0169":{"ha":811,"x_min":100,"x_max":711,"o":"m 296 -29 q 158 22 214 -29 q 100 153 103 72 l 100 607 l 294 607 l 294 225 q 315 160 297 185 q 376 136 333 136 q 451 165 419 136 q 499 245 482 194 q 517 360 517 296 l 517 607 l 711 607 l 711 0 l 535 0 l 519 111 l 522 99 q 469 32 501 61 q 394 -13 438 3 q 296 -29 350 -29 m 518 675 q 439 695 471 675 q 381 736 407 715 q 351 758 365 749 q 319 768 336 768 q 291 754 301 768 q 278 719 281 740 q 278 678 275 699 l 181 678 q 190 781 174 732 q 241 860 206 829 q 331 890 276 890 q 393 871 365 890 q 444 832 421 851 q 481 803 464 815 q 514 790 497 790 q 545 822 540 790 q 549 886 550 853 l 646 886 q 640 778 656 826 q 592 703 625 731 q 518 675 560 675 z "},"v":{"ha":742,"x_min":14,"x_max":728,"o":"m 378 -12 l 14 607 l 244 607 l 451 188 l 332 192 l 511 607 l 728 607 l 383 -12 l 378 -12 z "},"w":{"ha":950,"x_min":14,"x_max":936,"o":"m 533 607 l 667 294 l 631 292 l 747 607 l 936 607 l 663 -36 l 468 367 l 290 -36 l 14 607 l 203 607 l 350 269 l 283 279 l 400 538 l 368 607 l 533 607 z "},"\u1e83":{"ha":950,"x_min":14,"x_max":936,"o":"m 533 607 l 667 294 l 631 292 l 747 607 l 936 607 l 663 -36 l 468 367 l 290 -36 l 14 607 l 203 607 l 350 269 l 283 279 l 400 538 l 368 607 l 533 607 z "},"\u0175":{"ha":950,"x_min":14,"x_max":936,"o":"m 533 607 l 667 294 l 631 292 l 747 607 l 936 607 l 663 -36 l 468 367 l 290 -36 l 14 607 l 203 607 l 350 269 l 283 279 l 400 538 l 368 607 l 533 607 z "},"\u1e85":{"ha":950,"x_min":14,"x_max":936,"o":"m 533 607 l 667 294 l 631 292 l 747 607 l 936 607 l 663 -36 l 468 367 l 290 -36 l 14 607 l 203 607 l 350 269 l 283 279 l 400 538 l 368 607 l 533 607 z "},"\u1e81":{"ha":950,"x_min":14,"x_max":936,"o":"m 533 607 l 667 294 l 631 292 l 747 607 l 936 607 l 663 -36 l 468 367 l 290 -36 l 14 607 l 203 607 l 350 269 l 283 279 l 400 538 l 368 607 l 533 607 z "},"x":{"ha":731,"x_min":14,"x_max":717,"o":"m 375 414 l 490 607 l 683 607 l 443 274 l 375 414 m 717 0 l 482 0 l 14 607 l 253 607 l 717 0 m 350 194 l 214 0 l 21 0 l 261 325 l 350 194 z "},"y":{"ha":742,"x_min":14,"x_max":728,"o":"m 149 -292 l 553 607 l 728 607 l 336 -292 l 149 -292 m 311 -3 l 14 607 l 232 607 l 461 94 l 311 -3 z "},"\xfd":{"ha":742,"x_min":14,"x_max":728,"o":"m 149 -292 l 553 607 l 728 607 l 336 -292 l 149 -292 m 311 -3 l 14 607 l 232 607 l 461 94 l 311 -3 z "},"\u0177":{"ha":742,"x_min":14,"x_max":728,"o":"m 149 -292 l 553 607 l 728 607 l 336 -292 l 149 -292 m 311 -3 l 14 607 l 232 607 l 461 94 l 311 -3 z "},"\xff":{"ha":742,"x_min":14,"x_max":728,"o":"m 149 -292 l 553 607 l 728 607 l 336 -292 l 149 -292 m 311 -3 l 14 607 l 232 607 l 461 94 l 311 -3 z "},"\u1ef5":{"ha":742,"x_min":14,"x_max":728,"o":"m 149 -292 l 553 607 l 728 607 l 336 -292 l 149 -292 m 311 -3 l 14 607 l 232 607 l 461 94 l 311 -3 m 518 -165 q 546 -108 518 -131 q 607 -85 574 -85 q 666 -108 639 -85 q 693 -165 693 -131 q 666 -224 693 -201 q 607 -246 639 -246 q 546 -224 574 -246 q 518 -165 518 -201 z "},"\u1ef3":{"ha":742,"x_min":14,"x_max":728,"o":"m 149 -292 l 553 607 l 728 607 l 336 -292 l 149 -292 m 311 -3 l 14 607 l 232 607 l 461 94 l 311 -3 z "},"\u1ef7":{"ha":742,"x_min":14,"x_max":728,"o":"m 149 -292 l 553 607 l 728 607 l 336 -292 l 149 -292 m 311 -3 l 14 607 l 232 607 l 461 94 l 311 -3 m 344 722 q 383 756 368 739 q 399 796 399 772 q 390 828 399 815 q 358 842 381 842 q 326 831 340 842 q 304 804 311 819 l 235 846 q 300 922 258 897 q 385 946 342 946 q 456 927 429 946 q 494 880 482 908 q 506 824 506 851 q 469 733 506 769 q 385 671 433 697 l 344 722 z "},"\u0233":{"ha":742,"x_min":14,"x_max":728,"o":"m 149 -292 l 553 607 l 728 607 l 336 -292 l 149 -292 m 311 -3 l 14 607 l 232 607 l 461 94 l 311 -3 z "},"\u1ef9":{"ha":742,"x_min":14,"x_max":728,"o":"m 149 -292 l 553 607 l 728 607 l 336 -292 l 149 -292 m 311 -3 l 14 607 l 232 607 l 461 94 l 311 -3 m 494 647 q 415 667 447 647 q 357 708 383 688 q 327 731 342 721 q 296 740 313 740 q 267 726 278 740 q 254 692 257 713 q 254 650 251 671 l 157 650 q 166 753 150 704 q 217 832 182 801 q 307 863 253 863 q 369 843 342 863 q 421 804 397 824 q 457 775 440 788 q 490 763 474 763 q 522 794 517 763 q 525 858 526 825 l 622 858 q 617 751 632 799 q 569 675 601 703 q 494 647 536 647 z "},"z":{"ha":725,"x_min":28,"x_max":647,"o":"m 194 449 q 107 485 144 449 q 69 582 69 521 l 69 665 l 215 665 l 215 646 q 226 612 215 617 q 263 607 236 607 l 647 607 l 311 118 l 275 158 l 643 158 l 643 0 l 28 0 l 374 504 l 403 449 l 194 449 z "},"\u017a":{"ha":725,"x_min":28,"x_max":647,"o":"m 194 449 q 107 485 144 449 q 69 582 69 521 l 69 665 l 215 665 l 215 646 q 226 612 215 617 q 263 607 236 607 l 647 607 l 311 118 l 275 158 l 643 158 l 643 0 l 28 0 l 374 504 l 403 449 l 194 449 z "},"\u017e":{"ha":725,"x_min":28,"x_max":647,"o":"m 194 449 q 107 485 144 449 q 69 582 69 521 l 69 665 l 215 665 l 215 646 q 226 612 215 617 q 263 607 236 607 l 647 607 l 311 118 l 275 158 l 643 158 l 643 0 l 28 0 l 374 504 l 403 449 l 194 449 z "},"\u017c":{"ha":725,"x_min":28,"x_max":647,"o":"m 194 449 q 107 485 144 449 q 69 582 69 521 l 69 665 l 215 665 l 215 646 q 226 612 215 617 q 263 607 236 607 l 647 607 l 311 118 l 275 158 l 643 158 l 643 0 l 28 0 l 374 504 l 403 449 l 194 449 z "},"\ufb00":{"ha":1039,"x_min":56,"x_max":1046,"o":"m 158 0 l 158 438 l 56 438 l 56 610 l 158 610 l 158 821 q 227 1016 158 940 q 426 1092 296 1092 q 513 1080 465 1092 q 597 1042 561 1068 l 515 901 q 483 926 501 919 q 447 932 464 932 q 379 904 406 932 q 353 815 353 876 l 353 610 l 536 610 l 536 438 l 353 438 l 353 0 l 158 0 m 607 0 l 607 438 l 504 438 l 504 610 l 607 610 l 607 821 q 676 1016 607 940 q 875 1092 744 1092 q 962 1080 914 1092 q 1046 1042 1010 1068 l 964 901 q 931 926 950 919 q 896 932 913 932 q 828 904 854 932 q 801 815 801 876 l 801 610 l 985 610 l 985 438 l 801 438 l 801 0 l 607 0 z "},"\ufb01":{"ha":881,"x_min":56,"x_max":793,"o":"m 158 0 l 158 438 l 56 438 l 56 610 l 158 610 l 158 821 q 227 1016 158 940 q 426 1092 296 1092 q 513 1080 465 1092 q 597 1042 561 1068 l 515 901 q 483 926 501 919 q 447 932 464 932 q 379 904 406 932 q 353 815 353 876 l 353 610 l 508 610 l 508 438 l 353 438 l 353 0 l 158 0 m 586 607 l 781 607 l 781 0 l 586 0 l 586 607 m 582 822 q 616 893 582 865 q 689 921 650 921 q 760 893 728 921 q 793 822 793 865 q 760 752 793 779 q 689 725 728 725 q 616 752 650 725 q 582 822 582 779 z "},"\ufb02":{"ha":881,"x_min":56,"x_max":781,"o":"m 158 0 l 158 438 l 56 438 l 56 610 l 158 610 l 158 821 q 227 1016 158 940 q 426 1092 296 1092 q 513 1080 465 1092 q 597 1042 561 1068 l 515 901 q 483 926 501 919 q 447 932 464 932 q 379 904 406 932 q 353 815 353 876 l 353 610 l 508 610 l 508 438 l 353 438 l 353 0 l 158 0 m 586 1096 l 781 1096 l 781 0 l 586 0 l 586 1096 z "},"\xaa":{"ha":540,"x_min":35,"x_max":471,"o":"m 208 593 q 120 615 160 593 q 58 685 81 638 q 35 804 35 732 q 58 919 35 871 q 121 995 82 968 q 204 1022 160 1022 q 282 1006 256 1022 q 326 968 308 989 l 322 949 l 332 1006 l 471 1006 l 471 603 l 324 603 l 324 678 l 332 654 q 316 639 331 654 q 275 608 301 624 q 208 593 249 593 m 257 711 q 285 717 274 711 q 307 735 297 724 q 324 764 317 747 l 324 849 q 298 890 315 875 q 254 904 281 904 q 203 878 224 904 q 183 810 183 851 q 193 760 183 782 q 219 724 203 738 q 257 711 236 711 z "},"\xba":{"ha":518,"x_min":35,"x_max":483,"o":"m 35 807 q 63 917 35 869 q 143 993 92 965 q 261 1021 194 1021 q 379 993 329 1021 q 456 917 429 965 q 483 807 483 869 q 456 697 483 746 q 379 619 429 647 q 260 592 329 592 q 143 617 194 592 q 63 692 92 643 q 35 807 35 740 m 185 806 q 194 762 185 782 q 221 731 204 742 q 258 719 238 719 q 299 731 282 719 q 324 762 315 742 q 333 806 333 782 q 324 850 333 831 q 299 881 315 869 q 258 893 282 893 q 221 881 238 893 q 194 850 204 869 q 185 806 185 831 z "},"\u0394":{"ha":1019,"x_min":17,"x_max":1003,"o":"m 17 0 l 510 1063 l 517 1063 l 1003 0 l 17 0 m 750 111 l 422 825 l 593 794 l 261 86 l 135 194 l 854 194 l 750 111 z "},"\u03bc":{"ha":811,"x_min":100,"x_max":711,"o":"m 296 -29 q 158 22 214 -29 q 100 153 103 72 l 100 607 l 294 607 l 294 225 q 315 160 297 185 q 376 136 333 136 q 451 165 419 136 q 499 245 482 194 q 517 360 517 296 l 517 607 l 711 607 l 711 0 l 535 0 l 519 111 l 522 99 q 469 32 501 61 q 394 -13 438 3 q 296 -29 350 -29 m 100 540 l 275 540 l 275 -329 l 100 -329 l 100 540 z "},"\u03c0":{"ha":617,"x_min":13,"x_max":599,"o":"m 13 511 l 599 511 l 599 343 l 511 343 l 511 0 l 339 0 l 339 343 l 267 343 l 267 0 l 93 0 l 93 343 l 13 343 l 13 511 z "},"\xb9":{"ha":393,"x_min":35,"x_max":310,"o":"m 35 921 l 310 921 l 310 344 l 129 344 l 129 747 l 35 747 l 35 921 z "},"\xb2":{"ha":567,"x_min":63,"x_max":525,"o":"m 63 865 q 154 934 90 907 q 285 960 218 961 q 444 905 383 958 q 506 761 506 851 q 472 642 506 697 q 388 543 439 588 q 285 463 338 499 q 197 399 233 426 l 229 529 l 525 529 l 525 368 l 86 368 l 86 481 q 152 517 115 494 q 223 570 189 540 q 280 635 257 600 q 303 707 303 669 q 285 776 303 754 q 231 799 268 799 q 167 780 200 799 q 118 738 133 761 l 63 865 z "},"\xb3":{"ha":522,"x_min":56,"x_max":453,"o":"m 226 361 q 120 385 163 361 q 56 432 78 410 l 110 544 q 145 509 121 532 q 204 486 169 486 q 256 503 233 486 q 278 565 278 521 q 253 634 278 615 q 193 653 228 653 q 159 649 174 653 q 138 642 144 646 l 128 658 l 232 833 l 272 806 l 79 806 l 79 944 l 438 944 l 294 661 l 169 699 q 214 728 189 715 q 276 740 239 740 q 357 723 317 740 q 425 669 397 706 q 453 574 453 632 q 425 467 453 515 q 347 390 397 418 q 226 361 296 361 z "},"\u2074":{"ha":568,"x_min":42,"x_max":526,"o":"m 526 607 l 526 499 l 44 499 l 42 546 l 338 954 l 460 954 l 460 368 l 293 368 l 293 754 l 335 765 l 179 538 l 154 607 l 526 607 z "},"\u2044":{"ha":814,"x_min":7,"x_max":753,"o":"m 753 969 l 188 0 l 7 0 l 572 969 l 753 969 z "},"\xbd":{"ha":1289,"x_min":35,"x_max":1219,"o":"m 35 921 l 310 921 l 310 344 l 129 344 l 129 747 l 35 747 l 35 921 m 757 483 q 849 552 785 525 q 979 578 913 579 q 1139 523 1078 576 q 1200 379 1200 469 q 1167 260 1200 315 q 1083 161 1133 206 q 980 81 1032 117 q 892 17 928 44 l 924 147 l 1219 147 l 1219 -14 l 781 -14 l 781 99 q 847 135 810 113 q 917 188 883 158 q 974 253 951 218 q 997 325 997 288 q 980 394 997 372 q 925 417 963 417 q 861 398 894 417 q 813 356 828 379 l 757 483 m 933 969 l 368 0 l 188 0 l 753 969 l 933 969 z "},"\xbc":{"ha":1194,"x_min":35,"x_max":1167,"o":"m 963 969 l 397 0 l 217 0 l 782 969 l 963 969 m 35 921 l 310 921 l 310 344 l 129 344 l 129 747 l 35 747 l 35 921 m 1167 239 l 1167 131 l 685 131 l 682 178 l 978 586 l 1100 586 l 1100 0 l 933 0 l 933 386 l 975 397 l 819 169 l 794 239 l 1167 239 z "},"\xbe":{"ha":1257,"x_min":69,"x_max":1188,"o":"m 240 361 q 134 385 176 361 q 69 432 92 410 l 124 544 q 159 509 135 532 q 218 486 183 486 q 269 503 247 486 q 292 565 292 521 q 267 634 292 615 q 207 653 242 653 q 173 649 188 653 q 151 642 158 646 l 142 658 l 246 833 l 286 806 l 93 806 l 93 944 l 451 944 l 308 661 l 183 699 q 228 728 203 715 q 290 740 253 740 q 371 723 331 740 q 439 669 411 706 q 467 574 467 632 q 439 467 467 515 q 360 390 411 418 q 240 361 310 361 m 1011 969 l 446 0 l 265 0 l 831 969 l 1011 969 m 1188 240 l 1188 132 l 706 132 l 703 179 l 999 588 l 1121 588 l 1121 1 l 954 1 l 954 388 l 996 399 l 840 171 l 815 240 l 1188 240 z "},"*":{"ha":465,"x_min":35,"x_max":438,"o":"m 178 700 q 135 676 157 688 q 93 651 114 664 q 65 702 79 676 q 35 753 50 728 q 78 776 57 764 q 121 800 99 789 q 78 826 100 813 q 36 851 57 839 q 63 899 50 875 q 90 947 76 924 q 134 922 113 935 q 178 896 156 908 l 178 1000 l 294 1000 q 294 948 294 974 q 293 896 293 922 q 338 921 315 908 q 382 946 360 933 q 410 898 396 922 q 438 850 424 874 q 393 824 415 838 q 347 799 371 811 l 347 799 q 391 774 369 786 q 435 749 413 761 q 406 698 421 724 q 376 647 392 672 q 333 673 354 660 q 290 699 313 686 q 290 651 290 675 q 289 603 289 626 l 178 603 l 178 700 z "},"\\\\":{"ha":597,"x_min":-14,"x_max":578,"o":"m 183 1043 q 381 508 282 775 q 578 -26 479 242 l 381 -26 q 183 508 282 242 q -14 1043 85 775 l 183 1043 z "},"\xb7":{"ha":243,"x_min":21,"x_max":218,"o":"m 21 401 q 52 474 21 444 q 121 503 83 503 q 187 474 156 503 q 218 401 218 444 q 187 328 218 356 q 121 301 156 301 q 52 328 83 301 q 21 401 21 356 l 21 401 z "},"\u2022":{"ha":678,"x_min":111,"x_max":569,"o":"m 111 425 q 142 542 111 489 q 224 626 172 594 q 339 657 276 657 q 455 626 403 657 q 538 542 507 594 q 569 425 569 489 q 538 309 569 361 q 455 227 507 257 q 339 197 403 197 q 224 227 276 197 q 142 309 172 257 q 111 425 111 361 l 111 425 z "},":":{"ha":249,"x_min":21,"x_max":218,"o":"m 21 496 q 52 568 21 539 q 121 597 83 597 q 187 568 156 597 q 218 496 218 539 q 187 423 218 450 q 121 396 156 396 q 52 423 83 396 q 21 496 21 450 l 21 496 m 21 100 q 52 172 21 143 q 121 201 83 201 q 187 172 156 201 q 218 100 218 143 q 187 27 218 54 q 121 0 156 0 q 52 27 83 0 q 21 100 21 54 l 21 100 z "},",":{"ha":285,"x_min":-17,"x_max":261,"o":"m 261 122 q 200 -24 231 49 q 139 -169 169 -96 l -17 -169 q 38 -24 11 -96 q 93 122 65 49 l 261 122 z "},"\u2026":{"ha":758,"x_min":21,"x_max":738,"o":"m 21 100 q 52 172 21 143 q 121 201 83 201 q 187 172 156 201 q 218 100 218 143 q 187 27 218 54 q 121 0 156 0 q 52 27 83 0 q 21 100 21 54 l 21 100 m 281 100 q 312 172 281 143 q 381 201 343 201 q 447 172 415 201 q 478 100 478 143 q 447 27 478 54 q 381 0 415 0 q 312 27 343 0 q 281 100 281 54 l 281 100 m 540 100 q 572 172 540 143 q 640 201 603 201 q 706 172 675 201 q 738 100 738 143 q 706 27 738 54 q 640 0 675 0 q 572 27 603 0 q 540 100 540 54 l 540 100 z "},"!":{"ha":281,"x_min":28,"x_max":253,"o":"m 50 1063 l 224 1063 l 224 276 l 50 276 l 50 1063 m 142 -19 q 60 8 92 -19 q 28 79 28 35 q 60 151 28 122 q 142 181 93 181 q 222 151 190 181 q 253 79 253 122 q 222 8 253 35 q 142 -19 192 -19 z "},"\xa1":{"ha":283,"x_min":28,"x_max":253,"o":"m 50 -297 l 224 -297 l 224 489 l 50 489 l 50 -297 m 142 785 q 60 758 92 785 q 28 688 28 731 q 60 614 28 643 q 142 585 93 585 q 222 614 190 585 q 253 688 253 643 q 222 758 253 731 q 142 785 192 785 z "},"#":{"ha":808,"x_min":32,"x_max":744,"o":"m 399 911 q 383 788 390 849 q 367 665 375 728 l 453 665 q 468 788 460 728 q 483 911 476 849 l 660 911 q 644 788 651 849 q 628 665 636 728 l 744 665 q 737 581 740 624 q 728 497 733 539 l 610 497 q 604 452 607 475 q 599 406 601 429 l 717 406 q 706 321 711 363 q 696 236 700 279 l 578 236 q 565 118 572 176 q 550 0 557 60 l 375 0 q 390 118 382 60 q 403 236 397 176 l 318 236 q 304 118 313 176 q 290 0 296 60 l 114 0 q 128 118 121 60 q 142 236 136 176 l 32 236 q 43 321 38 279 q 53 406 49 363 l 163 406 q 168 452 165 429 q 174 497 171 475 l 64 497 q 73 581 69 539 q 82 665 76 624 l 192 665 q 208 788 200 728 q 224 911 215 849 l 399 911 m 349 497 q 344 452 347 475 q 338 406 340 429 l 424 406 q 429 452 426 429 q 433 497 432 475 l 349 497 z "},".":{"ha":239,"x_min":21,"x_max":218,"o":"m 21 100 q 52 172 21 143 q 121 201 83 201 q 187 172 156 201 q 218 100 218 143 q 187 27 218 54 q 121 0 156 0 q 52 27 83 0 q 21 100 21 54 l 21 100 z "},"?":{"ha":644,"x_min":14,"x_max":617,"o":"m 197 274 l 197 347 q 215 463 197 417 q 259 543 232 510 q 314 603 286 576 q 381 672 351 638 q 410 761 410 706 q 394 813 410 792 q 358 845 379 833 q 315 857 336 857 q 248 838 275 857 q 203 790 221 819 q 174 729 186 761 l 14 804 q 43 868 22 829 q 102 946 64 907 q 198 1011 140 985 q 336 1038 256 1038 q 478 1010 415 1038 q 579 927 542 983 q 617 779 617 871 q 596 656 617 703 q 544 576 575 608 q 483 511 514 543 q 438 459 460 488 q 404 393 417 431 q 392 303 392 356 l 392 274 l 197 274 m 294 -19 q 213 8 244 -19 q 181 79 181 35 q 213 151 181 122 q 294 181 246 181 q 374 151 343 181 q 406 79 406 122 q 375 8 406 35 q 294 -19 344 -19 z "},"\xbf":{"ha":628,"x_min":33,"x_max":636,"o":"m 453 475 l 453 401 q 435 286 453 333 q 391 206 418 239 q 336 146 364 174 q 269 77 299 111 q 240 -12 240 43 q 256 -63 240 -42 q 292 -97 271 -85 q 335 -108 314 -108 q 402 -90 375 -108 q 447 -41 429 -71 q 476 19 464 -11 l 636 -56 q 607 -119 628 -81 q 548 -197 586 -158 q 452 -262 510 -236 q 314 -289 394 -289 q 172 -261 236 -287 q 71 -178 108 -235 q 33 -31 33 -121 q 54 93 33 46 q 106 174 75 140 q 167 238 136 207 q 213 290 192 263 q 246 356 233 318 q 258 446 258 393 l 258 475 l 453 475 m 356 768 q 438 741 406 768 q 469 669 469 714 q 437 597 469 626 q 356 568 404 568 q 276 597 307 568 q 244 669 244 626 q 275 741 244 714 q 356 768 306 768 z "}}}
